<svg width="511" height="152" viewBox="0 0 511 152" fill="none" xmlns="http://www.w3.org/2000/svg">
<rect width="511" height="152" fill="white"/>
<path d="M45 108H467V143H45V108Z" fill="#F1F4F8"/>
<path d="M54.42 129.36C54.42 128.813 54.5467 128.333 54.8 127.92C55.0533 127.493 55.4533 127.133 56 126.84C56.5467 126.547 57.2467 126.307 58.1 126.12C58.9533 125.933 59.9867 125.8 61.2 125.72C61.16 125.16 60.96 124.7 60.6 124.34C60.24 123.98 59.66 123.8 58.86 123.8C58.3 123.8 57.7467 123.907 57.2 124.12C56.6667 124.32 56.1467 124.56 55.64 124.84L54.8 123.3C55.4 122.953 56.0867 122.64 56.86 122.36C57.6333 122.08 58.44 121.94 59.28 121.94C60.6533 121.94 61.7 122.307 62.42 123.04C63.14 123.76 63.5 124.807 63.5 126.18V132H61.62L61.44 130.78H61.38C60.86 131.18 60.28 131.527 59.64 131.82C59.0133 132.1 58.3667 132.24 57.7 132.24C57.22 132.24 56.78 132.167 56.38 132.02C55.98 131.887 55.6333 131.693 55.34 131.44C55.0467 131.187 54.82 130.887 54.66 130.54C54.5 130.18 54.42 129.787 54.42 129.36ZM56.64 129.18C56.64 129.62 56.8067 129.94 57.14 130.14C57.4867 130.34 57.9067 130.44 58.4 130.44C58.8933 130.44 59.3667 130.333 59.82 130.12C60.2867 129.893 60.7467 129.6 61.2 129.24V127.16C60.32 127.227 59.5867 127.32 59 127.44C58.4133 127.547 57.9467 127.687 57.6 127.86C57.2533 128.033 57.0067 128.233 56.86 128.46C56.7133 128.673 56.64 128.913 56.64 129.18ZM66.0522 127.1C66.0522 126.3 66.1722 125.58 66.4122 124.94C66.6522 124.3 66.9722 123.76 67.3722 123.32C67.7855 122.88 68.2522 122.54 68.7722 122.3C69.2922 122.06 69.8322 121.94 70.3922 121.94C70.9789 121.94 71.4789 122.047 71.8922 122.26C72.3189 122.46 72.7322 122.74 73.1322 123.1L73.0322 121.44V117.88H75.3522V132H73.4522L73.2722 130.86H73.2122C72.8255 131.247 72.3722 131.573 71.8522 131.84C71.3455 132.107 70.8122 132.24 70.2522 132.24C69.6255 132.24 69.0522 132.127 68.5322 131.9C68.0122 131.66 67.5655 131.32 67.1922 130.88C66.8322 130.44 66.5522 129.907 66.3522 129.28C66.1522 128.64 66.0522 127.913 66.0522 127.1ZM68.4322 127.08C68.4322 128.147 68.6389 128.96 69.0522 129.52C69.4655 130.067 70.0522 130.34 70.8122 130.34C71.6255 130.34 72.3655 129.947 73.0322 129.16V124.74C72.6855 124.407 72.3389 124.173 71.9922 124.04C71.6455 123.907 71.2922 123.84 70.9322 123.84C70.5855 123.84 70.2589 123.913 69.9522 124.06C69.6589 124.207 69.3989 124.42 69.1722 124.7C68.9455 124.967 68.7655 125.3 68.6322 125.7C68.4989 126.1 68.4322 126.56 68.4322 127.08ZM78.0444 127.1C78.0444 126.3 78.1644 125.58 78.4044 124.94C78.6444 124.3 78.9644 123.76 79.3644 123.32C79.7777 122.88 80.2444 122.54 80.7644 122.3C81.2844 122.06 81.8244 121.94 82.3844 121.94C82.971 121.94 83.471 122.047 83.8844 122.26C84.311 122.46 84.7244 122.74 85.1244 123.1L85.0244 121.44V117.88H87.3444V132H85.4444L85.2644 130.86H85.2044C84.8177 131.247 84.3644 131.573 83.8444 131.84C83.3377 132.107 82.8044 132.24 82.2444 132.24C81.6177 132.24 81.0444 132.127 80.5244 131.9C80.0044 131.66 79.5577 131.32 79.1844 130.88C78.8244 130.44 78.5444 129.907 78.3444 129.28C78.1444 128.64 78.0444 127.913 78.0444 127.1ZM80.4244 127.08C80.4244 128.147 80.631 128.96 81.0444 129.52C81.4577 130.067 82.0444 130.34 82.8044 130.34C83.6177 130.34 84.3577 129.947 85.0244 129.16V124.74C84.6777 124.407 84.331 124.173 83.9844 124.04C83.6377 123.907 83.2844 123.84 82.9244 123.84C82.5777 123.84 82.251 123.913 81.9444 124.06C81.651 124.207 81.391 124.42 81.1644 124.7C80.9377 124.967 80.7577 125.3 80.6244 125.7C80.491 126.1 80.4244 126.56 80.4244 127.08Z" fill="#9B51E0"/>
<path d="M102.529 122.32H111.409V124H102.529V122.32ZM102.529 126.78H111.409V128.46H102.529V126.78ZM126.373 117.88H131.773V128.54C131.773 129.207 131.94 129.68 132.273 129.96C132.606 130.227 133.026 130.36 133.533 130.36C134.013 130.36 134.573 130.233 135.213 129.98L135.753 131.68C135.286 131.84 134.846 131.973 134.433 132.08C134.033 132.187 133.546 132.24 132.973 132.24C131.813 132.24 130.94 131.907 130.353 131.24C129.766 130.573 129.473 129.633 129.473 128.42V119.7H126.373V117.88ZM138.365 129.36C138.365 128.813 138.492 128.333 138.745 127.92C138.999 127.493 139.399 127.133 139.945 126.84C140.492 126.547 141.192 126.307 142.045 126.12C142.899 125.933 143.932 125.8 145.145 125.72C145.105 125.16 144.905 124.7 144.545 124.34C144.185 123.98 143.605 123.8 142.805 123.8C142.245 123.8 141.692 123.907 141.145 124.12C140.612 124.32 140.092 124.56 139.585 124.84L138.745 123.3C139.345 122.953 140.032 122.64 140.805 122.36C141.579 122.08 142.385 121.94 143.225 121.94C144.599 121.94 145.645 122.307 146.365 123.04C147.085 123.76 147.445 124.807 147.445 126.18V132H145.565L145.385 130.78H145.325C144.805 131.18 144.225 131.527 143.585 131.82C142.959 132.1 142.312 132.24 141.645 132.24C141.165 132.24 140.725 132.167 140.325 132.02C139.925 131.887 139.579 131.693 139.285 131.44C138.992 131.187 138.765 130.887 138.605 130.54C138.445 130.18 138.365 129.787 138.365 129.36ZM140.585 129.18C140.585 129.62 140.752 129.94 141.085 130.14C141.432 130.34 141.852 130.44 142.345 130.44C142.839 130.44 143.312 130.333 143.765 130.12C144.232 129.893 144.692 129.6 145.145 129.24V127.16C144.265 127.227 143.532 127.32 142.945 127.44C142.359 127.547 141.892 127.687 141.545 127.86C141.199 128.033 140.952 128.233 140.805 128.46C140.659 128.673 140.585 128.913 140.585 129.18ZM149.898 122.18H151.638L151.818 123.44H151.877C152.104 123.013 152.378 122.66 152.698 122.38C153.031 122.087 153.478 121.94 154.038 121.94C154.998 121.94 155.598 122.487 155.838 123.58C156.064 123.113 156.351 122.727 156.698 122.42C157.058 122.1 157.511 121.94 158.058 121.94C158.751 121.94 159.284 122.213 159.658 122.76C160.044 123.293 160.237 124.053 160.237 125.04V132H158.058V125.22C158.058 124.353 157.784 123.92 157.238 123.92C156.971 123.92 156.738 124.02 156.538 124.22C156.338 124.42 156.144 124.727 155.958 125.14V132H154.158V125.22C154.158 124.353 153.878 123.92 153.318 123.92C153.051 123.92 152.824 124.02 152.638 124.22C152.451 124.42 152.264 124.727 152.078 125.14V132H149.898V122.18ZM162.57 117.88H164.89V121.52L164.81 123.24C165.236 122.84 165.716 122.527 166.25 122.3C166.783 122.06 167.316 121.94 167.85 121.94C168.49 121.94 169.056 122.06 169.55 122.3C170.043 122.527 170.463 122.86 170.81 123.3C171.156 123.727 171.416 124.247 171.59 124.86C171.776 125.473 171.87 126.16 171.87 126.92C171.87 127.76 171.75 128.513 171.51 129.18C171.27 129.833 170.943 130.387 170.53 130.84C170.13 131.293 169.663 131.64 169.13 131.88C168.61 132.12 168.07 132.24 167.51 132.24C167.043 132.24 166.556 132.127 166.05 131.9C165.543 131.673 165.076 131.347 164.65 130.92H164.59L164.39 132H162.57V117.88ZM164.89 129.44C165.25 129.773 165.623 130.007 166.01 130.14C166.396 130.273 166.743 130.34 167.05 130.34C167.743 130.34 168.323 130.06 168.79 129.5C169.256 128.927 169.49 128.08 169.49 126.96C169.49 125.973 169.31 125.207 168.95 124.66C168.59 124.113 168.01 123.84 167.21 123.84C166.836 123.84 166.456 123.933 166.07 124.12C165.683 124.307 165.29 124.607 164.89 125.02V129.44ZM173.982 127.1C173.982 126.3 174.102 125.58 174.342 124.94C174.582 124.3 174.902 123.76 175.302 123.32C175.715 122.88 176.182 122.54 176.702 122.3C177.222 122.06 177.762 121.94 178.322 121.94C178.909 121.94 179.409 122.047 179.822 122.26C180.249 122.46 180.662 122.74 181.062 123.1L180.962 121.44V117.88H183.282V132H181.382L181.202 130.86H181.142C180.755 131.247 180.302 131.573 179.782 131.84C179.275 132.107 178.742 132.24 178.182 132.24C177.555 132.24 176.982 132.127 176.462 131.9C175.942 131.66 175.495 131.32 175.122 130.88C174.762 130.44 174.482 129.907 174.282 129.28C174.082 128.64 173.982 127.913 173.982 127.1ZM176.362 127.08C176.362 128.147 176.569 128.96 176.982 129.52C177.395 130.067 177.982 130.34 178.742 130.34C179.555 130.34 180.295 129.947 180.962 129.16V124.74C180.615 124.407 180.269 124.173 179.922 124.04C179.575 123.907 179.222 123.84 178.862 123.84C178.515 123.84 178.189 123.913 177.882 124.06C177.589 124.207 177.329 124.42 177.102 124.7C176.875 124.967 176.695 125.3 176.562 125.7C176.429 126.1 176.362 126.56 176.362 127.08ZM186.334 129.36C186.334 128.813 186.461 128.333 186.714 127.92C186.967 127.493 187.367 127.133 187.914 126.84C188.461 126.547 189.161 126.307 190.014 126.12C190.867 125.933 191.901 125.8 193.114 125.72C193.074 125.16 192.874 124.7 192.514 124.34C192.154 123.98 191.574 123.8 190.774 123.8C190.214 123.8 189.661 123.907 189.114 124.12C188.581 124.32 188.061 124.56 187.554 124.84L186.714 123.3C187.314 122.953 188.001 122.64 188.774 122.36C189.547 122.08 190.354 121.94 191.194 121.94C192.567 121.94 193.614 122.307 194.334 123.04C195.054 123.76 195.414 124.807 195.414 126.18V132H193.534L193.354 130.78H193.294C192.774 131.18 192.194 131.527 191.554 131.82C190.927 132.1 190.281 132.24 189.614 132.24C189.134 132.24 188.694 132.167 188.294 132.02C187.894 131.887 187.547 131.693 187.254 131.44C186.961 131.187 186.734 130.887 186.574 130.54C186.414 130.18 186.334 129.787 186.334 129.36ZM188.554 129.18C188.554 129.62 188.721 129.94 189.054 130.14C189.401 130.34 189.821 130.44 190.314 130.44C190.807 130.44 191.281 130.333 191.734 130.12C192.201 129.893 192.661 129.6 193.114 129.24V127.16C192.234 127.227 191.501 127.32 190.914 127.44C190.327 127.547 189.861 127.687 189.514 127.86C189.167 128.033 188.921 128.233 188.774 128.46C188.627 128.673 188.554 128.913 188.554 129.18ZM260.887 123.42C260.887 122.833 261.074 122.353 261.447 121.98C261.821 121.593 262.294 121.4 262.867 121.4C263.441 121.4 263.914 121.593 264.287 121.98C264.661 122.353 264.847 122.833 264.847 123.42C264.847 124.007 264.661 124.493 264.287 124.88C263.914 125.253 263.441 125.44 262.867 125.44C262.294 125.44 261.821 125.253 261.447 124.88C261.074 124.493 260.887 124.007 260.887 123.42ZM260.887 130.22C260.887 129.633 261.074 129.153 261.447 128.78C261.821 128.393 262.294 128.2 262.867 128.2C263.441 128.2 263.914 128.393 264.287 128.78C264.661 129.153 264.847 129.633 264.847 130.22C264.847 130.807 264.661 131.293 264.287 131.68C263.914 132.053 263.441 132.24 262.867 132.24C262.294 132.24 261.821 132.053 261.447 131.68C261.074 131.293 260.887 130.807 260.887 130.22Z" fill="#2E383C"/>
<path d="M213.478 126.9L210.158 122.18H212.658L213.938 124.04C214.098 124.307 214.272 124.587 214.458 124.88C214.645 125.16 214.832 125.44 215.018 125.72H215.098C215.245 125.44 215.405 125.153 215.578 124.86C215.752 124.567 215.912 124.287 216.058 124.02L217.218 122.18H219.638L216.298 127.14L219.878 132H217.378L215.958 130.06C215.772 129.793 215.572 129.507 215.358 129.2C215.158 128.893 214.958 128.6 214.758 128.32H214.678C214.492 128.613 214.312 128.907 214.138 129.2C213.978 129.48 213.805 129.773 213.618 130.08L212.338 132H209.918L213.478 126.9ZM224.671 134.92C226.364 134.24 227.217 133.213 227.231 131.84C227.164 131.853 227.071 131.86 226.951 131.86C226.444 131.86 226.004 131.713 225.631 131.42C225.257 131.113 225.071 130.667 225.071 130.08C225.071 129.52 225.257 129.087 225.631 128.78C226.017 128.46 226.471 128.3 226.991 128.3C227.711 128.3 228.251 128.567 228.611 129.1C228.971 129.633 229.151 130.367 229.151 131.3C229.151 132.527 228.817 133.56 228.151 134.4C227.484 135.253 226.524 135.887 225.271 136.3L224.671 134.92ZM246.655 134.04C246.788 134.08 246.922 134.113 247.055 134.14C247.188 134.167 247.328 134.18 247.475 134.18C248.102 134.18 248.602 134.02 248.975 133.7C249.348 133.393 249.635 132.993 249.835 132.5L250.075 131.88L245.675 122.18H247.975L249.995 127C250.182 127.44 250.362 127.907 250.535 128.4C250.708 128.893 250.888 129.387 251.075 129.88H251.155C251.302 129.413 251.462 128.933 251.635 128.44C251.808 127.947 251.975 127.467 252.135 127L253.915 122.18H256.095L251.995 132.44C251.782 133 251.542 133.5 251.275 133.94C251.022 134.38 250.722 134.753 250.375 135.06C250.028 135.38 249.628 135.62 249.175 135.78C248.722 135.953 248.202 136.04 247.615 136.04C247.348 136.04 247.095 136.02 246.855 135.98C246.615 135.953 246.402 135.907 246.215 135.84L246.655 134.04Z" fill="#009E73"/>
<path d="M285.432 126.9L282.112 122.18H284.612L285.892 124.04C286.052 124.307 286.225 124.587 286.412 124.88C286.598 125.16 286.785 125.44 286.972 125.72H287.052C287.198 125.44 287.358 125.153 287.532 124.86C287.705 124.567 287.865 124.287 288.012 124.02L289.172 122.18H291.592L288.252 127.14L291.832 132H289.332L287.912 130.06C287.725 129.793 287.525 129.507 287.312 129.2C287.112 128.893 286.912 128.6 286.712 128.32H286.632C286.445 128.613 286.265 128.907 286.092 129.2C285.932 129.48 285.758 129.773 285.572 130.08L284.292 132H281.872L285.432 126.9ZM309.956 126.24H306.396V124.56H309.956V120.78H311.716V124.56H315.276V126.24H311.716V130.02H309.956V126.24ZM330.6 134.04C330.734 134.08 330.867 134.113 331 134.14C331.134 134.167 331.274 134.18 331.42 134.18C332.047 134.18 332.547 134.02 332.92 133.7C333.294 133.393 333.58 132.993 333.78 132.5L334.02 131.88L329.62 122.18H331.92L333.94 127C334.127 127.44 334.307 127.907 334.48 128.4C334.654 128.893 334.834 129.387 335.02 129.88H335.1C335.247 129.413 335.407 128.933 335.58 128.44C335.754 127.947 335.92 127.467 336.08 127L337.86 122.18H340.04L335.94 132.44C335.727 133 335.487 133.5 335.22 133.94C334.967 134.38 334.667 134.753 334.32 135.06C333.974 135.38 333.574 135.62 333.12 135.78C332.667 135.953 332.147 136.04 331.56 136.04C331.294 136.04 331.04 136.02 330.8 135.98C330.56 135.953 330.347 135.907 330.16 135.84L330.6 134.04Z" fill="#EB5757"/>
<path d="M45 9H467.517V68H45V9Z" fill="#F1F4F8"/>
<path d="M53.6275 28.4496C53.6275 27.6496 53.7475 26.9296 53.9875 26.2896C54.2275 25.6496 54.5475 25.1096 54.9475 24.6696C55.3608 24.2296 55.8275 23.8896 56.3475 23.6496C56.8675 23.4096 57.4075 23.2896 57.9675 23.2896C58.5542 23.2896 59.0542 23.3963 59.4675 23.6096C59.8942 23.8096 60.3075 24.0896 60.7075 24.4496L60.6075 22.7896V19.2296H62.9275V33.3496H61.0275L60.8475 32.2096H60.7875C60.4008 32.5963 59.9475 32.9229 59.4275 33.1896C58.9208 33.4563 58.3875 33.5896 57.8275 33.5896C57.2008 33.5896 56.6275 33.4763 56.1075 33.2496C55.5875 33.0096 55.1408 32.6696 54.7675 32.2296C54.4075 31.7896 54.1275 31.2563 53.9275 30.6296C53.7275 29.9896 53.6275 29.2629 53.6275 28.4496ZM56.0075 28.4296C56.0075 29.4963 56.2142 30.3096 56.6275 30.8696C57.0408 31.4163 57.6275 31.6896 58.3875 31.6896C59.2008 31.6896 59.9408 31.2963 60.6075 30.5096V26.0896C60.2608 25.7563 59.9142 25.5229 59.5675 25.3896C59.2208 25.2563 58.8675 25.1896 58.5075 25.1896C58.1608 25.1896 57.8342 25.2629 57.5275 25.4096C57.2342 25.5563 56.9742 25.7696 56.7475 26.0496C56.5208 26.3163 56.3408 26.6496 56.2075 27.0496C56.0742 27.4496 56.0075 27.9096 56.0075 28.4296ZM65.7997 28.4496C65.7997 27.6496 65.9397 26.9296 66.2197 26.2896C66.513 25.6496 66.893 25.1096 67.3597 24.6696C67.8264 24.2163 68.3597 23.8763 68.9597 23.6496C69.573 23.4096 70.1997 23.2896 70.8397 23.2896C71.573 23.2896 72.2197 23.4096 72.7797 23.6496C73.353 23.8763 73.833 24.1963 74.2197 24.6096C74.6064 25.0096 74.8997 25.4963 75.0997 26.0696C75.2997 26.6429 75.3997 27.2696 75.3997 27.9496C75.3997 28.1763 75.3864 28.3896 75.3597 28.5896C75.3464 28.7896 75.3264 28.9496 75.2997 29.0696H68.1597C68.2397 29.9496 68.5864 30.6296 69.1997 31.1096C69.813 31.5763 70.5664 31.8096 71.4597 31.8096C71.9664 31.8096 72.4397 31.7429 72.8797 31.6096C73.3197 31.4629 73.7664 31.2629 74.2197 31.0096L74.9997 32.4496C74.4664 32.7829 73.873 33.0563 73.2197 33.2696C72.5664 33.4829 71.8797 33.5896 71.1597 33.5896C70.413 33.5896 69.713 33.4763 69.0597 33.2496C68.4064 33.0096 67.8397 32.6696 67.3597 32.2296C66.8797 31.7896 66.4997 31.2563 66.2197 30.6296C65.9397 29.9896 65.7997 29.2629 65.7997 28.4496ZM73.2797 27.5096C73.2797 26.7496 73.0797 26.1563 72.6797 25.7296C72.2797 25.2896 71.6864 25.0696 70.8997 25.0696C70.233 25.0696 69.6397 25.2763 69.1197 25.6896C68.5997 26.1029 68.273 26.7096 68.1397 27.5096H73.2797ZM87.7119 21.2296C87.3519 21.0829 86.9985 20.9763 86.6519 20.9096C86.3185 20.8429 85.9519 20.8096 85.5519 20.8096C84.7919 20.8096 84.2385 20.9963 83.8919 21.3696C83.5585 21.7296 83.3919 22.2563 83.3919 22.9496V23.5296H87.1319V25.3496H83.3919V33.3496H81.1119V25.3496H78.3919V23.6296L81.1119 23.5296V22.9896C81.1119 22.4163 81.1919 21.8829 81.3519 21.3896C81.5119 20.8963 81.7585 20.4763 82.0919 20.1296C82.4385 19.7696 82.8719 19.4896 83.3919 19.2896C83.9252 19.0896 84.5519 18.9896 85.2719 18.9896C85.8052 18.9896 86.3119 19.0363 86.7919 19.1296C87.2852 19.2229 87.7519 19.3563 88.1919 19.5296L87.7119 21.2296ZM144.753 36.8896C143.406 35.7696 142.339 34.4496 141.553 32.9296C140.779 31.4096 140.393 29.6963 140.393 27.7896C140.393 25.8829 140.779 24.1696 141.553 22.6496C142.339 21.1296 143.406 19.8096 144.753 18.6896L146.033 19.7496C144.766 20.8963 143.839 22.1163 143.253 23.4096C142.666 24.7029 142.373 26.1629 142.373 27.7896C142.373 29.4163 142.666 30.8763 143.253 32.1696C143.839 33.4629 144.766 34.6829 146.033 35.8296L144.753 36.8896ZM198.954 35.8296C200.22 34.6829 201.147 33.4629 201.734 32.1696C202.32 30.8763 202.614 29.4163 202.614 27.7896C202.614 26.1629 202.32 24.7029 201.734 23.4096C201.147 22.1163 200.22 20.8963 198.954 19.7496L200.234 18.6896C201.58 19.8096 202.64 21.1296 203.414 22.6496C204.2 24.1696 204.594 25.8829 204.594 27.7896C204.594 29.6963 204.2 31.4096 203.414 32.9296C202.64 34.4496 201.58 35.7696 200.234 36.8896L198.954 35.8296ZM212.486 24.7696C212.486 24.1829 212.673 23.7029 213.046 23.3296C213.419 22.9429 213.893 22.7496 214.466 22.7496C215.039 22.7496 215.513 22.9429 215.886 23.3296C216.259 23.7029 216.446 24.1829 216.446 24.7696C216.446 25.3563 216.259 25.8429 215.886 26.2296C215.513 26.6029 215.039 26.7896 214.466 26.7896C213.893 26.7896 213.419 26.6029 213.046 26.2296C212.673 25.8429 212.486 25.3563 212.486 24.7696ZM212.486 31.5696C212.486 30.9829 212.673 30.5029 213.046 30.1296C213.419 29.7429 213.893 29.5496 214.466 29.5496C215.039 29.5496 215.513 29.7429 215.886 30.1296C216.259 30.5029 216.446 30.9829 216.446 31.5696C216.446 32.1563 216.259 32.6429 215.886 33.0296C215.513 33.4029 215.039 33.5896 214.466 33.5896C213.893 33.5896 213.419 33.4029 213.046 33.0296C212.673 32.6429 212.486 32.1563 212.486 31.5696ZM103.136 48.5296H105.036L105.236 50.7496H105.296C105.803 49.9496 106.41 49.3429 107.116 48.9296C107.836 48.5029 108.623 48.2896 109.476 48.2896C109.876 48.2896 110.216 48.3229 110.496 48.3896C110.79 48.4429 111.083 48.5429 111.376 48.6896L110.896 50.6296C110.576 50.5229 110.29 50.4496 110.036 50.4096C109.796 50.3563 109.49 50.3296 109.116 50.3296C108.436 50.3296 107.783 50.5229 107.156 50.9096C106.53 51.2963 105.963 51.9696 105.456 52.9296V58.3496H103.136V48.5296ZM113.768 53.4496C113.768 52.6496 113.908 51.9296 114.188 51.2896C114.482 50.6496 114.862 50.1096 115.328 49.6696C115.795 49.2163 116.328 48.8763 116.928 48.6496C117.542 48.4096 118.168 48.2896 118.808 48.2896C119.542 48.2896 120.188 48.4096 120.748 48.6496C121.322 48.8763 121.802 49.1963 122.188 49.6096C122.575 50.0096 122.868 50.4963 123.068 51.0696C123.268 51.6429 123.368 52.2696 123.368 52.9496C123.368 53.1763 123.355 53.3896 123.328 53.5896C123.315 53.7896 123.295 53.9496 123.268 54.0696H116.128C116.208 54.9496 116.555 55.6296 117.168 56.1096C117.782 56.5763 118.535 56.8096 119.428 56.8096C119.935 56.8096 120.408 56.7429 120.848 56.6096C121.288 56.4629 121.735 56.2629 122.188 56.0096L122.968 57.4496C122.435 57.7829 121.842 58.0563 121.188 58.2696C120.535 58.4829 119.848 58.5896 119.128 58.5896C118.382 58.5896 117.682 58.4763 117.028 58.2496C116.375 58.0096 115.808 57.6696 115.328 57.2296C114.848 56.7896 114.468 56.2563 114.188 55.6296C113.908 54.9896 113.768 54.2629 113.768 53.4496ZM121.248 52.5096C121.248 51.7496 121.048 51.1563 120.648 50.7296C120.248 50.2896 119.655 50.0696 118.868 50.0696C118.202 50.0696 117.608 50.2763 117.088 50.6896C116.568 51.1029 116.242 51.7096 116.108 52.5096H121.248ZM128.321 50.3496H125.701V48.6296L128.421 48.5296L128.721 45.8496H130.621V48.5296H135.101V50.3496H130.621V54.3896C130.621 55.2029 130.787 55.8029 131.121 56.1896C131.454 56.5629 132.041 56.7496 132.881 56.7496C133.307 56.7496 133.694 56.7163 134.041 56.6496C134.387 56.5696 134.721 56.4696 135.041 56.3496L135.481 58.0296C135.041 58.1763 134.554 58.3029 134.021 58.4096C133.487 58.5296 132.921 58.5896 132.321 58.5896C131.574 58.5896 130.947 58.4896 130.441 58.2896C129.934 58.0896 129.521 57.8096 129.201 57.4496C128.894 57.0763 128.667 56.6296 128.521 56.1096C128.387 55.5896 128.321 55.0163 128.321 54.3896V50.3496ZM146.813 58.3496H144.933L144.753 56.7896H144.673C144.206 57.3363 143.693 57.7763 143.133 58.1096C142.573 58.4296 141.926 58.5896 141.193 58.5896C140.046 58.5896 139.213 58.2496 138.693 57.5696C138.173 56.8763 137.913 55.8896 137.913 54.6096V48.5296H140.213V54.3096C140.213 55.1096 140.346 55.6963 140.613 56.0696C140.893 56.4296 141.373 56.6096 142.053 56.6096C142.519 56.6096 142.933 56.5029 143.293 56.2896C143.666 56.0763 144.073 55.6963 144.513 55.1496V48.5296H146.813V58.3496ZM151.105 48.5296H153.005L153.205 50.7496H153.265C153.772 49.9496 154.378 49.3429 155.085 48.9296C155.805 48.5029 156.592 48.2896 157.445 48.2896C157.845 48.2896 158.185 48.3229 158.465 48.3896C158.758 48.4429 159.052 48.5429 159.345 48.6896L158.865 50.6296C158.545 50.5229 158.258 50.4496 158.005 50.4096C157.765 50.3563 157.458 50.3296 157.085 50.3296C156.405 50.3296 155.752 50.5229 155.125 50.9096C154.498 51.2963 153.932 51.9696 153.425 52.9296V58.3496H151.105V48.5296ZM162.137 48.5296H164.037L164.217 50.0096H164.297C164.764 49.5429 165.277 49.1429 165.837 48.8096C166.411 48.4629 167.077 48.2896 167.837 48.2896C168.971 48.2896 169.804 48.6363 170.337 49.3296C170.871 50.0096 171.137 50.9896 171.137 52.2696V58.3496H168.817V52.5696C168.817 51.7696 168.677 51.1896 168.397 50.8296C168.131 50.4563 167.657 50.2696 166.977 50.2696C166.497 50.2696 166.071 50.3829 165.697 50.6096C165.324 50.8363 164.911 51.1829 164.457 51.6496V58.3496H162.137V48.5296Z" fill="#2E383C"/>
<path d="M101.956 30.7096C101.956 30.1629 102.083 29.6829 102.336 29.2696C102.59 28.8429 102.99 28.4829 103.536 28.1896C104.083 27.8963 104.783 27.6563 105.636 27.4696C106.49 27.2829 107.523 27.1496 108.736 27.0696C108.696 26.5096 108.496 26.0496 108.136 25.6896C107.776 25.3296 107.196 25.1496 106.396 25.1496C105.836 25.1496 105.283 25.2563 104.736 25.4696C104.203 25.6696 103.683 25.9096 103.176 26.1896L102.336 24.6496C102.936 24.3029 103.623 23.9896 104.396 23.7096C105.17 23.4296 105.976 23.2896 106.816 23.2896C108.19 23.2896 109.236 23.6563 109.956 24.3896C110.676 25.1096 111.036 26.1563 111.036 27.5296V33.3496H109.156L108.976 32.1296H108.916C108.396 32.5296 107.816 32.8763 107.176 33.1696C106.55 33.4496 105.903 33.5896 105.236 33.5896C104.756 33.5896 104.316 33.5163 103.916 33.3696C103.516 33.2363 103.17 33.0429 102.876 32.7896C102.583 32.5363 102.356 32.2363 102.196 31.8896C102.036 31.5296 101.956 31.1363 101.956 30.7096ZM104.176 30.5296C104.176 30.9696 104.343 31.2896 104.676 31.4896C105.023 31.6896 105.443 31.7896 105.936 31.7896C106.43 31.7896 106.903 31.6829 107.356 31.4696C107.823 31.2429 108.283 30.9496 108.736 30.5896V28.5096C107.856 28.5763 107.123 28.6696 106.536 28.7896C105.95 28.8963 105.483 29.0363 105.136 29.2096C104.79 29.3829 104.543 29.5829 104.396 29.8096C104.25 30.0229 104.176 30.2629 104.176 30.5296ZM113.588 28.4496C113.588 27.6496 113.708 26.9296 113.948 26.2896C114.188 25.6496 114.508 25.1096 114.908 24.6696C115.322 24.2296 115.788 23.8896 116.308 23.6496C116.828 23.4096 117.368 23.2896 117.928 23.2896C118.515 23.2896 119.015 23.3963 119.428 23.6096C119.855 23.8096 120.268 24.0896 120.668 24.4496L120.568 22.7896V19.2296H122.888V33.3496H120.988L120.808 32.2096H120.748C120.362 32.5963 119.908 32.9229 119.388 33.1896C118.882 33.4563 118.348 33.5896 117.788 33.5896C117.162 33.5896 116.588 33.4763 116.068 33.2496C115.548 33.0096 115.102 32.6696 114.728 32.2296C114.368 31.7896 114.088 31.2563 113.888 30.6296C113.688 29.9896 113.588 29.2629 113.588 28.4496ZM115.968 28.4296C115.968 29.4963 116.175 30.3096 116.588 30.8696C117.002 31.4163 117.588 31.6896 118.348 31.6896C119.162 31.6896 119.902 31.2963 120.568 30.5096V26.0896C120.222 25.7563 119.875 25.5229 119.528 25.3896C119.182 25.2563 118.828 25.1896 118.468 25.1896C118.122 25.1896 117.795 25.2629 117.488 25.4096C117.195 25.5563 116.935 25.7696 116.708 26.0496C116.482 26.3163 116.302 26.6496 116.168 27.0496C116.035 27.4496 115.968 27.9096 115.968 28.4296ZM125.581 28.4496C125.581 27.6496 125.701 26.9296 125.941 26.2896C126.181 25.6496 126.501 25.1096 126.901 24.6696C127.314 24.2296 127.781 23.8896 128.301 23.6496C128.821 23.4096 129.361 23.2896 129.921 23.2896C130.507 23.2896 131.007 23.3963 131.421 23.6096C131.847 23.8096 132.261 24.0896 132.661 24.4496L132.561 22.7896V19.2296H134.881V33.3496H132.981L132.801 32.2096H132.741C132.354 32.5963 131.901 32.9229 131.381 33.1896C130.874 33.4563 130.341 33.5896 129.781 33.5896C129.154 33.5896 128.581 33.4763 128.061 33.2496C127.541 33.0096 127.094 32.6696 126.721 32.2296C126.361 31.7896 126.081 31.2563 125.881 30.6296C125.681 29.9896 125.581 29.2629 125.581 28.4496ZM127.961 28.4296C127.961 29.4963 128.167 30.3096 128.581 30.8696C128.994 31.4163 129.581 31.6896 130.341 31.6896C131.154 31.6896 131.894 31.2963 132.561 30.5096V26.0896C132.214 25.7563 131.867 25.5229 131.521 25.3896C131.174 25.2563 130.821 25.1896 130.461 25.1896C130.114 25.1896 129.787 25.2629 129.481 25.4096C129.187 25.5563 128.927 25.7696 128.701 26.0496C128.474 26.3163 128.294 26.6496 128.161 27.0496C128.027 27.4496 127.961 27.9096 127.961 28.4296Z" fill="#9B51E0"/>
<path d="M153.085 28.2496L149.765 23.5296H152.265L153.545 25.3896C153.705 25.6563 153.878 25.9363 154.065 26.2296C154.252 26.5096 154.438 26.7896 154.625 27.0696H154.705C154.852 26.7896 155.012 26.5029 155.185 26.2096C155.358 25.9163 155.518 25.6363 155.665 25.3696L156.825 23.5296H159.245L155.905 28.4896L159.485 33.3496H156.985L155.565 31.4096C155.378 31.1429 155.178 30.8563 154.965 30.5496C154.765 30.2429 154.565 29.9496 154.365 29.6696H154.285C154.098 29.9629 153.918 30.2563 153.745 30.5496C153.585 30.8296 153.412 31.1229 153.225 31.4296L151.945 33.3496H149.525L153.085 28.2496ZM164.277 36.2696C165.971 35.5896 166.824 34.5629 166.837 33.1896C166.771 33.2029 166.677 33.2096 166.557 33.2096C166.051 33.2096 165.611 33.0629 165.237 32.7696C164.864 32.4629 164.677 32.0163 164.677 31.4296C164.677 30.8696 164.864 30.4363 165.237 30.1296C165.624 29.8096 166.077 29.6496 166.597 29.6496C167.317 29.6496 167.857 29.9163 168.217 30.4496C168.577 30.9829 168.757 31.7163 168.757 32.6496C168.757 33.8763 168.424 34.9096 167.757 35.7496C167.091 36.6029 166.131 37.2363 164.877 37.6496L164.277 36.2696ZM186.262 35.3896C186.395 35.4296 186.528 35.4629 186.662 35.4896C186.795 35.5163 186.935 35.5296 187.082 35.5296C187.708 35.5296 188.208 35.3696 188.582 35.0496C188.955 34.7429 189.242 34.3429 189.442 33.8496L189.682 33.2296L185.282 23.5296H187.582L189.602 28.3496C189.788 28.7896 189.968 29.2563 190.142 29.7496C190.315 30.2429 190.495 30.7363 190.682 31.2296H190.762C190.908 30.7629 191.068 30.2829 191.242 29.7896C191.415 29.2963 191.582 28.8163 191.742 28.3496L193.522 23.5296H195.702L191.602 33.7896C191.388 34.3496 191.148 34.8496 190.882 35.2896C190.628 35.7296 190.328 36.1029 189.982 36.4096C189.635 36.7296 189.235 36.9696 188.782 37.1296C188.328 37.3029 187.808 37.3896 187.222 37.3896C186.955 37.3896 186.702 37.3696 186.462 37.3296C186.222 37.3029 186.008 37.2563 185.822 37.1896L186.262 35.3896Z" fill="#009E73"/>
<path d="M189.062 53.2496L185.742 48.5296H188.242L189.522 50.3896C189.682 50.6563 189.855 50.9363 190.042 51.2296C190.228 51.5096 190.415 51.7896 190.602 52.0696H190.682C190.828 51.7896 190.988 51.5029 191.162 51.2096C191.335 50.9163 191.495 50.6363 191.642 50.3696L192.802 48.5296H195.222L191.882 53.4896L195.462 58.3496H192.962L191.542 56.4096C191.355 56.1429 191.155 55.8563 190.942 55.5496C190.742 55.2429 190.542 54.9496 190.342 54.6696H190.262C190.075 54.9629 189.895 55.2563 189.722 55.5496C189.562 55.8296 189.388 56.1229 189.202 56.4296L187.922 58.3496H185.502L189.062 53.2496ZM213.586 52.5896H210.026V50.9096H213.586V47.1296H215.346V50.9096H218.906V52.5896H215.346V56.3696H213.586V52.5896ZM234.23 60.3896C234.364 60.4296 234.497 60.4629 234.63 60.4896C234.764 60.5163 234.904 60.5296 235.05 60.5296C235.677 60.5296 236.177 60.3696 236.55 60.0496C236.924 59.7429 237.21 59.3429 237.41 58.8496L237.65 58.2296L233.25 48.5296H235.55L237.57 53.3496C237.757 53.7896 237.937 54.2563 238.11 54.7496C238.284 55.2429 238.464 55.7363 238.65 56.2296H238.73C238.877 55.7629 239.037 55.2829 239.21 54.7896C239.384 54.2963 239.55 53.8163 239.71 53.3496L241.49 48.5296H243.67L239.57 58.7896C239.357 59.3496 239.117 59.8496 238.85 60.2896C238.597 60.7296 238.297 61.1029 237.95 61.4096C237.604 61.7296 237.204 61.9696 236.75 62.1296C236.297 62.3029 235.777 62.3896 235.19 62.3896C234.924 62.3896 234.67 62.3696 234.43 62.3296C234.19 62.3029 233.977 62.2563 233.79 62.1896L234.23 60.3896Z" fill="#EB5757"/>
</svg>
