<svg width="511" height="170" viewBox="0 0 511 170" fill="none" xmlns="http://www.w3.org/2000/svg">
<rect width="511" height="170" fill="white"/>
<path d="M44 43.4118H467.255V100H44V43.4118Z" fill="#F1F4F8"/>
<path d="M52.6407 61.7653C52.6407 60.9653 52.7607 60.2453 53.0007 59.6053C53.2407 58.9653 53.5607 58.4253 53.9607 57.9853C54.374 57.5453 54.8407 57.2053 55.3607 56.9653C55.8807 56.7253 56.4207 56.6053 56.9807 56.6053C57.5674 56.6053 58.0674 56.7119 58.4807 56.9253C58.9074 57.1253 59.3207 57.4053 59.7207 57.7653L59.6207 56.1053V52.5453H61.9407V66.6653H60.0407L59.8607 65.5253H59.8007C59.414 65.9119 58.9607 66.2386 58.4407 66.5053C57.934 66.7719 57.4007 66.9053 56.8407 66.9053C56.214 66.9053 55.6407 66.7919 55.1207 66.5653C54.6007 66.3253 54.154 65.9853 53.7807 65.5453C53.4207 65.1053 53.1407 64.5719 52.9407 63.9453C52.7407 63.3053 52.6407 62.5786 52.6407 61.7653ZM55.0207 61.7453C55.0207 62.8119 55.2274 63.6253 55.6407 64.1853C56.054 64.7319 56.6407 65.0053 57.4007 65.0053C58.214 65.0053 58.954 64.6119 59.6207 63.8253V59.4053C59.274 59.0719 58.9274 58.8386 58.5807 58.7053C58.234 58.5719 57.8807 58.5053 57.5207 58.5053C57.174 58.5053 56.8474 58.5786 56.5407 58.7253C56.2474 58.8719 55.9874 59.0853 55.7607 59.3653C55.534 59.6319 55.354 59.9653 55.2207 60.3653C55.0874 60.7653 55.0207 61.2253 55.0207 61.7453ZM64.8129 61.7653C64.8129 60.9653 64.9529 60.2453 65.2329 59.6053C65.5262 58.9653 65.9062 58.4253 66.3729 57.9853C66.8395 57.5319 67.3729 57.1919 67.9729 56.9653C68.5862 56.7253 69.2129 56.6053 69.8529 56.6053C70.5862 56.6053 71.2329 56.7253 71.7929 56.9653C72.3662 57.1919 72.8462 57.5119 73.2329 57.9253C73.6195 58.3253 73.9129 58.8119 74.1129 59.3853C74.3129 59.9586 74.4129 60.5853 74.4129 61.2653C74.4129 61.4919 74.3995 61.7053 74.3729 61.9053C74.3595 62.1053 74.3395 62.2653 74.3129 62.3853H67.1729C67.2529 63.2653 67.5995 63.9453 68.2129 64.4253C68.8262 64.8919 69.5795 65.1253 70.4729 65.1253C70.9795 65.1253 71.4529 65.0586 71.8929 64.9253C72.3329 64.7786 72.7795 64.5786 73.2329 64.3253L74.0129 65.7653C73.4795 66.0986 72.8862 66.3719 72.2329 66.5853C71.5795 66.7986 70.8929 66.9053 70.1729 66.9053C69.4262 66.9053 68.7262 66.7919 68.0729 66.5653C67.4195 66.3253 66.8529 65.9853 66.3729 65.5453C65.8929 65.1053 65.5129 64.5719 65.2329 63.9453C64.9529 63.3053 64.8129 62.5786 64.8129 61.7653ZM72.2929 60.8253C72.2929 60.0653 72.0929 59.4719 71.6929 59.0453C71.2929 58.6053 70.6995 58.3853 69.9129 58.3853C69.2462 58.3853 68.6529 58.5919 68.1329 59.0053C67.6129 59.4186 67.2862 60.0253 67.1529 60.8253H72.2929ZM86.7251 54.5453C86.3651 54.3986 86.0117 54.2919 85.6651 54.2253C85.3317 54.1586 84.9651 54.1253 84.5651 54.1253C83.8051 54.1253 83.2517 54.3119 82.9051 54.6853C82.5717 55.0453 82.4051 55.5719 82.4051 56.2653V56.8453H86.1451V58.6653H82.4051V66.6653H80.1251V58.6653H77.4051V56.9453L80.1251 56.8453V56.3053C80.1251 55.7319 80.2051 55.1986 80.3651 54.7053C80.5251 54.2119 80.7717 53.7919 81.1051 53.4453C81.4517 53.0853 81.8851 52.8053 82.4051 52.6053C82.9384 52.4053 83.5651 52.3053 84.2851 52.3053C84.8184 52.3053 85.3251 52.3519 85.8051 52.4453C86.2984 52.5386 86.7651 52.6719 87.2051 52.8453L86.7251 54.5453ZM215.719 70.2053C214.372 69.0853 213.306 67.7653 212.519 66.2453C211.746 64.7253 211.359 63.0119 211.359 61.1053C211.359 59.1986 211.746 57.4853 212.519 55.9653C213.306 54.4453 214.372 53.1253 215.719 52.0053L216.999 53.0653C215.732 54.2119 214.806 55.4319 214.219 56.7253C213.632 58.0186 213.339 59.4786 213.339 61.1053C213.339 62.7319 213.632 64.1919 214.219 65.4853C214.806 66.7786 215.732 67.9986 216.999 69.1453L215.719 70.2053ZM233.944 69.1453C235.21 67.9986 236.137 66.7786 236.724 65.4853C237.31 64.1919 237.604 62.7319 237.604 61.1053C237.604 59.4786 237.31 58.0186 236.724 56.7253C236.137 55.4319 235.21 54.2119 233.944 53.0653L235.224 52.0053C236.57 53.1253 237.63 54.4453 238.404 55.9653C239.19 57.4853 239.584 59.1986 239.584 61.1053C239.584 63.0119 239.19 64.7253 238.404 66.2453C237.63 67.7653 236.57 69.0853 235.224 70.2053L233.944 69.1453ZM247.476 58.0853C247.476 57.4986 247.662 57.0186 248.036 56.6453C248.409 56.2586 248.882 56.0653 249.456 56.0653C250.029 56.0653 250.502 56.2586 250.876 56.6453C251.249 57.0186 251.436 57.4986 251.436 58.0853C251.436 58.6719 251.249 59.1586 250.876 59.5453C250.502 59.9186 250.029 60.1053 249.456 60.1053C248.882 60.1053 248.409 59.9186 248.036 59.5453C247.662 59.1586 247.476 58.6719 247.476 58.0853ZM247.476 64.8853C247.476 64.2986 247.662 63.8186 248.036 63.4453C248.409 63.0586 248.882 62.8653 249.456 62.8653C250.029 62.8653 250.502 63.0586 250.876 63.4453C251.249 63.8186 251.436 64.2986 251.436 64.8853C251.436 65.4719 251.249 65.9586 250.876 66.3453C250.502 66.7186 250.029 66.9053 249.456 66.9053C248.882 66.9053 248.409 66.7186 248.036 66.3453C247.662 65.9586 247.476 65.4719 247.476 64.8853ZM102.149 81.8453H104.049L104.249 84.0653H104.309C104.816 83.2653 105.423 82.6586 106.129 82.2453C106.849 81.8186 107.636 81.6053 108.489 81.6053C108.889 81.6053 109.229 81.6386 109.509 81.7053C109.803 81.7586 110.096 81.8586 110.389 82.0053L109.909 83.9453C109.589 83.8386 109.303 83.7653 109.049 83.7253C108.809 83.6719 108.503 83.6453 108.129 83.6453C107.449 83.6453 106.796 83.8386 106.169 84.2253C105.543 84.6119 104.976 85.2853 104.469 86.2453V91.6653H102.149V81.8453ZM112.782 86.7653C112.782 85.9653 112.922 85.2453 113.202 84.6053C113.495 83.9653 113.875 83.4253 114.342 82.9853C114.808 82.5319 115.342 82.1919 115.942 81.9653C116.555 81.7253 117.182 81.6053 117.822 81.6053C118.555 81.6053 119.202 81.7253 119.762 81.9653C120.335 82.1919 120.815 82.5119 121.202 82.9253C121.588 83.3253 121.882 83.8119 122.082 84.3853C122.282 84.9586 122.382 85.5853 122.382 86.2653C122.382 86.4919 122.368 86.7053 122.342 86.9053C122.328 87.1053 122.308 87.2653 122.282 87.3853H115.142C115.222 88.2653 115.568 88.9453 116.182 89.4253C116.795 89.8919 117.548 90.1253 118.442 90.1253C118.948 90.1253 119.422 90.0586 119.862 89.9253C120.302 89.7786 120.748 89.5786 121.202 89.3253L121.982 90.7653C121.448 91.0986 120.855 91.3719 120.202 91.5853C119.548 91.7986 118.862 91.9053 118.142 91.9053C117.395 91.9053 116.695 91.7919 116.042 91.5653C115.388 91.3253 114.822 90.9853 114.342 90.5453C113.862 90.1053 113.482 89.5719 113.202 88.9453C112.922 88.3053 112.782 87.5786 112.782 86.7653ZM120.262 85.8253C120.262 85.0653 120.062 84.4719 119.662 84.0453C119.262 83.6053 118.668 83.3853 117.882 83.3853C117.215 83.3853 116.622 83.5919 116.102 84.0053C115.582 84.4186 115.255 85.0253 115.122 85.8253H120.262ZM127.334 83.6653H124.714V81.9453L127.434 81.8453L127.734 79.1653H129.634V81.8453H134.114V83.6653H129.634V87.7053C129.634 88.5186 129.8 89.1186 130.134 89.5053C130.467 89.8786 131.054 90.0653 131.894 90.0653C132.32 90.0653 132.707 90.0319 133.054 89.9653C133.4 89.8853 133.734 89.7853 134.054 89.6653L134.494 91.3453C134.054 91.4919 133.567 91.6186 133.034 91.7253C132.5 91.8453 131.934 91.9053 131.334 91.9053C130.587 91.9053 129.96 91.8053 129.454 91.6053C128.947 91.4053 128.534 91.1253 128.214 90.7653C127.907 90.3919 127.68 89.9453 127.534 89.4253C127.4 88.9053 127.334 88.3319 127.334 87.7053V83.6653ZM145.826 91.6653H143.946L143.766 90.1053H143.686C143.219 90.6519 142.706 91.0919 142.146 91.4253C141.586 91.7453 140.939 91.9053 140.206 91.9053C139.059 91.9053 138.226 91.5653 137.706 90.8853C137.186 90.1919 136.926 89.2053 136.926 87.9253V81.8453H139.226V87.6253C139.226 88.4253 139.359 89.0119 139.626 89.3853C139.906 89.7453 140.386 89.9253 141.066 89.9253C141.533 89.9253 141.946 89.8186 142.306 89.6053C142.679 89.3919 143.086 89.0119 143.526 88.4653V81.8453H145.826V91.6653ZM150.118 81.8453H152.018L152.218 84.0653H152.278C152.785 83.2653 153.392 82.6586 154.098 82.2453C154.818 81.8186 155.605 81.6053 156.458 81.6053C156.858 81.6053 157.198 81.6386 157.478 81.7053C157.772 81.7586 158.065 81.8586 158.358 82.0053L157.878 83.9453C157.558 83.8386 157.272 83.7653 157.018 83.7253C156.778 83.6719 156.472 83.6453 156.098 83.6453C155.418 83.6453 154.765 83.8386 154.138 84.2253C153.512 84.6119 152.945 85.2853 152.438 86.2453V91.6653H150.118V81.8453ZM161.15 81.8453H163.05L163.23 83.3253H163.31C163.777 82.8586 164.29 82.4586 164.85 82.1253C165.424 81.7786 166.09 81.6053 166.85 81.6053C167.984 81.6053 168.817 81.9519 169.35 82.6453C169.884 83.3253 170.15 84.3053 170.15 85.5853V91.6653H167.83V85.8853C167.83 85.0853 167.69 84.5053 167.41 84.1453C167.144 83.7719 166.67 83.5853 165.99 83.5853C165.51 83.5853 165.084 83.6986 164.71 83.9253C164.337 84.1519 163.924 84.4986 163.47 84.9653V91.6653H161.15V81.8453Z" fill="#2E383C"/>
<path d="M109.849 66.6653H107.969L107.789 65.1053H107.709C107.243 65.6519 106.729 66.0919 106.169 66.4253C105.609 66.7453 104.963 66.9053 104.229 66.9053C103.083 66.9053 102.249 66.5653 101.729 65.8853C101.209 65.1919 100.949 64.2053 100.949 62.9253V56.8453H103.249V62.6253C103.249 63.4253 103.383 64.0119 103.649 64.3853C103.929 64.7453 104.409 64.9253 105.089 64.9253C105.556 64.9253 105.969 64.8186 106.329 64.6053C106.703 64.3919 107.109 64.0119 107.549 63.4653V56.8453H109.849V66.6653ZM113.182 56.8453H115.082L115.262 58.3253H115.342C115.808 57.8586 116.322 57.4586 116.882 57.1253C117.455 56.7786 118.122 56.6053 118.882 56.6053C120.015 56.6053 120.848 56.9519 121.382 57.6453C121.915 58.3253 122.182 59.3053 122.182 60.5853V66.6653H119.862V60.8853C119.862 60.0853 119.722 59.5053 119.442 59.1453C119.175 58.7719 118.702 58.5853 118.022 58.5853C117.542 58.5853 117.115 58.6986 116.742 58.9253C116.368 59.1519 115.955 59.4986 115.502 59.9653V66.6653H113.182V56.8453ZM124.994 61.7653C124.994 60.9519 125.14 60.2253 125.434 59.5853C125.74 58.9453 126.147 58.4053 126.654 57.9653C127.16 57.5253 127.754 57.1919 128.434 56.9653C129.114 56.7253 129.827 56.6053 130.574 56.6053C131.374 56.6053 132.074 56.7386 132.674 57.0053C133.287 57.2719 133.8 57.5986 134.214 57.9853L133.114 59.4253C132.727 59.1186 132.334 58.8853 131.934 58.7253C131.547 58.5653 131.134 58.4853 130.694 58.4853C129.707 58.4853 128.907 58.7853 128.294 59.3853C127.68 59.9719 127.374 60.7653 127.374 61.7653C127.374 62.2586 127.454 62.7053 127.614 63.1053C127.774 63.5053 127.994 63.8519 128.274 64.1453C128.567 64.4253 128.914 64.6453 129.314 64.8053C129.714 64.9519 130.154 65.0253 130.634 65.0253C131.194 65.0253 131.7 64.9186 132.154 64.7053C132.62 64.4919 133.047 64.2386 133.434 63.9453L134.394 65.4253C133.834 65.9186 133.207 66.2919 132.514 66.5453C131.82 66.7853 131.12 66.9053 130.414 66.9053C129.64 66.9053 128.92 66.7919 128.254 66.5653C127.6 66.3386 127.027 66.0053 126.534 65.5653C126.054 65.1253 125.674 64.5853 125.394 63.9453C125.127 63.3053 124.994 62.5786 124.994 61.7653ZM137.166 52.5453H139.486V56.1853L139.346 58.2853C139.799 57.8319 140.306 57.4386 140.866 57.1053C141.439 56.7719 142.106 56.6053 142.866 56.6053C143.999 56.6053 144.833 56.9519 145.366 57.6453C145.899 58.3253 146.166 59.3053 146.166 60.5853V66.6653H143.846V60.8853C143.846 60.0853 143.706 59.5053 143.426 59.1453C143.159 58.7719 142.686 58.5853 142.006 58.5853C141.526 58.5853 141.099 58.6986 140.726 58.9253C140.353 59.1519 139.939 59.4986 139.486 59.9653V66.6653H137.166V52.5453ZM148.938 64.0253C148.938 63.4786 149.065 62.9986 149.318 62.5853C149.572 62.1586 149.972 61.7986 150.518 61.5053C151.065 61.2119 151.765 60.9719 152.618 60.7853C153.472 60.5986 154.505 60.4653 155.718 60.3853C155.678 59.8253 155.478 59.3653 155.118 59.0053C154.758 58.6453 154.178 58.4653 153.378 58.4653C152.818 58.4653 152.265 58.5719 151.718 58.7853C151.185 58.9853 150.665 59.2253 150.158 59.5053L149.318 57.9653C149.918 57.6186 150.605 57.3053 151.378 57.0253C152.152 56.7453 152.958 56.6053 153.798 56.6053C155.172 56.6053 156.218 56.9719 156.938 57.7053C157.658 58.4253 158.018 59.4719 158.018 60.8453V66.6653H156.138L155.958 65.4453H155.898C155.378 65.8453 154.798 66.1919 154.158 66.4853C153.532 66.7653 152.885 66.9053 152.218 66.9053C151.738 66.9053 151.298 66.8319 150.898 66.6853C150.498 66.5519 150.152 66.3586 149.858 66.1053C149.565 65.8519 149.338 65.5519 149.178 65.2053C149.018 64.8453 148.938 64.4519 148.938 64.0253ZM151.158 63.8453C151.158 64.2853 151.325 64.6053 151.658 64.8053C152.005 65.0053 152.425 65.1053 152.918 65.1053C153.412 65.1053 153.885 64.9986 154.338 64.7853C154.805 64.5586 155.265 64.2653 155.718 63.9053V61.8253C154.838 61.8919 154.105 61.9853 153.518 62.1053C152.932 62.2119 152.465 62.3519 152.118 62.5253C151.772 62.6986 151.525 62.8986 151.378 63.1253C151.232 63.3386 151.158 63.5786 151.158 63.8453ZM161.15 56.8453H163.05L163.23 58.3253H163.31C163.777 57.8586 164.29 57.4586 164.85 57.1253C165.424 56.7786 166.09 56.6053 166.85 56.6053C167.984 56.6053 168.817 56.9519 169.35 57.6453C169.884 58.3253 170.15 59.3053 170.15 60.5853V66.6653H167.83V60.8853C167.83 60.0853 167.69 59.5053 167.41 59.1453C167.144 58.7719 166.67 58.5853 165.99 58.5853C165.51 58.5853 165.084 58.6986 164.71 58.9253C164.337 59.1519 163.924 59.4986 163.47 59.9653V66.6653H161.15V56.8453ZM174.663 68.0853C174.663 68.5253 174.903 68.8719 175.383 69.1253C175.876 69.3786 176.583 69.5053 177.503 69.5053C177.983 69.5053 178.416 69.4586 178.803 69.3653C179.189 69.2853 179.523 69.172 179.803 69.0253C180.083 68.8786 180.296 68.7053 180.443 68.5053C180.589 68.3186 180.663 68.1186 180.663 67.9053C180.663 67.5186 180.496 67.2586 180.163 67.1253C179.829 67.0053 179.336 66.9453 178.683 66.9453H177.123C176.803 66.9453 176.516 66.9319 176.263 66.9053C176.023 66.8919 175.809 66.8519 175.623 66.7853C175.276 66.9986 175.029 67.2119 174.883 67.4253C174.736 67.6386 174.663 67.8586 174.663 68.0853ZM172.743 68.3853C172.743 67.9986 172.876 67.6253 173.143 67.2653C173.409 66.9053 173.796 66.5919 174.303 66.3253V66.2453C174.036 66.0986 173.803 65.8919 173.603 65.6253C173.403 65.3586 173.303 65.0186 173.303 64.6053C173.303 64.2719 173.409 63.9453 173.623 63.6253C173.836 63.2919 174.123 62.9986 174.483 62.7453V62.6653C174.136 62.4253 173.836 62.0919 173.583 61.6653C173.343 61.2386 173.223 60.7319 173.223 60.1453C173.223 59.5853 173.329 59.0853 173.543 58.6453C173.769 58.2053 174.063 57.8386 174.423 57.5453C174.796 57.2386 175.223 57.0053 175.703 56.8453C176.196 56.6853 176.716 56.6053 177.263 56.6053C177.849 56.6053 178.363 56.6853 178.803 56.8453H182.823V58.5453H180.523C180.696 58.7453 180.849 58.9919 180.983 59.2853C181.116 59.5653 181.183 59.8786 181.183 60.2253C181.183 60.7719 181.083 61.2519 180.883 61.6653C180.683 62.0786 180.403 62.4253 180.043 62.7053C179.696 62.9853 179.283 63.1986 178.803 63.3453C178.323 63.4786 177.809 63.5453 177.263 63.5453C176.769 63.5453 176.269 63.4586 175.763 63.2853C175.363 63.5386 175.163 63.8386 175.163 64.1853C175.163 64.8119 175.783 65.1253 177.023 65.1253H179.023C180.303 65.1253 181.263 65.3119 181.903 65.6853C182.556 66.0586 182.883 66.6719 182.883 67.5253C182.883 68.0053 182.749 68.4586 182.483 68.8853C182.216 69.312 181.836 69.6786 181.343 69.9853C180.863 70.3053 180.269 70.552 179.563 70.7253C178.869 70.912 178.089 71.0053 177.223 71.0053C176.543 71.0053 175.929 70.952 175.383 70.8453C174.836 70.7386 174.363 70.572 173.963 70.3453C173.576 70.132 173.276 69.8586 173.063 69.5253C172.849 69.2053 172.743 68.8253 172.743 68.3853ZM177.263 62.1053C177.769 62.1053 178.209 61.9386 178.583 61.6053C178.956 61.2586 179.143 60.7719 179.143 60.1453C179.143 59.5453 178.956 59.0719 178.583 58.7253C178.209 58.3653 177.769 58.1853 177.263 58.1853C176.756 58.1853 176.316 58.3653 175.943 58.7253C175.583 59.0719 175.403 59.5453 175.403 60.1453C175.403 60.7719 175.583 61.2586 175.943 61.6053C176.316 61.9386 176.756 62.1053 177.263 62.1053ZM184.735 61.7653C184.735 60.9653 184.875 60.2453 185.155 59.6053C185.448 58.9653 185.828 58.4253 186.295 57.9853C186.761 57.5319 187.295 57.1919 187.895 56.9653C188.508 56.7253 189.135 56.6053 189.775 56.6053C190.508 56.6053 191.155 56.7253 191.715 56.9653C192.288 57.1919 192.768 57.5119 193.155 57.9253C193.541 58.3253 193.835 58.8119 194.035 59.3853C194.235 59.9586 194.335 60.5853 194.335 61.2653C194.335 61.4919 194.321 61.7053 194.295 61.9053C194.281 62.1053 194.261 62.2653 194.235 62.3853H187.095C187.175 63.2653 187.521 63.9453 188.135 64.4253C188.748 64.8919 189.501 65.1253 190.395 65.1253C190.901 65.1253 191.375 65.0586 191.815 64.9253C192.255 64.7786 192.701 64.5786 193.155 64.3253L193.935 65.7653C193.401 66.0986 192.808 66.3719 192.155 66.5853C191.501 66.7986 190.815 66.9053 190.095 66.9053C189.348 66.9053 188.648 66.7919 187.995 66.5653C187.341 66.3253 186.775 65.9853 186.295 65.5453C185.815 65.1053 185.435 64.5719 185.155 63.9453C184.875 63.3053 184.735 62.5786 184.735 61.7653ZM192.215 60.8253C192.215 60.0653 192.015 59.4719 191.615 59.0453C191.215 58.6053 190.621 58.3853 189.835 58.3853C189.168 58.3853 188.575 58.5919 188.055 59.0053C187.535 59.4186 187.208 60.0253 187.075 60.8253H192.215ZM196.547 61.7653C196.547 60.9653 196.667 60.2453 196.907 59.6053C197.147 58.9653 197.467 58.4253 197.867 57.9853C198.28 57.5453 198.747 57.2053 199.267 56.9653C199.787 56.7253 200.327 56.6053 200.887 56.6053C201.474 56.6053 201.974 56.7119 202.387 56.9253C202.814 57.1253 203.227 57.4053 203.627 57.7653L203.527 56.1053V52.5453H205.847V66.6653H203.947L203.767 65.5253H203.707C203.32 65.9119 202.867 66.2386 202.347 66.5053C201.84 66.7719 201.307 66.9053 200.747 66.9053C200.12 66.9053 199.547 66.7919 199.027 66.5653C198.507 66.3253 198.06 65.9853 197.687 65.5453C197.327 65.1053 197.047 64.5719 196.847 63.9453C196.647 63.3053 196.547 62.5786 196.547 61.7653ZM198.927 61.7453C198.927 62.8119 199.134 63.6253 199.547 64.1853C199.96 64.7319 200.547 65.0053 201.307 65.0053C202.12 65.0053 202.86 64.6119 203.527 63.8253V59.4053C203.18 59.0719 202.834 58.8386 202.487 58.7053C202.14 58.5719 201.787 58.5053 201.427 58.5053C201.08 58.5053 200.754 58.5786 200.447 58.7253C200.154 58.8719 199.894 59.0853 199.667 59.3653C199.44 59.6319 199.26 59.9653 199.127 60.3653C198.994 60.7653 198.927 61.2253 198.927 61.7453Z" fill="#9B51E0"/>
<path d="M224.051 61.5653L220.731 56.8453H223.231L224.511 58.7053C224.671 58.9719 224.845 59.2519 225.031 59.5453C225.218 59.8253 225.405 60.1053 225.591 60.3853H225.671C225.818 60.1053 225.978 59.8186 226.151 59.5253C226.325 59.2319 226.485 58.9519 226.631 58.6853L227.791 56.8453H230.211L226.871 61.8053L230.451 66.6653H227.951L226.531 64.7253C226.345 64.4586 226.145 64.1719 225.931 63.8653C225.731 63.5586 225.531 63.2653 225.331 62.9853H225.251C225.065 63.2786 224.885 63.5719 224.711 63.8653C224.551 64.1453 224.378 64.4386 224.191 64.7453L222.911 66.6653H220.491L224.051 61.5653Z" fill="#009E73"/>
<path d="M188.075 86.5653L184.755 81.8453H187.255L188.535 83.7053C188.695 83.9719 188.868 84.2519 189.055 84.5453C189.241 84.8253 189.428 85.1053 189.615 85.3853H189.695C189.841 85.1053 190.001 84.8186 190.175 84.5253C190.348 84.2319 190.508 83.9519 190.655 83.6853L191.815 81.8453H194.235L190.895 86.8053L194.475 91.6653H191.975L190.555 89.7253C190.368 89.4586 190.168 89.1719 189.955 88.8653C189.755 88.5586 189.555 88.2653 189.355 87.9853H189.275C189.088 88.2786 188.908 88.5719 188.735 88.8653C188.575 89.1453 188.401 89.4386 188.215 89.7453L186.935 91.6653H184.515L188.075 86.5653Z" fill="#EB5757"/>
<path d="M210.041 12.9902L209.171 18H207.519L209.742 5.20312L214.014 5.21191C215.332 5.21191 216.349 5.56348 217.063 6.2666C217.778 6.96387 218.086 7.89258 217.986 9.05273C217.881 10.2773 217.392 11.2412 216.519 11.9443C215.651 12.6475 214.506 12.999 213.082 12.999L210.041 12.9902ZM210.278 11.6104L213.126 11.6191C214.022 11.6191 214.758 11.3936 215.332 10.9424C215.906 10.4912 216.243 9.86426 216.343 9.06152C216.437 8.34082 216.287 7.75781 215.895 7.3125C215.502 6.86133 214.931 6.62402 214.181 6.60059L211.148 6.5918L210.278 11.6104ZM224.095 18C224.054 17.8301 224.033 17.6631 224.033 17.499L224.06 16.998C223.187 17.8066 222.261 18.1992 221.282 18.1758C220.444 18.1641 219.762 17.9004 219.234 17.3848C218.713 16.8633 218.476 16.2129 218.522 15.4336C218.581 14.4258 219.021 13.6406 219.841 13.0781C220.667 12.5098 221.751 12.2256 223.093 12.2256L224.754 12.2344L224.859 11.4785C224.918 10.9102 224.807 10.4619 224.525 10.1338C224.25 9.7998 223.834 9.62695 223.277 9.61523C222.732 9.60352 222.249 9.73828 221.827 10.0195C221.411 10.2949 221.156 10.6611 221.062 11.1182L219.463 11.127C219.516 10.5703 219.732 10.0781 220.113 9.65039C220.494 9.2168 220.983 8.88281 221.581 8.64844C222.179 8.4082 222.797 8.29395 223.436 8.30566C224.426 8.3291 225.196 8.63086 225.747 9.21094C226.298 9.78516 226.529 10.5498 226.441 11.5049L225.668 16.2158L225.624 16.8926C225.612 17.2148 225.647 17.5342 225.729 17.8506L225.712 18H224.095ZM221.599 16.7695C222.108 16.7812 222.589 16.6611 223.04 16.4092C223.497 16.1514 223.89 15.7969 224.218 15.3457L224.561 13.3857L223.356 13.377C222.354 13.377 221.587 13.5352 221.054 13.8516C220.521 14.168 220.219 14.6162 220.148 15.1963C220.096 15.6416 220.198 16.0137 220.456 16.3125C220.72 16.6055 221.101 16.7578 221.599 16.7695ZM233.789 9.94043L233.042 9.86133C232.022 9.86133 231.22 10.3213 230.634 11.2412L229.465 18H227.874L229.526 8.49023L231.064 8.48145L230.827 9.58887C231.501 8.7041 232.295 8.27344 233.209 8.29688C233.402 8.29688 233.654 8.34082 233.965 8.42871L233.789 9.94043ZM239.335 18C239.294 17.8301 239.273 17.6631 239.273 17.499L239.3 16.998C238.427 17.8066 237.501 18.1992 236.522 18.1758C235.685 18.1641 235.002 17.9004 234.475 17.3848C233.953 16.8633 233.716 16.2129 233.763 15.4336C233.821 14.4258 234.261 13.6406 235.081 13.0781C235.907 12.5098 236.991 12.2256 238.333 12.2256L239.994 12.2344L240.1 11.4785C240.158 10.9102 240.047 10.4619 239.766 10.1338C239.49 9.7998 239.074 9.62695 238.518 9.61523C237.973 9.60352 237.489 9.73828 237.067 10.0195C236.651 10.2949 236.396 10.6611 236.303 11.1182L234.703 11.127C234.756 10.5703 234.973 10.0781 235.354 9.65039C235.734 9.2168 236.224 8.88281 236.821 8.64844C237.419 8.4082 238.037 8.29395 238.676 8.30566C239.666 8.3291 240.437 8.63086 240.987 9.21094C241.538 9.78516 241.77 10.5498 241.682 11.5049L240.908 16.2158L240.864 16.8926C240.853 17.2148 240.888 17.5342 240.97 17.8506L240.952 18H239.335ZM236.839 16.7695C237.349 16.7812 237.829 16.6611 238.28 16.4092C238.737 16.1514 239.13 15.7969 239.458 15.3457L239.801 13.3857L238.597 13.377C237.595 13.377 236.827 13.5352 236.294 13.8516C235.761 14.168 235.459 14.6162 235.389 15.1963C235.336 15.6416 235.438 16.0137 235.696 16.3125C235.96 16.6055 236.341 16.7578 236.839 16.7695ZM246.252 8.48145L246.05 9.54492C246.847 8.70117 247.811 8.29102 248.941 8.31445C249.545 8.32617 250.055 8.46387 250.471 8.72754C250.893 8.99121 251.183 9.36328 251.341 9.84375C252.231 8.80078 253.283 8.29102 254.496 8.31445C255.445 8.33789 256.146 8.65723 256.597 9.27246C257.048 9.8877 257.215 10.7139 257.098 11.751L256.052 18H254.47L255.507 11.7334C255.542 11.4287 255.542 11.1504 255.507 10.8984C255.396 10.1016 254.874 9.69434 253.942 9.67676C253.362 9.66504 252.835 9.84668 252.36 10.2217C251.892 10.5908 251.59 11.0771 251.455 11.6807L250.374 18H248.774L249.829 11.7422C249.905 11.0918 249.806 10.5908 249.53 10.2393C249.261 9.8877 248.839 9.70605 248.265 9.69434C247.274 9.6709 246.486 10.1221 245.9 11.0479L244.696 18H243.105L244.758 8.49023L246.252 8.48145ZM262.626 18.1758C261.442 18.1523 260.517 17.7158 259.849 16.8662C259.181 16.0166 258.899 14.9297 259.005 13.6055L259.049 13.2275C259.148 12.2842 259.427 11.4229 259.884 10.6436C260.347 9.86426 260.909 9.27832 261.571 8.88574C262.233 8.4873 262.948 8.29688 263.716 8.31445C264.694 8.33789 265.462 8.66309 266.019 9.29004C266.575 9.91699 266.88 10.7666 266.933 11.8389C266.95 12.2197 266.938 12.6006 266.897 12.9814L266.801 13.7109H260.587C260.481 14.5723 260.622 15.3047 261.009 15.9082C261.401 16.5117 261.984 16.8252 262.758 16.8486C263.695 16.8721 264.562 16.4502 265.359 15.583L266.273 16.3564C265.875 16.9307 265.359 17.3818 264.727 17.71C264.1 18.0322 263.399 18.1875 262.626 18.1758ZM263.637 9.6416C262.98 9.62402 262.406 9.84668 261.914 10.3096C261.428 10.7725 261.041 11.4609 260.754 12.375L265.377 12.3838L265.412 12.2432C265.506 11.5049 265.386 10.8926 265.052 10.4062C264.724 9.91406 264.252 9.65918 263.637 9.6416ZM272.048 6.1875L271.644 8.49023H273.375L273.155 9.74707H271.433L270.439 15.6621C270.422 15.8145 270.419 15.9551 270.431 16.084C270.472 16.541 270.721 16.7695 271.178 16.7695C271.371 16.7695 271.629 16.7402 271.951 16.6816L271.828 18.0088C271.447 18.1143 271.061 18.167 270.668 18.167C270.035 18.1553 269.561 17.9238 269.244 17.4727C268.928 17.0156 268.805 16.4033 268.875 15.6357L269.842 9.74707H268.163L268.383 8.49023H270.062L270.466 6.1875H272.048ZM277.761 18.1758C276.577 18.1523 275.651 17.7158 274.983 16.8662C274.315 16.0166 274.034 14.9297 274.14 13.6055L274.184 13.2275C274.283 12.2842 274.562 11.4229 275.019 10.6436C275.481 9.86426 276.044 9.27832 276.706 8.88574C277.368 8.4873 278.083 8.29688 278.851 8.31445C279.829 8.33789 280.597 8.66309 281.153 9.29004C281.71 9.91699 282.015 10.7666 282.067 11.8389C282.085 12.2197 282.073 12.6006 282.032 12.9814L281.936 13.7109H275.722C275.616 14.5723 275.757 15.3047 276.144 15.9082C276.536 16.5117 277.119 16.8252 277.893 16.8486C278.83 16.8721 279.697 16.4502 280.494 15.583L281.408 16.3564C281.01 16.9307 280.494 17.3818 279.861 17.71C279.234 18.0322 278.534 18.1875 277.761 18.1758ZM278.771 9.6416C278.115 9.62402 277.541 9.84668 277.049 10.3096C276.562 10.7725 276.176 11.4609 275.889 12.375L280.512 12.3838L280.547 12.2432C280.641 11.5049 280.521 10.8926 280.187 10.4062C279.858 9.91406 279.387 9.65918 278.771 9.6416ZM288.896 9.94043L288.149 9.86133C287.13 9.86133 286.327 10.3213 285.741 11.2412L284.572 18H282.981L284.634 8.49023L286.172 8.48145L285.935 9.58887C286.608 8.7041 287.402 8.27344 288.316 8.29688C288.51 8.29688 288.762 8.34082 289.072 8.42871L288.896 9.94043Z" fill="black"/>
<path d="M142.083 152.592H138.102L136.124 164H134.48L136.458 152.592H132.477L132.723 151.203H142.329L142.083 152.592ZM147.031 155.94L146.284 155.861C145.265 155.861 144.462 156.321 143.876 157.241L142.707 164H141.116L142.769 154.49L144.307 154.481L144.069 155.589C144.743 154.704 145.537 154.273 146.451 154.297C146.645 154.297 146.896 154.341 147.207 154.429L147.031 155.94ZM152.577 164C152.536 163.83 152.516 163.663 152.516 163.499L152.542 162.998C151.669 163.807 150.743 164.199 149.765 164.176C148.927 164.164 148.244 163.9 147.717 163.385C147.195 162.863 146.958 162.213 147.005 161.434C147.063 160.426 147.503 159.641 148.323 159.078C149.149 158.51 150.233 158.226 151.575 158.226L153.236 158.234L153.342 157.479C153.4 156.91 153.289 156.462 153.008 156.134C152.732 155.8 152.316 155.627 151.76 155.615C151.215 155.604 150.731 155.738 150.31 156.02C149.894 156.295 149.639 156.661 149.545 157.118L147.945 157.127C147.998 156.57 148.215 156.078 148.596 155.65C148.977 155.217 149.466 154.883 150.063 154.648C150.661 154.408 151.279 154.294 151.918 154.306C152.908 154.329 153.679 154.631 154.229 155.211C154.78 155.785 155.012 156.55 154.924 157.505L154.15 162.216L154.106 162.893C154.095 163.215 154.13 163.534 154.212 163.851L154.194 164H152.577ZM150.081 162.77C150.591 162.781 151.071 162.661 151.522 162.409C151.979 162.151 152.372 161.797 152.7 161.346L153.043 159.386L151.839 159.377C150.837 159.377 150.069 159.535 149.536 159.852C149.003 160.168 148.701 160.616 148.631 161.196C148.578 161.642 148.681 162.014 148.938 162.312C149.202 162.605 149.583 162.758 150.081 162.77ZM159.512 154.481L159.283 155.686C160.139 154.748 161.111 154.291 162.201 154.314C163.098 154.338 163.76 154.648 164.188 155.246C164.615 155.844 164.773 156.685 164.662 157.769L163.625 164H162.034L163.08 157.742C163.115 157.455 163.118 157.188 163.089 156.942C162.989 156.122 162.506 155.703 161.639 155.686C160.684 155.668 159.846 156.178 159.125 157.215L157.947 164H156.356L158.009 154.49L159.512 154.481ZM171.966 161.425C172.054 160.769 171.693 160.306 170.885 160.036L169.232 159.553C167.838 159.072 167.164 158.275 167.211 157.162C167.252 156.324 167.633 155.639 168.354 155.105C169.08 154.566 169.933 154.303 170.911 154.314C171.872 154.326 172.651 154.607 173.249 155.158C173.853 155.703 174.143 156.415 174.119 157.294L172.537 157.285C172.549 156.811 172.399 156.424 172.089 156.125C171.778 155.826 171.365 155.671 170.85 155.659C170.299 155.647 169.824 155.782 169.426 156.063C169.057 156.327 168.843 156.673 168.784 157.101C168.708 157.651 169.045 158.053 169.795 158.305L170.595 158.524C171.685 158.806 172.458 159.172 172.915 159.623C173.372 160.074 173.583 160.634 173.548 161.302C173.513 161.894 173.319 162.409 172.968 162.849C172.616 163.288 172.147 163.625 171.562 163.859C170.976 164.088 170.352 164.193 169.689 164.176C168.682 164.164 167.85 163.871 167.193 163.297C166.537 162.717 166.221 161.973 166.244 161.064L167.835 161.073C167.835 161.606 168.005 162.034 168.345 162.356C168.685 162.679 169.15 162.84 169.742 162.84C170.322 162.852 170.823 162.731 171.245 162.479C171.667 162.222 171.907 161.87 171.966 161.425ZM175.938 164L177.38 155.747H175.912L176.132 154.49H177.591L177.749 153.365C177.901 152.41 178.271 151.663 178.856 151.124C179.472 150.562 180.257 150.286 181.212 150.298C181.511 150.298 181.889 150.348 182.346 150.447L182.152 151.774C181.871 151.716 181.587 151.681 181.3 151.669C180.749 151.669 180.301 151.842 179.955 152.188C179.615 152.527 179.404 152.981 179.322 153.55L179.182 154.49H181.15L180.931 155.747H178.962L177.529 164H175.938ZM186.6 154.314C187.396 154.326 188.079 154.543 188.647 154.965C189.216 155.387 189.635 155.97 189.904 156.714C190.18 157.452 190.273 158.261 190.186 159.14L190.168 159.333C190.057 160.259 189.781 161.097 189.342 161.847C188.902 162.591 188.334 163.171 187.637 163.587C186.939 164.003 186.175 164.199 185.343 164.176C184.552 164.164 183.869 163.947 183.295 163.525C182.727 163.104 182.311 162.529 182.047 161.803C181.783 161.076 181.689 160.276 181.766 159.403C181.854 158.419 182.12 157.534 182.565 156.749C183.011 155.964 183.582 155.357 184.279 154.93C184.982 154.496 185.756 154.291 186.6 154.314ZM183.365 159.412C183.324 159.781 183.324 160.165 183.365 160.563C183.424 161.255 183.629 161.806 183.98 162.216C184.338 162.626 184.812 162.84 185.404 162.857C185.932 162.875 186.418 162.746 186.863 162.471C187.309 162.189 187.684 161.768 187.988 161.205C188.293 160.643 188.489 160.019 188.577 159.333C188.624 158.794 188.633 158.34 188.604 157.971C188.533 157.262 188.319 156.702 187.962 156.292C187.604 155.882 187.13 155.665 186.538 155.642C185.718 155.624 185.021 155.946 184.446 156.608C183.872 157.271 183.518 158.138 183.383 159.21L183.365 159.412ZM197.287 155.94L196.54 155.861C195.521 155.861 194.718 156.321 194.132 157.241L192.963 164H191.372L193.024 154.49L194.562 154.481L194.325 155.589C194.999 154.704 195.793 154.273 196.707 154.297C196.9 154.297 197.152 154.341 197.463 154.429L197.287 155.94ZM200.504 154.481L200.302 155.545C201.099 154.701 202.062 154.291 203.193 154.314C203.797 154.326 204.307 154.464 204.723 154.728C205.145 154.991 205.435 155.363 205.593 155.844C206.483 154.801 207.535 154.291 208.748 154.314C209.697 154.338 210.397 154.657 210.849 155.272C211.3 155.888 211.467 156.714 211.35 157.751L210.304 164H208.722L209.759 157.733C209.794 157.429 209.794 157.15 209.759 156.898C209.647 156.102 209.126 155.694 208.194 155.677C207.614 155.665 207.087 155.847 206.612 156.222C206.144 156.591 205.842 157.077 205.707 157.681L204.626 164H203.026L204.081 157.742C204.157 157.092 204.058 156.591 203.782 156.239C203.513 155.888 203.091 155.706 202.517 155.694C201.526 155.671 200.738 156.122 200.152 157.048L198.948 164H197.357L199.01 154.49L200.504 154.481ZM218.583 164C218.542 163.83 218.521 163.663 218.521 163.499L218.548 162.998C217.675 163.807 216.749 164.199 215.771 164.176C214.933 164.164 214.25 163.9 213.723 163.385C213.201 162.863 212.964 162.213 213.011 161.434C213.069 160.426 213.509 159.641 214.329 159.078C215.155 158.51 216.239 158.226 217.581 158.226L219.242 158.234L219.348 157.479C219.406 156.91 219.295 156.462 219.014 156.134C218.738 155.8 218.322 155.627 217.766 155.615C217.221 155.604 216.737 155.738 216.315 156.02C215.899 156.295 215.645 156.661 215.551 157.118L213.951 157.127C214.004 156.57 214.221 156.078 214.602 155.65C214.982 155.217 215.472 154.883 216.069 154.648C216.667 154.408 217.285 154.294 217.924 154.306C218.914 154.329 219.685 154.631 220.235 155.211C220.786 155.785 221.018 156.55 220.93 157.505L220.156 162.216L220.112 162.893C220.101 163.215 220.136 163.534 220.218 163.851L220.2 164H218.583ZM216.087 162.77C216.597 162.781 217.077 162.661 217.528 162.409C217.985 162.151 218.378 161.797 218.706 161.346L219.049 159.386L217.845 159.377C216.843 159.377 216.075 159.535 215.542 159.852C215.009 160.168 214.707 160.616 214.637 161.196C214.584 161.642 214.687 162.014 214.944 162.312C215.208 162.605 215.589 162.758 216.087 162.77ZM226.563 152.188L226.159 154.49H227.891L227.671 155.747H225.948L224.955 161.662C224.938 161.814 224.935 161.955 224.946 162.084C224.987 162.541 225.236 162.77 225.693 162.77C225.887 162.77 226.145 162.74 226.467 162.682L226.344 164.009C225.963 164.114 225.576 164.167 225.184 164.167C224.551 164.155 224.076 163.924 223.76 163.473C223.443 163.016 223.32 162.403 223.391 161.636L224.357 155.747H222.679L222.898 154.49H224.577L224.981 152.188H226.563ZM229.886 164H228.304L229.956 154.49H231.538L229.886 164ZM231.195 151.019C231.465 151.007 231.688 151.089 231.863 151.265C232.045 151.435 232.136 151.66 232.136 151.941C232.13 152.217 232.039 152.442 231.863 152.618C231.693 152.794 231.471 152.888 231.195 152.899C230.92 152.911 230.694 152.832 230.519 152.662C230.343 152.492 230.258 152.27 230.264 151.994C230.27 151.719 230.357 151.49 230.527 151.309C230.697 151.127 230.92 151.03 231.195 151.019ZM237.77 154.314C238.566 154.326 239.249 154.543 239.817 154.965C240.386 155.387 240.805 155.97 241.074 156.714C241.35 157.452 241.443 158.261 241.355 159.14L241.338 159.333C241.227 160.259 240.951 161.097 240.512 161.847C240.072 162.591 239.504 163.171 238.807 163.587C238.109 164.003 237.345 164.199 236.513 164.176C235.722 164.164 235.039 163.947 234.465 163.525C233.896 163.104 233.48 162.529 233.217 161.803C232.953 161.076 232.859 160.276 232.936 159.403C233.023 158.419 233.29 157.534 233.735 156.749C234.181 155.964 234.752 155.357 235.449 154.93C236.152 154.496 236.926 154.291 237.77 154.314ZM234.535 159.412C234.494 159.781 234.494 160.165 234.535 160.563C234.594 161.255 234.799 161.806 235.15 162.216C235.508 162.626 235.982 162.84 236.574 162.857C237.102 162.875 237.588 162.746 238.033 162.471C238.479 162.189 238.854 161.768 239.158 161.205C239.463 160.643 239.659 160.019 239.747 159.333C239.794 158.794 239.803 158.34 239.773 157.971C239.703 157.262 239.489 156.702 239.132 156.292C238.774 155.882 238.3 155.665 237.708 155.642C236.888 155.624 236.19 155.946 235.616 156.608C235.042 157.271 234.688 158.138 234.553 159.21L234.535 159.412ZM245.697 154.481L245.469 155.686C246.324 154.748 247.297 154.291 248.387 154.314C249.283 154.338 249.945 154.648 250.373 155.246C250.801 155.844 250.959 156.685 250.848 157.769L249.811 164H248.22L249.266 157.742C249.301 157.455 249.304 157.188 249.274 156.942C249.175 156.122 248.691 155.703 247.824 155.686C246.869 155.668 246.031 156.178 245.311 157.215L244.133 164H242.542L244.194 154.49L245.697 154.481Z" fill="black"/>
<path d="M198 95.7329L181.5 95.7329" stroke="#EB5757" stroke-width="2"/>
<line y1="-1" x2="51.0098" y2="-1" transform="matrix(-0.0196041 -0.999808 1 0 192 147)" stroke="#EB5757" stroke-width="2"/>
<path d="M233.5 51.6443L217 51.6443" stroke="#009E73" stroke-width="2"/>
<line y1="-1" x2="29.5069" y2="-1" transform="matrix(0.0338904 0.999425 1 0 226.5 22)" stroke="#009E73" stroke-width="2"/>
<path d="M56.3584 12.3486H51.1553L50.1709 18H48.5186L50.7422 5.20312H58.4414L58.1953 6.5918H52.1484L51.3926 10.9688H56.6045L56.3584 12.3486ZM63.8555 17.0596C63.1113 17.8271 62.165 18.1992 61.0166 18.1758C60.1084 18.1523 59.4346 17.8271 58.9951 17.2002C58.5615 16.5732 58.4004 15.7178 58.5117 14.6338L59.5312 8.49023H61.1221L60.0938 14.6602C60.0645 14.918 60.0586 15.1699 60.0762 15.416C60.1055 15.8379 60.2314 16.1689 60.4541 16.4092C60.6768 16.6494 60.9873 16.7783 61.3857 16.7959C62.5225 16.8311 63.4014 16.3711 64.0225 15.416L65.2178 8.49023H66.8086L65.1562 18H63.6533L63.8555 17.0596ZM70.6934 8.48145L70.4648 9.68555C71.3203 8.74805 72.293 8.29102 73.3828 8.31445C74.2793 8.33789 74.9414 8.64844 75.3691 9.24609C75.7969 9.84375 75.9551 10.6846 75.8438 11.7686L74.8066 18H73.2158L74.2617 11.7422C74.2969 11.4551 74.2998 11.1885 74.2705 10.9424C74.1709 10.1221 73.6875 9.70312 72.8203 9.68555C71.8652 9.66797 71.0273 10.1777 70.3066 11.2148L69.1289 18H67.5381L69.1904 8.49023L70.6934 8.48145ZM81.2754 16.8574C81.8438 16.8691 82.3564 16.7051 82.8135 16.3652C83.2705 16.0195 83.5693 15.5684 83.71 15.0117L85.2129 15.0029C85.125 15.6006 84.8848 16.1455 84.4922 16.6377C84.1055 17.1299 83.6162 17.5137 83.0244 17.7891C82.4326 18.0645 81.8262 18.1934 81.2051 18.1758C80.4141 18.1641 79.7432 17.959 79.1924 17.5605C78.6475 17.1562 78.2461 16.5967 77.9883 15.8818C77.7305 15.1611 77.6426 14.3525 77.7246 13.4561L77.7686 13.0166C77.8799 12.1025 78.1465 11.2852 78.5684 10.5645C78.9902 9.84375 79.541 9.28418 80.2207 8.88574C80.9004 8.48145 81.6504 8.29102 82.4707 8.31445C83.4668 8.33789 84.2637 8.67188 84.8613 9.31641C85.459 9.96094 85.7578 10.7783 85.7578 11.7686L84.2725 11.7598C84.2607 11.1387 84.0879 10.6377 83.7539 10.2568C83.4199 9.87012 82.9688 9.66504 82.4004 9.6416C81.5742 9.62402 80.8857 9.93164 80.335 10.5645C79.79 11.1973 79.4502 12.082 79.3154 13.2188L79.2891 13.4473C79.2539 13.8223 79.248 14.209 79.2715 14.6074C79.3125 15.293 79.5059 15.835 79.8516 16.2334C80.1973 16.6318 80.6719 16.8398 81.2754 16.8574ZM90.6885 6.1875L90.2842 8.49023H92.0156L91.7959 9.74707H90.0732L89.0801 15.6621C89.0625 15.8145 89.0596 15.9551 89.0713 16.084C89.1123 16.541 89.3613 16.7695 89.8184 16.7695C90.0117 16.7695 90.2695 16.7402 90.5918 16.6816L90.4688 18.0088C90.0879 18.1143 89.7012 18.167 89.3086 18.167C88.6758 18.1553 88.2012 17.9238 87.8848 17.4727C87.5684 17.0156 87.4453 16.4033 87.5156 15.6357L88.4824 9.74707H86.8037L87.0234 8.49023H88.7021L89.1064 6.1875H90.6885ZM94.0107 18H92.4287L94.0811 8.49023H95.6631L94.0107 18ZM95.3203 5.01855C95.5898 5.00684 95.8125 5.08887 95.9883 5.26465C96.1699 5.43457 96.2607 5.66016 96.2607 5.94141C96.2549 6.2168 96.1641 6.44238 95.9883 6.61816C95.8184 6.79395 95.5957 6.8877 95.3203 6.89941C95.0449 6.91113 94.8193 6.83203 94.6436 6.66211C94.4678 6.49219 94.3828 6.26953 94.3887 5.99414C94.3945 5.71875 94.4824 5.49023 94.6523 5.30859C94.8223 5.12695 95.0449 5.03027 95.3203 5.01855ZM101.895 8.31445C102.691 8.32617 103.374 8.54297 103.942 8.96484C104.511 9.38672 104.93 9.96973 105.199 10.7139C105.475 11.4521 105.568 12.2607 105.48 13.1396L105.463 13.333C105.352 14.2588 105.076 15.0967 104.637 15.8467C104.197 16.5908 103.629 17.1709 102.932 17.5869C102.234 18.0029 101.47 18.1992 100.638 18.1758C99.8467 18.1641 99.1641 17.9473 98.5898 17.5254C98.0215 17.1035 97.6055 16.5293 97.3418 15.8027C97.0781 15.0762 96.9844 14.2764 97.0605 13.4033C97.1484 12.4189 97.415 11.5342 97.8604 10.749C98.3057 9.96387 98.877 9.35742 99.5742 8.92969C100.277 8.49609 101.051 8.29102 101.895 8.31445ZM98.6602 13.4121C98.6191 13.7812 98.6191 14.165 98.6602 14.5635C98.7188 15.2549 98.9238 15.8057 99.2754 16.2158C99.6328 16.626 100.107 16.8398 100.699 16.8574C101.227 16.875 101.713 16.7461 102.158 16.4707C102.604 16.1895 102.979 15.7676 103.283 15.2051C103.588 14.6426 103.784 14.0186 103.872 13.333C103.919 12.7939 103.928 12.3398 103.898 11.9707C103.828 11.2617 103.614 10.7021 103.257 10.292C102.899 9.88184 102.425 9.66504 101.833 9.6416C101.013 9.62402 100.315 9.94629 99.7412 10.6084C99.167 11.2705 98.8125 12.1377 98.6777 13.21L98.6602 13.4121ZM109.822 8.48145L109.594 9.68555C110.449 8.74805 111.422 8.29102 112.512 8.31445C113.408 8.33789 114.07 8.64844 114.498 9.24609C114.926 9.84375 115.084 10.6846 114.973 11.7686L113.936 18H112.345L113.391 11.7422C113.426 11.4551 113.429 11.1885 113.399 10.9424C113.3 10.1221 112.816 9.70312 111.949 9.68555C110.994 9.66797 110.156 10.1777 109.436 11.2148L108.258 18H106.667L108.319 8.49023L109.822 8.48145ZM130.6 18H129L124.43 8.06836L122.707 18H121.046L123.27 5.20312H124.869L129.448 15.1787L131.18 5.20312H132.823L130.6 18ZM139.151 18C139.11 17.8301 139.09 17.6631 139.09 17.499L139.116 16.998C138.243 17.8066 137.317 18.1992 136.339 18.1758C135.501 18.1641 134.818 17.9004 134.291 17.3848C133.77 16.8633 133.532 16.2129 133.579 15.4336C133.638 14.4258 134.077 13.6406 134.897 13.0781C135.724 12.5098 136.808 12.2256 138.149 12.2256L139.811 12.2344L139.916 11.4785C139.975 10.9102 139.863 10.4619 139.582 10.1338C139.307 9.7998 138.891 9.62695 138.334 9.61523C137.789 9.60352 137.306 9.73828 136.884 10.0195C136.468 10.2949 136.213 10.6611 136.119 11.1182L134.52 11.127C134.572 10.5703 134.789 10.0781 135.17 9.65039C135.551 9.2168 136.04 8.88281 136.638 8.64844C137.235 8.4082 137.854 8.29395 138.492 8.30566C139.482 8.3291 140.253 8.63086 140.804 9.21094C141.354 9.78516 141.586 10.5498 141.498 11.5049L140.725 16.2158L140.681 16.8926C140.669 17.2148 140.704 17.5342 140.786 17.8506L140.769 18H139.151ZM136.655 16.7695C137.165 16.7812 137.646 16.6611 138.097 16.4092C138.554 16.1514 138.946 15.7969 139.274 15.3457L139.617 13.3857L138.413 13.377C137.411 13.377 136.644 13.5352 136.11 13.8516C135.577 14.168 135.275 14.6162 135.205 15.1963C135.152 15.6416 135.255 16.0137 135.513 16.3125C135.776 16.6055 136.157 16.7578 136.655 16.7695ZM146.068 8.48145L145.866 9.54492C146.663 8.70117 147.627 8.29102 148.758 8.31445C149.361 8.32617 149.871 8.46387 150.287 8.72754C150.709 8.99121 150.999 9.36328 151.157 9.84375C152.048 8.80078 153.1 8.29102 154.312 8.31445C155.262 8.33789 155.962 8.65723 156.413 9.27246C156.864 9.8877 157.031 10.7139 156.914 11.751L155.868 18H154.286L155.323 11.7334C155.358 11.4287 155.358 11.1504 155.323 10.8984C155.212 10.1016 154.69 9.69434 153.759 9.67676C153.179 9.66504 152.651 9.84668 152.177 10.2217C151.708 10.5908 151.406 11.0771 151.271 11.6807L150.19 18H148.591L149.646 11.7422C149.722 11.0918 149.622 10.5908 149.347 10.2393C149.077 9.8877 148.655 9.70605 148.081 9.69434C147.091 9.6709 146.303 10.1221 145.717 11.0479L144.513 18H142.922L144.574 8.49023L146.068 8.48145ZM162.442 18.1758C161.259 18.1523 160.333 17.7158 159.665 16.8662C158.997 16.0166 158.716 14.9297 158.821 13.6055L158.865 13.2275C158.965 12.2842 159.243 11.4229 159.7 10.6436C160.163 9.86426 160.726 9.27832 161.388 8.88574C162.05 8.4873 162.765 8.29688 163.532 8.31445C164.511 8.33789 165.278 8.66309 165.835 9.29004C166.392 9.91699 166.696 10.7666 166.749 11.8389C166.767 12.2197 166.755 12.6006 166.714 12.9814L166.617 13.7109H160.403C160.298 14.5723 160.438 15.3047 160.825 15.9082C161.218 16.5117 161.801 16.8252 162.574 16.8486C163.512 16.8721 164.379 16.4502 165.176 15.583L166.09 16.3564C165.691 16.9307 165.176 17.3818 164.543 17.71C163.916 18.0322 163.216 18.1875 162.442 18.1758ZM163.453 9.6416C162.797 9.62402 162.223 9.84668 161.73 10.3096C161.244 10.7725 160.857 11.4609 160.57 12.375L165.193 12.3838L165.229 12.2432C165.322 11.5049 165.202 10.8926 164.868 10.4062C164.54 9.91406 164.068 9.65918 163.453 9.6416Z" fill="black"/>
<path d="M204 50.6562L103 50.6562" stroke="#9B51E0" stroke-width="2"/>
<line y1="-1" x2="28.5069" y2="-1" transform="matrix(5.35267e-07 1 1 -9.66819e-08 120.152 22)" stroke="#9B51E0" stroke-width="2"/>
</svg>
