<svg width="1022" height="554" viewBox="0 0 1022 554" fill="none" xmlns="http://www.w3.org/2000/svg">
<rect width="511" height="277" transform="scale(2)" fill="white"/>
<path d="M516.293 126.7C516.684 127.104 517.316 127.125 517.707 126.747L524.067 120.595C524.457 120.218 524.457 119.585 524.067 119.181C523.677 118.778 523.044 118.757 522.654 119.134L517 124.602L511.346 118.757C510.956 118.354 510.323 118.333 509.933 118.71C509.543 119.088 509.543 119.721 509.933 120.124L516.293 126.7ZM516.001 65.95V125.983L517.999 126.05V66.0167L516.001 65.95Z" fill="#828282"/>
<path d="M343.293 126.707C343.683 127.098 344.317 127.098 344.707 126.707L351.071 120.343C351.462 119.953 351.462 119.319 351.071 118.929C350.681 118.538 350.047 118.538 349.657 118.929L344 124.586L338.343 118.929C337.953 118.538 337.319 118.538 336.929 118.929C336.538 119.319 336.538 119.953 336.929 120.343L343.293 126.707ZM343 110V126H345V110H343Z" fill="#828282"/>
<path d="M460 66V80L344 110V126" stroke="#828282"/>
<path d="M692.707 126.707C692.317 127.098 691.683 127.098 691.293 126.707L684.929 120.343C684.538 119.953 684.538 119.319 684.929 118.929C685.319 118.538 685.953 118.538 686.343 118.929L692 124.586L697.657 118.929C698.047 118.538 698.681 118.538 699.071 118.929C699.462 119.319 699.462 119.953 699.071 120.343L692.707 126.707ZM693 110V126H691V110H693Z" fill="#828282"/>
<path d="M580 66V80L692 110V126" stroke="#828282"/>
<rect x="278" y="142" width="130" height="398" fill="#FFFAF5"/>
<path d="M293.008 206.395C291.078 205.84 289.672 205.16 288.789 204.355C287.914 203.543 287.477 202.543 287.477 201.355C287.477 200.012 288.012 198.902 289.082 198.027C290.16 197.145 291.559 196.703 293.277 196.703C294.449 196.703 295.492 196.93 296.406 197.383C297.328 197.836 298.039 198.461 298.539 199.258C299.047 200.055 299.301 200.926 299.301 201.871H297.039C297.039 200.84 296.711 200.031 296.055 199.445C295.398 198.852 294.473 198.555 293.277 198.555C292.168 198.555 291.301 198.801 290.676 199.293C290.059 199.777 289.75 200.453 289.75 201.32C289.75 202.016 290.043 202.605 290.629 203.09C291.223 203.566 292.227 204.004 293.641 204.402C295.062 204.801 296.172 205.242 296.969 205.727C297.773 206.203 298.367 206.762 298.75 207.402C299.141 208.043 299.336 208.797 299.336 209.664C299.336 211.047 298.797 212.156 297.719 212.992C296.641 213.82 295.199 214.234 293.395 214.234C292.223 214.234 291.129 214.012 290.113 213.566C289.098 213.113 288.312 212.496 287.758 211.715C287.211 210.934 286.938 210.047 286.938 209.055H289.199C289.199 210.086 289.578 210.902 290.336 211.504C291.102 212.098 292.121 212.395 293.395 212.395C294.582 212.395 295.492 212.152 296.125 211.668C296.758 211.184 297.074 210.523 297.074 209.688C297.074 208.852 296.781 208.207 296.195 207.754C295.609 207.293 294.547 206.84 293.008 206.395ZM304.832 198.25V201.32H307.199V202.996H304.832V210.859C304.832 211.367 304.938 211.75 305.148 212.008C305.359 212.258 305.719 212.383 306.227 212.383C306.477 212.383 306.82 212.336 307.258 212.242V214C306.688 214.156 306.133 214.234 305.594 214.234C304.625 214.234 303.895 213.941 303.402 213.355C302.91 212.77 302.664 211.938 302.664 210.859V202.996H300.355V201.32H302.664V198.25H304.832ZM317.57 214C317.445 213.75 317.344 213.305 317.266 212.664C316.258 213.711 315.055 214.234 313.656 214.234C312.406 214.234 311.379 213.883 310.574 213.18C309.777 212.469 309.379 211.57 309.379 210.484C309.379 209.164 309.879 208.141 310.879 207.414C311.887 206.68 313.301 206.312 315.121 206.312H317.23V205.316C317.23 204.559 317.004 203.957 316.551 203.512C316.098 203.059 315.43 202.832 314.547 202.832C313.773 202.832 313.125 203.027 312.602 203.418C312.078 203.809 311.816 204.281 311.816 204.836H309.637C309.637 204.203 309.859 203.594 310.305 203.008C310.758 202.414 311.367 201.945 312.133 201.602C312.906 201.258 313.754 201.086 314.676 201.086C316.137 201.086 317.281 201.453 318.109 202.188C318.938 202.914 319.367 203.918 319.398 205.199V211.035C319.398 212.199 319.547 213.125 319.844 213.812V214H317.57ZM313.973 212.348C314.652 212.348 315.297 212.172 315.906 211.82C316.516 211.469 316.957 211.012 317.23 210.449V207.848H315.531C312.875 207.848 311.547 208.625 311.547 210.18C311.547 210.859 311.773 211.391 312.227 211.773C312.68 212.156 313.262 212.348 313.973 212.348ZM328.926 203.266C328.598 203.211 328.242 203.184 327.859 203.184C326.438 203.184 325.473 203.789 324.965 205V214H322.797V201.32H324.906L324.941 202.785C325.652 201.652 326.66 201.086 327.965 201.086C328.387 201.086 328.707 201.141 328.926 201.25V203.266ZM334.457 198.25V201.32H336.824V202.996H334.457V210.859C334.457 211.367 334.562 211.75 334.773 212.008C334.984 212.258 335.344 212.383 335.852 212.383C336.102 212.383 336.445 212.336 336.883 212.242V214C336.312 214.156 335.758 214.234 335.219 214.234C334.25 214.234 333.52 213.941 333.027 213.355C332.535 212.77 332.289 211.938 332.289 210.859V202.996H329.98V201.32H332.289V198.25H334.457ZM287.125 235.555C287.125 233.578 287.582 232.008 288.496 230.844C289.41 229.672 290.621 229.086 292.129 229.086C293.676 229.086 294.883 229.633 295.75 230.727L295.855 229.32H297.836V241.695C297.836 243.336 297.348 244.629 296.371 245.574C295.402 246.52 294.098 246.992 292.457 246.992C291.543 246.992 290.648 246.797 289.773 246.406C288.898 246.016 288.23 245.48 287.77 244.801L288.895 243.5C289.824 244.648 290.961 245.223 292.305 245.223C293.359 245.223 294.18 244.926 294.766 244.332C295.359 243.738 295.656 242.902 295.656 241.824V240.734C294.789 241.734 293.605 242.234 292.105 242.234C290.621 242.234 289.418 241.637 288.496 240.441C287.582 239.246 287.125 237.617 287.125 235.555ZM289.305 235.801C289.305 237.23 289.598 238.355 290.184 239.176C290.77 239.988 291.59 240.395 292.645 240.395C294.012 240.395 295.016 239.773 295.656 238.531V232.742C294.992 231.531 293.996 230.926 292.668 230.926C291.613 230.926 290.789 231.336 290.195 232.156C289.602 232.977 289.305 234.191 289.305 235.801ZM307.246 231.266C306.918 231.211 306.562 231.184 306.18 231.184C304.758 231.184 303.793 231.789 303.285 233V242H301.117V229.32H303.227L303.262 230.785C303.973 229.652 304.98 229.086 306.285 229.086C306.707 229.086 307.027 229.141 307.246 229.25V231.266ZM308.441 235.543C308.441 234.301 308.684 233.184 309.168 232.191C309.66 231.199 310.34 230.434 311.207 229.895C312.082 229.355 313.078 229.086 314.195 229.086C315.922 229.086 317.316 229.684 318.379 230.879C319.449 232.074 319.984 233.664 319.984 235.648V235.801C319.984 237.035 319.746 238.145 319.27 239.129C318.801 240.105 318.125 240.867 317.242 241.414C316.367 241.961 315.359 242.234 314.219 242.234C312.5 242.234 311.105 241.637 310.035 240.441C308.973 239.246 308.441 237.664 308.441 235.695V235.543ZM310.621 235.801C310.621 237.207 310.945 238.336 311.594 239.188C312.25 240.039 313.125 240.465 314.219 240.465C315.32 240.465 316.195 240.035 316.844 239.176C317.492 238.309 317.816 237.098 317.816 235.543C317.816 234.152 317.484 233.027 316.82 232.168C316.164 231.301 315.289 230.867 314.195 230.867C313.125 230.867 312.262 231.293 311.605 232.145C310.949 232.996 310.621 234.215 310.621 235.801ZM330.531 240.746C329.688 241.738 328.449 242.234 326.816 242.234C325.465 242.234 324.434 241.844 323.723 241.062C323.02 240.273 322.664 239.109 322.656 237.57V229.32H324.824V237.512C324.824 239.434 325.605 240.395 327.168 240.395C328.824 240.395 329.926 239.777 330.473 238.543V229.32H332.641V242H330.578L330.531 240.746ZM346.656 235.801C346.656 237.73 346.215 239.285 345.332 240.465C344.449 241.645 343.254 242.234 341.746 242.234C340.207 242.234 338.996 241.746 338.113 240.77V246.875H335.945V229.32H337.926L338.031 230.727C338.914 229.633 340.141 229.086 341.711 229.086C343.234 229.086 344.438 229.66 345.32 230.809C346.211 231.957 346.656 233.555 346.656 235.602V235.801ZM344.488 235.555C344.488 234.125 344.184 232.996 343.574 232.168C342.965 231.34 342.129 230.926 341.066 230.926C339.754 230.926 338.77 231.508 338.113 232.672V238.73C338.762 239.887 339.754 240.465 341.09 240.465C342.129 240.465 342.953 240.055 343.562 239.234C344.18 238.406 344.488 237.18 344.488 235.555ZM362.277 242H360.098V227.551L355.727 229.156V227.188L361.938 224.855H362.277V242Z" fill="black"/>
<path d="M344.466 183.059C342.898 181.667 341.658 180.059 340.746 178.235C339.85 176.411 339.402 174.363 339.402 172.091C339.402 169.819 339.85 167.771 340.746 165.947C341.658 164.123 342.898 162.515 344.466 161.123L346.434 162.683C345.01 164.075 343.97 165.523 343.314 167.027C342.674 168.515 342.354 170.203 342.354 172.091C342.354 173.035 342.434 173.931 342.594 174.779C342.754 175.611 342.994 176.411 343.314 177.179C343.65 177.947 344.074 178.683 344.586 179.387C345.098 180.107 345.714 180.811 346.434 181.499L344.466 183.059Z" fill="#D55E00"/>
<path d="M297.625 480.113H290.23V486.16H298.82V488H287.98V470.938H298.703V472.789H290.23V478.273H297.625V480.113ZM303.332 475.32L303.402 476.914C304.371 475.695 305.637 475.086 307.199 475.086C309.879 475.086 311.23 476.598 311.254 479.621V488H309.086V479.609C309.078 478.695 308.867 478.02 308.453 477.582C308.047 477.145 307.41 476.926 306.543 476.926C305.84 476.926 305.223 477.113 304.691 477.488C304.16 477.863 303.746 478.355 303.449 478.965V488H301.281V475.32H303.332ZM313.996 481.555C313.996 479.609 314.457 478.047 315.379 476.867C316.301 475.68 317.508 475.086 319 475.086C320.484 475.086 321.66 475.594 322.527 476.609V470H324.695V488H322.703L322.598 486.641C321.73 487.703 320.523 488.234 318.977 488.234C317.508 488.234 316.309 487.633 315.379 486.43C314.457 485.227 313.996 483.656 313.996 481.719V481.555ZM316.164 481.801C316.164 483.238 316.461 484.363 317.055 485.176C317.648 485.988 318.469 486.395 319.516 486.395C320.891 486.395 321.895 485.777 322.527 484.543V478.719C321.879 477.523 320.883 476.926 319.539 476.926C318.477 476.926 317.648 477.336 317.055 478.156C316.461 478.977 316.164 480.191 316.164 481.801ZM333.508 481.555C333.508 479.578 333.965 478.008 334.879 476.844C335.793 475.672 337.004 475.086 338.512 475.086C340.059 475.086 341.266 475.633 342.133 476.727L342.238 475.32H344.219V487.695C344.219 489.336 343.73 490.629 342.754 491.574C341.785 492.52 340.48 492.992 338.84 492.992C337.926 492.992 337.031 492.797 336.156 492.406C335.281 492.016 334.613 491.48 334.152 490.801L335.277 489.5C336.207 490.648 337.344 491.223 338.688 491.223C339.742 491.223 340.562 490.926 341.148 490.332C341.742 489.738 342.039 488.902 342.039 487.824V486.734C341.172 487.734 339.988 488.234 338.488 488.234C337.004 488.234 335.801 487.637 334.879 486.441C333.965 485.246 333.508 483.617 333.508 481.555ZM335.688 481.801C335.688 483.23 335.98 484.355 336.566 485.176C337.152 485.988 337.973 486.395 339.027 486.395C340.395 486.395 341.398 485.773 342.039 484.531V478.742C341.375 477.531 340.379 476.926 339.051 476.926C337.996 476.926 337.172 477.336 336.578 478.156C335.984 478.977 335.688 480.191 335.688 481.801ZM353.629 477.266C353.301 477.211 352.945 477.184 352.562 477.184C351.141 477.184 350.176 477.789 349.668 479V488H347.5V475.32H349.609L349.645 476.785C350.355 475.652 351.363 475.086 352.668 475.086C353.09 475.086 353.41 475.141 353.629 475.25V477.266ZM354.824 481.543C354.824 480.301 355.066 479.184 355.551 478.191C356.043 477.199 356.723 476.434 357.59 475.895C358.465 475.355 359.461 475.086 360.578 475.086C362.305 475.086 363.699 475.684 364.762 476.879C365.832 478.074 366.367 479.664 366.367 481.648V481.801C366.367 483.035 366.129 484.145 365.652 485.129C365.184 486.105 364.508 486.867 363.625 487.414C362.75 487.961 361.742 488.234 360.602 488.234C358.883 488.234 357.488 487.637 356.418 486.441C355.355 485.246 354.824 483.664 354.824 481.695V481.543ZM357.004 481.801C357.004 483.207 357.328 484.336 357.977 485.188C358.633 486.039 359.508 486.465 360.602 486.465C361.703 486.465 362.578 486.035 363.227 485.176C363.875 484.309 364.199 483.098 364.199 481.543C364.199 480.152 363.867 479.027 363.203 478.168C362.547 477.301 361.672 476.867 360.578 476.867C359.508 476.867 358.645 477.293 357.988 478.145C357.332 478.996 357.004 480.215 357.004 481.801ZM376.914 486.746C376.07 487.738 374.832 488.234 373.199 488.234C371.848 488.234 370.816 487.844 370.105 487.062C369.402 486.273 369.047 485.109 369.039 483.57V475.32H371.207V483.512C371.207 485.434 371.988 486.395 373.551 486.395C375.207 486.395 376.309 485.777 376.855 484.543V475.32H379.023V488H376.961L376.914 486.746ZM393.039 481.801C393.039 483.73 392.598 485.285 391.715 486.465C390.832 487.645 389.637 488.234 388.129 488.234C386.59 488.234 385.379 487.746 384.496 486.77V492.875H382.328V475.32H384.309L384.414 476.727C385.297 475.633 386.523 475.086 388.094 475.086C389.617 475.086 390.82 475.66 391.703 476.809C392.594 477.957 393.039 479.555 393.039 481.602V481.801ZM390.871 481.555C390.871 480.125 390.566 478.996 389.957 478.168C389.348 477.34 388.512 476.926 387.449 476.926C386.137 476.926 385.152 477.508 384.496 478.672V484.73C385.145 485.887 386.137 486.465 387.473 486.465C388.512 486.465 389.336 486.055 389.945 485.234C390.562 484.406 390.871 483.18 390.871 481.555ZM294.543 516H292.363V501.551L287.992 503.156V501.188L294.203 498.855H294.543V516Z" fill="black"/>
<path d="M338.61 454.736C339.33 454.048 339.946 453.344 340.458 452.624C340.97 451.92 341.386 451.184 341.706 450.416C342.042 449.648 342.29 448.848 342.45 448.016C342.61 447.168 342.69 446.272 342.69 445.328C342.69 443.44 342.362 441.752 341.706 440.264C341.066 438.76 340.034 437.312 338.61 435.92L340.578 434.36C342.146 435.752 343.378 437.36 344.274 439.184C345.186 441.008 345.642 443.056 345.642 445.328C345.642 447.6 345.186 449.648 344.274 451.472C343.378 453.296 342.146 454.904 340.578 456.296L338.61 454.736Z" fill="#D55E00"/>
<path d="M301.105 316.02C301.105 317.691 300.824 319.152 300.262 320.402C299.699 321.645 298.902 322.594 297.871 323.25C296.84 323.906 295.637 324.234 294.262 324.234C292.918 324.234 291.727 323.906 290.688 323.25C289.648 322.586 288.84 321.645 288.262 320.426C287.691 319.199 287.398 317.781 287.383 316.172V314.941C287.383 313.301 287.668 311.852 288.238 310.594C288.809 309.336 289.613 308.375 290.652 307.711C291.699 307.039 292.895 306.703 294.238 306.703C295.605 306.703 296.809 307.035 297.848 307.699C298.895 308.355 299.699 309.312 300.262 310.57C300.824 311.82 301.105 313.277 301.105 314.941V316.02ZM298.867 314.918C298.867 312.895 298.461 311.344 297.648 310.266C296.836 309.18 295.699 308.637 294.238 308.637C292.816 308.637 291.695 309.18 290.875 310.266C290.062 311.344 289.645 312.844 289.621 314.766V316.02C289.621 317.98 290.031 319.523 290.852 320.648C291.68 321.766 292.816 322.324 294.262 322.324C295.715 322.324 296.84 321.797 297.637 320.742C298.434 319.68 298.844 318.16 298.867 316.184V314.918ZM306.191 311.32L306.262 312.914C307.23 311.695 308.496 311.086 310.059 311.086C312.738 311.086 314.09 312.598 314.113 315.621V324H311.945V315.609C311.938 314.695 311.727 314.02 311.312 313.582C310.906 313.145 310.27 312.926 309.402 312.926C308.699 312.926 308.082 313.113 307.551 313.488C307.02 313.863 306.605 314.355 306.309 314.965V324H304.141V311.32H306.191ZM322.645 324.234C320.926 324.234 319.527 323.672 318.449 322.547C317.371 321.414 316.832 319.902 316.832 318.012V317.613C316.832 316.355 317.07 315.234 317.547 314.25C318.031 313.258 318.703 312.484 319.562 311.93C320.43 311.367 321.367 311.086 322.375 311.086C324.023 311.086 325.305 311.629 326.219 312.715C327.133 313.801 327.59 315.355 327.59 317.379V318.281H319C319.031 319.531 319.395 320.543 320.09 321.316C320.793 322.082 321.684 322.465 322.762 322.465C323.527 322.465 324.176 322.309 324.707 321.996C325.238 321.684 325.703 321.27 326.102 320.754L327.426 321.785C326.363 323.418 324.77 324.234 322.645 324.234ZM322.375 312.867C321.5 312.867 320.766 313.188 320.172 313.828C319.578 314.461 319.211 315.352 319.07 316.5H325.422V316.336C325.359 315.234 325.062 314.383 324.531 313.781C324 313.172 323.281 312.867 322.375 312.867ZM335.488 317.543C335.488 316.301 335.73 315.184 336.215 314.191C336.707 313.199 337.387 312.434 338.254 311.895C339.129 311.355 340.125 311.086 341.242 311.086C342.969 311.086 344.363 311.684 345.426 312.879C346.496 314.074 347.031 315.664 347.031 317.648V317.801C347.031 319.035 346.793 320.145 346.316 321.129C345.848 322.105 345.172 322.867 344.289 323.414C343.414 323.961 342.406 324.234 341.266 324.234C339.547 324.234 338.152 323.637 337.082 322.441C336.02 321.246 335.488 319.664 335.488 317.695V317.543ZM337.668 317.801C337.668 319.207 337.992 320.336 338.641 321.188C339.297 322.039 340.172 322.465 341.266 322.465C342.367 322.465 343.242 322.035 343.891 321.176C344.539 320.309 344.863 319.098 344.863 317.543C344.863 316.152 344.531 315.027 343.867 314.168C343.211 313.301 342.336 312.867 341.242 312.867C340.172 312.867 339.309 313.293 338.652 314.145C337.996 314.996 337.668 316.215 337.668 317.801ZM355.879 313.266C355.551 313.211 355.195 313.184 354.812 313.184C353.391 313.184 352.426 313.789 351.918 315V324H349.75V311.32H351.859L351.895 312.785C352.605 311.652 353.613 311.086 354.918 311.086C355.34 311.086 355.66 311.141 355.879 311.25V313.266ZM289.68 339.32L289.738 340.727C290.668 339.633 291.922 339.086 293.5 339.086C295.273 339.086 296.48 339.766 297.121 341.125C297.543 340.516 298.09 340.023 298.762 339.648C299.441 339.273 300.242 339.086 301.164 339.086C303.945 339.086 305.359 340.559 305.406 343.504V352H303.238V343.633C303.238 342.727 303.031 342.051 302.617 341.605C302.203 341.152 301.508 340.926 300.531 340.926C299.727 340.926 299.059 341.168 298.527 341.652C297.996 342.129 297.688 342.773 297.602 343.586V352H295.422V343.691C295.422 341.848 294.52 340.926 292.715 340.926C291.293 340.926 290.32 341.531 289.797 342.742V352H287.629V339.32H289.68ZM308.113 345.543C308.113 344.301 308.355 343.184 308.84 342.191C309.332 341.199 310.012 340.434 310.879 339.895C311.754 339.355 312.75 339.086 313.867 339.086C315.594 339.086 316.988 339.684 318.051 340.879C319.121 342.074 319.656 343.664 319.656 345.648V345.801C319.656 347.035 319.418 348.145 318.941 349.129C318.473 350.105 317.797 350.867 316.914 351.414C316.039 351.961 315.031 352.234 313.891 352.234C312.172 352.234 310.777 351.637 309.707 350.441C308.645 349.246 308.113 347.664 308.113 345.695V345.543ZM310.293 345.801C310.293 347.207 310.617 348.336 311.266 349.188C311.922 350.039 312.797 350.465 313.891 350.465C314.992 350.465 315.867 350.035 316.516 349.176C317.164 348.309 317.488 347.098 317.488 345.543C317.488 344.152 317.156 343.027 316.492 342.168C315.836 341.301 314.961 340.867 313.867 340.867C312.797 340.867 311.934 341.293 311.277 342.145C310.621 342.996 310.293 344.215 310.293 345.801ZM328.504 341.266C328.176 341.211 327.82 341.184 327.438 341.184C326.016 341.184 325.051 341.789 324.543 343V352H322.375V339.32H324.484L324.52 340.785C325.23 339.652 326.238 339.086 327.543 339.086C327.965 339.086 328.285 339.141 328.504 339.25V341.266ZM335.535 352.234C333.816 352.234 332.418 351.672 331.34 350.547C330.262 349.414 329.723 347.902 329.723 346.012V345.613C329.723 344.355 329.961 343.234 330.438 342.25C330.922 341.258 331.594 340.484 332.453 339.93C333.32 339.367 334.258 339.086 335.266 339.086C336.914 339.086 338.195 339.629 339.109 340.715C340.023 341.801 340.48 343.355 340.48 345.379V346.281H331.891C331.922 347.531 332.285 348.543 332.98 349.316C333.684 350.082 334.574 350.465 335.652 350.465C336.418 350.465 337.066 350.309 337.598 349.996C338.129 349.684 338.594 349.27 338.992 348.754L340.316 349.785C339.254 351.418 337.66 352.234 335.535 352.234ZM335.266 340.867C334.391 340.867 333.656 341.188 333.062 341.828C332.469 342.461 332.102 343.352 331.961 344.5H338.312V344.336C338.25 343.234 337.953 342.383 337.422 341.781C336.891 341.172 336.172 340.867 335.266 340.867ZM292.727 378.465C293.5 378.465 294.176 378.23 294.754 377.762C295.332 377.293 295.652 376.707 295.715 376.004H297.766C297.727 376.73 297.477 377.422 297.016 378.078C296.555 378.734 295.938 379.258 295.164 379.648C294.398 380.039 293.586 380.234 292.727 380.234C291 380.234 289.625 379.66 288.602 378.512C287.586 377.355 287.078 375.777 287.078 373.777V373.414C287.078 372.18 287.305 371.082 287.758 370.121C288.211 369.16 288.859 368.414 289.703 367.883C290.555 367.352 291.559 367.086 292.715 367.086C294.137 367.086 295.316 367.512 296.254 368.363C297.199 369.215 297.703 370.32 297.766 371.68H295.715C295.652 370.859 295.34 370.188 294.777 369.664C294.223 369.133 293.535 368.867 292.715 368.867C291.613 368.867 290.758 369.266 290.148 370.062C289.547 370.852 289.246 371.996 289.246 373.496V373.906C289.246 375.367 289.547 376.492 290.148 377.281C290.75 378.07 291.609 378.465 292.727 378.465ZM302.371 368.855C303.332 367.676 304.582 367.086 306.121 367.086C308.801 367.086 310.152 368.598 310.176 371.621V380H308.008V371.609C308 370.695 307.789 370.02 307.375 369.582C306.969 369.145 306.332 368.926 305.465 368.926C304.762 368.926 304.145 369.113 303.613 369.488C303.082 369.863 302.668 370.355 302.371 370.965V380H300.203V362H302.371V368.855ZM321.25 380C321.125 379.75 321.023 379.305 320.945 378.664C319.938 379.711 318.734 380.234 317.336 380.234C316.086 380.234 315.059 379.883 314.254 379.18C313.457 378.469 313.059 377.57 313.059 376.484C313.059 375.164 313.559 374.141 314.559 373.414C315.566 372.68 316.98 372.312 318.801 372.312H320.91V371.316C320.91 370.559 320.684 369.957 320.23 369.512C319.777 369.059 319.109 368.832 318.227 368.832C317.453 368.832 316.805 369.027 316.281 369.418C315.758 369.809 315.496 370.281 315.496 370.836H313.316C313.316 370.203 313.539 369.594 313.984 369.008C314.438 368.414 315.047 367.945 315.812 367.602C316.586 367.258 317.434 367.086 318.355 367.086C319.816 367.086 320.961 367.453 321.789 368.188C322.617 368.914 323.047 369.918 323.078 371.199V377.035C323.078 378.199 323.227 379.125 323.523 379.812V380H321.25ZM317.652 378.348C318.332 378.348 318.977 378.172 319.586 377.82C320.195 377.469 320.637 377.012 320.91 376.449V373.848H319.211C316.555 373.848 315.227 374.625 315.227 376.18C315.227 376.859 315.453 377.391 315.906 377.773C316.359 378.156 316.941 378.348 317.652 378.348ZM332.605 369.266C332.277 369.211 331.922 369.184 331.539 369.184C330.117 369.184 329.152 369.789 328.645 371V380H326.477V367.32H328.586L328.621 368.785C329.332 367.652 330.34 367.086 331.645 367.086C332.066 367.086 332.387 367.141 332.605 367.25V369.266ZM341.969 380C341.844 379.75 341.742 379.305 341.664 378.664C340.656 379.711 339.453 380.234 338.055 380.234C336.805 380.234 335.777 379.883 334.973 379.18C334.176 378.469 333.777 377.57 333.777 376.484C333.777 375.164 334.277 374.141 335.277 373.414C336.285 372.68 337.699 372.312 339.52 372.312H341.629V371.316C341.629 370.559 341.402 369.957 340.949 369.512C340.496 369.059 339.828 368.832 338.945 368.832C338.172 368.832 337.523 369.027 337 369.418C336.477 369.809 336.215 370.281 336.215 370.836H334.035C334.035 370.203 334.258 369.594 334.703 369.008C335.156 368.414 335.766 367.945 336.531 367.602C337.305 367.258 338.152 367.086 339.074 367.086C340.535 367.086 341.68 367.453 342.508 368.188C343.336 368.914 343.766 369.918 343.797 371.199V377.035C343.797 378.199 343.945 379.125 344.242 379.812V380H341.969ZM338.371 378.348C339.051 378.348 339.695 378.172 340.305 377.82C340.914 377.469 341.355 377.012 341.629 376.449V373.848H339.93C337.273 373.848 335.945 374.625 335.945 376.18C335.945 376.859 336.172 377.391 336.625 377.773C337.078 378.156 337.66 378.348 338.371 378.348ZM352.281 378.465C353.055 378.465 353.73 378.23 354.309 377.762C354.887 377.293 355.207 376.707 355.27 376.004H357.32C357.281 376.73 357.031 377.422 356.57 378.078C356.109 378.734 355.492 379.258 354.719 379.648C353.953 380.039 353.141 380.234 352.281 380.234C350.555 380.234 349.18 379.66 348.156 378.512C347.141 377.355 346.633 375.777 346.633 373.777V373.414C346.633 372.18 346.859 371.082 347.312 370.121C347.766 369.16 348.414 368.414 349.258 367.883C350.109 367.352 351.113 367.086 352.27 367.086C353.691 367.086 354.871 367.512 355.809 368.363C356.754 369.215 357.258 370.32 357.32 371.68H355.27C355.207 370.859 354.895 370.188 354.332 369.664C353.777 369.133 353.09 368.867 352.27 368.867C351.168 368.867 350.312 369.266 349.703 370.062C349.102 370.852 348.801 371.996 348.801 373.496V373.906C348.801 375.367 349.102 376.492 349.703 377.281C350.305 378.07 351.164 378.465 352.281 378.465ZM362.699 364.25V367.32H365.066V368.996H362.699V376.859C362.699 377.367 362.805 377.75 363.016 378.008C363.227 378.258 363.586 378.383 364.094 378.383C364.344 378.383 364.688 378.336 365.125 378.242V380C364.555 380.156 364 380.234 363.461 380.234C362.492 380.234 361.762 379.941 361.27 379.355C360.777 378.77 360.531 377.938 360.531 376.859V368.996H358.223V367.32H360.531V364.25H362.699ZM372.871 380.234C371.152 380.234 369.754 379.672 368.676 378.547C367.598 377.414 367.059 375.902 367.059 374.012V373.613C367.059 372.355 367.297 371.234 367.773 370.25C368.258 369.258 368.93 368.484 369.789 367.93C370.656 367.367 371.594 367.086 372.602 367.086C374.25 367.086 375.531 367.629 376.445 368.715C377.359 369.801 377.816 371.355 377.816 373.379V374.281H369.227C369.258 375.531 369.621 376.543 370.316 377.316C371.02 378.082 371.91 378.465 372.988 378.465C373.754 378.465 374.402 378.309 374.934 377.996C375.465 377.684 375.93 377.27 376.328 376.754L377.652 377.785C376.59 379.418 374.996 380.234 372.871 380.234ZM372.602 368.867C371.727 368.867 370.992 369.188 370.398 369.828C369.805 370.461 369.438 371.352 369.297 372.5H375.648V372.336C375.586 371.234 375.289 370.383 374.758 369.781C374.227 369.172 373.508 368.867 372.602 368.867ZM386.465 369.266C386.137 369.211 385.781 369.184 385.398 369.184C383.977 369.184 383.012 369.789 382.504 371V380H380.336V367.32H382.445L382.48 368.785C383.191 367.652 384.199 367.086 385.504 367.086C385.926 367.086 386.246 367.141 386.465 367.25V369.266ZM395.852 376.637C395.852 376.051 395.629 375.598 395.184 375.277C394.746 374.949 393.977 374.668 392.875 374.434C391.781 374.199 390.91 373.918 390.262 373.59C389.621 373.262 389.145 372.871 388.832 372.418C388.527 371.965 388.375 371.426 388.375 370.801C388.375 369.762 388.812 368.883 389.688 368.164C390.57 367.445 391.695 367.086 393.062 367.086C394.5 367.086 395.664 367.457 396.555 368.199C397.453 368.941 397.902 369.891 397.902 371.047H395.723C395.723 370.453 395.469 369.941 394.961 369.512C394.461 369.082 393.828 368.867 393.062 368.867C392.273 368.867 391.656 369.039 391.211 369.383C390.766 369.727 390.543 370.176 390.543 370.73C390.543 371.254 390.75 371.648 391.164 371.914C391.578 372.18 392.324 372.434 393.402 372.676C394.488 372.918 395.367 373.207 396.039 373.543C396.711 373.879 397.207 374.285 397.527 374.762C397.855 375.23 398.02 375.805 398.02 376.484C398.02 377.617 397.566 378.527 396.66 379.215C395.754 379.895 394.578 380.234 393.133 380.234C392.117 380.234 391.219 380.055 390.438 379.695C389.656 379.336 389.043 378.836 388.598 378.195C388.16 377.547 387.941 376.848 387.941 376.098H390.109C390.148 376.824 390.438 377.402 390.977 377.832C391.523 378.254 392.242 378.465 393.133 378.465C393.953 378.465 394.609 378.301 395.102 377.973C395.602 377.637 395.852 377.191 395.852 376.637Z" fill="black"/>
<path d="M332.278 286.243C332.278 285.843 332.342 285.475 332.47 285.139C332.614 284.787 332.806 284.483 333.046 284.227C333.286 283.971 333.574 283.771 333.91 283.627C334.262 283.483 334.646 283.411 335.062 283.411C335.478 283.411 335.854 283.483 336.19 283.627C336.542 283.771 336.838 283.971 337.078 284.227C337.318 284.483 337.502 284.787 337.63 285.139C337.774 285.475 337.846 285.843 337.846 286.243C337.846 287.043 337.59 287.715 337.078 288.259C336.566 288.787 335.894 289.051 335.062 289.051C334.23 289.051 333.558 288.787 333.046 288.259C332.534 287.715 332.278 287.043 332.278 286.243Z" fill="#0072B2"/>
<path d="M348.157 282.091H343.933V279.595H348.157V275.179H350.749V279.595H354.973V282.091H350.749V286.507H348.157V282.091Z" fill="#56CCF2"/>
<rect x="626" y="142" width="130" height="398" fill="#FFFAF5"/>
<path d="M641.008 206.395C639.078 205.84 637.672 205.16 636.789 204.355C635.914 203.543 635.477 202.543 635.477 201.355C635.477 200.012 636.012 198.902 637.082 198.027C638.16 197.145 639.559 196.703 641.277 196.703C642.449 196.703 643.492 196.93 644.406 197.383C645.328 197.836 646.039 198.461 646.539 199.258C647.047 200.055 647.301 200.926 647.301 201.871H645.039C645.039 200.84 644.711 200.031 644.055 199.445C643.398 198.852 642.473 198.555 641.277 198.555C640.168 198.555 639.301 198.801 638.676 199.293C638.059 199.777 637.75 200.453 637.75 201.32C637.75 202.016 638.043 202.605 638.629 203.09C639.223 203.566 640.227 204.004 641.641 204.402C643.062 204.801 644.172 205.242 644.969 205.727C645.773 206.203 646.367 206.762 646.75 207.402C647.141 208.043 647.336 208.797 647.336 209.664C647.336 211.047 646.797 212.156 645.719 212.992C644.641 213.82 643.199 214.234 641.395 214.234C640.223 214.234 639.129 214.012 638.113 213.566C637.098 213.113 636.312 212.496 635.758 211.715C635.211 210.934 634.938 210.047 634.938 209.055H637.199C637.199 210.086 637.578 210.902 638.336 211.504C639.102 212.098 640.121 212.395 641.395 212.395C642.582 212.395 643.492 212.152 644.125 211.668C644.758 211.184 645.074 210.523 645.074 209.688C645.074 208.852 644.781 208.207 644.195 207.754C643.609 207.293 642.547 206.84 641.008 206.395ZM652.832 198.25V201.32H655.199V202.996H652.832V210.859C652.832 211.367 652.938 211.75 653.148 212.008C653.359 212.258 653.719 212.383 654.227 212.383C654.477 212.383 654.82 212.336 655.258 212.242V214C654.688 214.156 654.133 214.234 653.594 214.234C652.625 214.234 651.895 213.941 651.402 213.355C650.91 212.77 650.664 211.938 650.664 210.859V202.996H648.355V201.32H650.664V198.25H652.832ZM665.57 214C665.445 213.75 665.344 213.305 665.266 212.664C664.258 213.711 663.055 214.234 661.656 214.234C660.406 214.234 659.379 213.883 658.574 213.18C657.777 212.469 657.379 211.57 657.379 210.484C657.379 209.164 657.879 208.141 658.879 207.414C659.887 206.68 661.301 206.312 663.121 206.312H665.23V205.316C665.23 204.559 665.004 203.957 664.551 203.512C664.098 203.059 663.43 202.832 662.547 202.832C661.773 202.832 661.125 203.027 660.602 203.418C660.078 203.809 659.816 204.281 659.816 204.836H657.637C657.637 204.203 657.859 203.594 658.305 203.008C658.758 202.414 659.367 201.945 660.133 201.602C660.906 201.258 661.754 201.086 662.676 201.086C664.137 201.086 665.281 201.453 666.109 202.188C666.938 202.914 667.367 203.918 667.398 205.199V211.035C667.398 212.199 667.547 213.125 667.844 213.812V214H665.57ZM661.973 212.348C662.652 212.348 663.297 212.172 663.906 211.82C664.516 211.469 664.957 211.012 665.23 210.449V207.848H663.531C660.875 207.848 659.547 208.625 659.547 210.18C659.547 210.859 659.773 211.391 660.227 211.773C660.68 212.156 661.262 212.348 661.973 212.348ZM676.926 203.266C676.598 203.211 676.242 203.184 675.859 203.184C674.438 203.184 673.473 203.789 672.965 205V214H670.797V201.32H672.906L672.941 202.785C673.652 201.652 674.66 201.086 675.965 201.086C676.387 201.086 676.707 201.141 676.926 201.25V203.266ZM682.457 198.25V201.32H684.824V202.996H682.457V210.859C682.457 211.367 682.562 211.75 682.773 212.008C682.984 212.258 683.344 212.383 683.852 212.383C684.102 212.383 684.445 212.336 684.883 212.242V214C684.312 214.156 683.758 214.234 683.219 214.234C682.25 214.234 681.52 213.941 681.027 213.355C680.535 212.77 680.289 211.938 680.289 210.859V202.996H677.98V201.32H680.289V198.25H682.457ZM635.125 235.555C635.125 233.578 635.582 232.008 636.496 230.844C637.41 229.672 638.621 229.086 640.129 229.086C641.676 229.086 642.883 229.633 643.75 230.727L643.855 229.32H645.836V241.695C645.836 243.336 645.348 244.629 644.371 245.574C643.402 246.52 642.098 246.992 640.457 246.992C639.543 246.992 638.648 246.797 637.773 246.406C636.898 246.016 636.23 245.48 635.77 244.801L636.895 243.5C637.824 244.648 638.961 245.223 640.305 245.223C641.359 245.223 642.18 244.926 642.766 244.332C643.359 243.738 643.656 242.902 643.656 241.824V240.734C642.789 241.734 641.605 242.234 640.105 242.234C638.621 242.234 637.418 241.637 636.496 240.441C635.582 239.246 635.125 237.617 635.125 235.555ZM637.305 235.801C637.305 237.23 637.598 238.355 638.184 239.176C638.77 239.988 639.59 240.395 640.645 240.395C642.012 240.395 643.016 239.773 643.656 238.531V232.742C642.992 231.531 641.996 230.926 640.668 230.926C639.613 230.926 638.789 231.336 638.195 232.156C637.602 232.977 637.305 234.191 637.305 235.801ZM655.246 231.266C654.918 231.211 654.562 231.184 654.18 231.184C652.758 231.184 651.793 231.789 651.285 233V242H649.117V229.32H651.227L651.262 230.785C651.973 229.652 652.98 229.086 654.285 229.086C654.707 229.086 655.027 229.141 655.246 229.25V231.266ZM656.441 235.543C656.441 234.301 656.684 233.184 657.168 232.191C657.66 231.199 658.34 230.434 659.207 229.895C660.082 229.355 661.078 229.086 662.195 229.086C663.922 229.086 665.316 229.684 666.379 230.879C667.449 232.074 667.984 233.664 667.984 235.648V235.801C667.984 237.035 667.746 238.145 667.27 239.129C666.801 240.105 666.125 240.867 665.242 241.414C664.367 241.961 663.359 242.234 662.219 242.234C660.5 242.234 659.105 241.637 658.035 240.441C656.973 239.246 656.441 237.664 656.441 235.695V235.543ZM658.621 235.801C658.621 237.207 658.945 238.336 659.594 239.188C660.25 240.039 661.125 240.465 662.219 240.465C663.32 240.465 664.195 240.035 664.844 239.176C665.492 238.309 665.816 237.098 665.816 235.543C665.816 234.152 665.484 233.027 664.82 232.168C664.164 231.301 663.289 230.867 662.195 230.867C661.125 230.867 660.262 231.293 659.605 232.145C658.949 232.996 658.621 234.215 658.621 235.801ZM678.531 240.746C677.688 241.738 676.449 242.234 674.816 242.234C673.465 242.234 672.434 241.844 671.723 241.062C671.02 240.273 670.664 239.109 670.656 237.57V229.32H672.824V237.512C672.824 239.434 673.605 240.395 675.168 240.395C676.824 240.395 677.926 239.777 678.473 238.543V229.32H680.641V242H678.578L678.531 240.746ZM694.656 235.801C694.656 237.73 694.215 239.285 693.332 240.465C692.449 241.645 691.254 242.234 689.746 242.234C688.207 242.234 686.996 241.746 686.113 240.77V246.875H683.945V229.32H685.926L686.031 230.727C686.914 229.633 688.141 229.086 689.711 229.086C691.234 229.086 692.438 229.66 693.32 230.809C694.211 231.957 694.656 233.555 694.656 235.602V235.801ZM692.488 235.555C692.488 234.125 692.184 232.996 691.574 232.168C690.965 231.34 690.129 230.926 689.066 230.926C687.754 230.926 686.77 231.508 686.113 232.672V238.73C686.762 239.887 687.754 240.465 689.09 240.465C690.129 240.465 690.953 240.055 691.562 239.234C692.18 238.406 692.488 237.18 692.488 235.555ZM714.332 242H703.152V240.441L709.059 233.879C709.934 232.887 710.535 232.082 710.863 231.465C711.199 230.84 711.367 230.195 711.367 229.531C711.367 228.641 711.098 227.91 710.559 227.34C710.02 226.77 709.301 226.484 708.402 226.484C707.324 226.484 706.484 226.793 705.883 227.41C705.289 228.02 704.992 228.871 704.992 229.965H702.824C702.824 228.395 703.328 227.125 704.336 226.156C705.352 225.188 706.707 224.703 708.402 224.703C709.988 224.703 711.242 225.121 712.164 225.957C713.086 226.785 713.547 227.891 713.547 229.273C713.547 230.953 712.477 232.953 710.336 235.273L705.766 240.23H714.332V242Z" fill="black"/>
<path d="M692.466 183.059C690.898 181.667 689.658 180.059 688.746 178.235C687.85 176.411 687.402 174.363 687.402 172.091C687.402 169.819 687.85 167.771 688.746 165.947C689.658 164.123 690.898 162.515 692.466 161.123L694.434 162.683C693.01 164.075 691.97 165.523 691.314 167.027C690.674 168.515 690.354 170.203 690.354 172.091C690.354 173.035 690.434 173.931 690.594 174.779C690.754 175.611 690.994 176.411 691.314 177.179C691.65 177.947 692.074 178.683 692.586 179.387C693.098 180.107 693.714 180.811 694.434 181.499L692.466 183.059Z" fill="#D55E00"/>
<path d="M645.625 480.113H638.23V486.16H646.82V488H635.98V470.938H646.703V472.789H638.23V478.273H645.625V480.113ZM651.332 475.32L651.402 476.914C652.371 475.695 653.637 475.086 655.199 475.086C657.879 475.086 659.23 476.598 659.254 479.621V488H657.086V479.609C657.078 478.695 656.867 478.02 656.453 477.582C656.047 477.145 655.41 476.926 654.543 476.926C653.84 476.926 653.223 477.113 652.691 477.488C652.16 477.863 651.746 478.355 651.449 478.965V488H649.281V475.32H651.332ZM661.996 481.555C661.996 479.609 662.457 478.047 663.379 476.867C664.301 475.68 665.508 475.086 667 475.086C668.484 475.086 669.66 475.594 670.527 476.609V470H672.695V488H670.703L670.598 486.641C669.73 487.703 668.523 488.234 666.977 488.234C665.508 488.234 664.309 487.633 663.379 486.43C662.457 485.227 661.996 483.656 661.996 481.719V481.555ZM664.164 481.801C664.164 483.238 664.461 484.363 665.055 485.176C665.648 485.988 666.469 486.395 667.516 486.395C668.891 486.395 669.895 485.777 670.527 484.543V478.719C669.879 477.523 668.883 476.926 667.539 476.926C666.477 476.926 665.648 477.336 665.055 478.156C664.461 478.977 664.164 480.191 664.164 481.801ZM681.508 481.555C681.508 479.578 681.965 478.008 682.879 476.844C683.793 475.672 685.004 475.086 686.512 475.086C688.059 475.086 689.266 475.633 690.133 476.727L690.238 475.32H692.219V487.695C692.219 489.336 691.73 490.629 690.754 491.574C689.785 492.52 688.48 492.992 686.84 492.992C685.926 492.992 685.031 492.797 684.156 492.406C683.281 492.016 682.613 491.48 682.152 490.801L683.277 489.5C684.207 490.648 685.344 491.223 686.688 491.223C687.742 491.223 688.562 490.926 689.148 490.332C689.742 489.738 690.039 488.902 690.039 487.824V486.734C689.172 487.734 687.988 488.234 686.488 488.234C685.004 488.234 683.801 487.637 682.879 486.441C681.965 485.246 681.508 483.617 681.508 481.555ZM683.688 481.801C683.688 483.23 683.98 484.355 684.566 485.176C685.152 485.988 685.973 486.395 687.027 486.395C688.395 486.395 689.398 485.773 690.039 484.531V478.742C689.375 477.531 688.379 476.926 687.051 476.926C685.996 476.926 685.172 477.336 684.578 478.156C683.984 478.977 683.688 480.191 683.688 481.801ZM701.629 477.266C701.301 477.211 700.945 477.184 700.562 477.184C699.141 477.184 698.176 477.789 697.668 479V488H695.5V475.32H697.609L697.645 476.785C698.355 475.652 699.363 475.086 700.668 475.086C701.09 475.086 701.41 475.141 701.629 475.25V477.266ZM702.824 481.543C702.824 480.301 703.066 479.184 703.551 478.191C704.043 477.199 704.723 476.434 705.59 475.895C706.465 475.355 707.461 475.086 708.578 475.086C710.305 475.086 711.699 475.684 712.762 476.879C713.832 478.074 714.367 479.664 714.367 481.648V481.801C714.367 483.035 714.129 484.145 713.652 485.129C713.184 486.105 712.508 486.867 711.625 487.414C710.75 487.961 709.742 488.234 708.602 488.234C706.883 488.234 705.488 487.637 704.418 486.441C703.355 485.246 702.824 483.664 702.824 481.695V481.543ZM705.004 481.801C705.004 483.207 705.328 484.336 705.977 485.188C706.633 486.039 707.508 486.465 708.602 486.465C709.703 486.465 710.578 486.035 711.227 485.176C711.875 484.309 712.199 483.098 712.199 481.543C712.199 480.152 711.867 479.027 711.203 478.168C710.547 477.301 709.672 476.867 708.578 476.867C707.508 476.867 706.645 477.293 705.988 478.145C705.332 478.996 705.004 480.215 705.004 481.801ZM724.914 486.746C724.07 487.738 722.832 488.234 721.199 488.234C719.848 488.234 718.816 487.844 718.105 487.062C717.402 486.273 717.047 485.109 717.039 483.57V475.32H719.207V483.512C719.207 485.434 719.988 486.395 721.551 486.395C723.207 486.395 724.309 485.777 724.855 484.543V475.32H727.023V488H724.961L724.914 486.746ZM741.039 481.801C741.039 483.73 740.598 485.285 739.715 486.465C738.832 487.645 737.637 488.234 736.129 488.234C734.59 488.234 733.379 487.746 732.496 486.77V492.875H730.328V475.32H732.309L732.414 476.727C733.297 475.633 734.523 475.086 736.094 475.086C737.617 475.086 738.82 475.66 739.703 476.809C740.594 477.957 741.039 479.555 741.039 481.602V481.801ZM738.871 481.555C738.871 480.125 738.566 478.996 737.957 478.168C737.348 477.34 736.512 476.926 735.449 476.926C734.137 476.926 733.152 477.508 732.496 478.672V484.73C733.145 485.887 734.137 486.465 735.473 486.465C736.512 486.465 737.336 486.055 737.945 485.234C738.562 484.406 738.871 483.18 738.871 481.555ZM646.598 516H635.418V514.441L641.324 507.879C642.199 506.887 642.801 506.082 643.129 505.465C643.465 504.84 643.633 504.195 643.633 503.531C643.633 502.641 643.363 501.91 642.824 501.34C642.285 500.77 641.566 500.484 640.668 500.484C639.59 500.484 638.75 500.793 638.148 501.41C637.555 502.02 637.258 502.871 637.258 503.965H635.09C635.09 502.395 635.594 501.125 636.602 500.156C637.617 499.188 638.973 498.703 640.668 498.703C642.254 498.703 643.508 499.121 644.43 499.957C645.352 500.785 645.812 501.891 645.812 503.273C645.812 504.953 644.742 506.953 642.602 509.273L638.031 514.23H646.598V516Z" fill="black"/>
<path d="M686.61 454.736C687.33 454.048 687.946 453.344 688.458 452.624C688.97 451.92 689.386 451.184 689.706 450.416C690.042 449.648 690.29 448.848 690.45 448.016C690.61 447.168 690.69 446.272 690.69 445.328C690.69 443.44 690.362 441.752 689.706 440.264C689.066 438.76 688.034 437.312 686.61 435.92L688.578 434.36C690.146 435.752 691.378 437.36 692.274 439.184C693.186 441.008 693.642 443.056 693.642 445.328C693.642 447.6 693.186 449.648 692.274 451.472C691.378 453.296 690.146 454.904 688.578 456.296L686.61 454.736Z" fill="#D55E00"/>
<path d="M649.105 316.02C649.105 317.691 648.824 319.152 648.262 320.402C647.699 321.645 646.902 322.594 645.871 323.25C644.84 323.906 643.637 324.234 642.262 324.234C640.918 324.234 639.727 323.906 638.688 323.25C637.648 322.586 636.84 321.645 636.262 320.426C635.691 319.199 635.398 317.781 635.383 316.172V314.941C635.383 313.301 635.668 311.852 636.238 310.594C636.809 309.336 637.613 308.375 638.652 307.711C639.699 307.039 640.895 306.703 642.238 306.703C643.605 306.703 644.809 307.035 645.848 307.699C646.895 308.355 647.699 309.312 648.262 310.57C648.824 311.82 649.105 313.277 649.105 314.941V316.02ZM646.867 314.918C646.867 312.895 646.461 311.344 645.648 310.266C644.836 309.18 643.699 308.637 642.238 308.637C640.816 308.637 639.695 309.18 638.875 310.266C638.062 311.344 637.645 312.844 637.621 314.766V316.02C637.621 317.98 638.031 319.523 638.852 320.648C639.68 321.766 640.816 322.324 642.262 322.324C643.715 322.324 644.84 321.797 645.637 320.742C646.434 319.68 646.844 318.16 646.867 316.184V314.918ZM654.191 311.32L654.262 312.914C655.23 311.695 656.496 311.086 658.059 311.086C660.738 311.086 662.09 312.598 662.113 315.621V324H659.945V315.609C659.938 314.695 659.727 314.02 659.312 313.582C658.906 313.145 658.27 312.926 657.402 312.926C656.699 312.926 656.082 313.113 655.551 313.488C655.02 313.863 654.605 314.355 654.309 314.965V324H652.141V311.32H654.191ZM670.645 324.234C668.926 324.234 667.527 323.672 666.449 322.547C665.371 321.414 664.832 319.902 664.832 318.012V317.613C664.832 316.355 665.07 315.234 665.547 314.25C666.031 313.258 666.703 312.484 667.562 311.93C668.43 311.367 669.367 311.086 670.375 311.086C672.023 311.086 673.305 311.629 674.219 312.715C675.133 313.801 675.59 315.355 675.59 317.379V318.281H667C667.031 319.531 667.395 320.543 668.09 321.316C668.793 322.082 669.684 322.465 670.762 322.465C671.527 322.465 672.176 322.309 672.707 321.996C673.238 321.684 673.703 321.27 674.102 320.754L675.426 321.785C674.363 323.418 672.77 324.234 670.645 324.234ZM670.375 312.867C669.5 312.867 668.766 313.188 668.172 313.828C667.578 314.461 667.211 315.352 667.07 316.5H673.422V316.336C673.359 315.234 673.062 314.383 672.531 313.781C672 313.172 671.281 312.867 670.375 312.867ZM683.488 317.543C683.488 316.301 683.73 315.184 684.215 314.191C684.707 313.199 685.387 312.434 686.254 311.895C687.129 311.355 688.125 311.086 689.242 311.086C690.969 311.086 692.363 311.684 693.426 312.879C694.496 314.074 695.031 315.664 695.031 317.648V317.801C695.031 319.035 694.793 320.145 694.316 321.129C693.848 322.105 693.172 322.867 692.289 323.414C691.414 323.961 690.406 324.234 689.266 324.234C687.547 324.234 686.152 323.637 685.082 322.441C684.02 321.246 683.488 319.664 683.488 317.695V317.543ZM685.668 317.801C685.668 319.207 685.992 320.336 686.641 321.188C687.297 322.039 688.172 322.465 689.266 322.465C690.367 322.465 691.242 322.035 691.891 321.176C692.539 320.309 692.863 319.098 692.863 317.543C692.863 316.152 692.531 315.027 691.867 314.168C691.211 313.301 690.336 312.867 689.242 312.867C688.172 312.867 687.309 313.293 686.652 314.145C685.996 314.996 685.668 316.215 685.668 317.801ZM703.879 313.266C703.551 313.211 703.195 313.184 702.812 313.184C701.391 313.184 700.426 313.789 699.918 315V324H697.75V311.32H699.859L699.895 312.785C700.605 311.652 701.613 311.086 702.918 311.086C703.34 311.086 703.66 311.141 703.879 311.25V313.266ZM637.68 339.32L637.738 340.727C638.668 339.633 639.922 339.086 641.5 339.086C643.273 339.086 644.48 339.766 645.121 341.125C645.543 340.516 646.09 340.023 646.762 339.648C647.441 339.273 648.242 339.086 649.164 339.086C651.945 339.086 653.359 340.559 653.406 343.504V352H651.238V343.633C651.238 342.727 651.031 342.051 650.617 341.605C650.203 341.152 649.508 340.926 648.531 340.926C647.727 340.926 647.059 341.168 646.527 341.652C645.996 342.129 645.688 342.773 645.602 343.586V352H643.422V343.691C643.422 341.848 642.52 340.926 640.715 340.926C639.293 340.926 638.32 341.531 637.797 342.742V352H635.629V339.32H637.68ZM656.113 345.543C656.113 344.301 656.355 343.184 656.84 342.191C657.332 341.199 658.012 340.434 658.879 339.895C659.754 339.355 660.75 339.086 661.867 339.086C663.594 339.086 664.988 339.684 666.051 340.879C667.121 342.074 667.656 343.664 667.656 345.648V345.801C667.656 347.035 667.418 348.145 666.941 349.129C666.473 350.105 665.797 350.867 664.914 351.414C664.039 351.961 663.031 352.234 661.891 352.234C660.172 352.234 658.777 351.637 657.707 350.441C656.645 349.246 656.113 347.664 656.113 345.695V345.543ZM658.293 345.801C658.293 347.207 658.617 348.336 659.266 349.188C659.922 350.039 660.797 350.465 661.891 350.465C662.992 350.465 663.867 350.035 664.516 349.176C665.164 348.309 665.488 347.098 665.488 345.543C665.488 344.152 665.156 343.027 664.492 342.168C663.836 341.301 662.961 340.867 661.867 340.867C660.797 340.867 659.934 341.293 659.277 342.145C658.621 342.996 658.293 344.215 658.293 345.801ZM676.504 341.266C676.176 341.211 675.82 341.184 675.438 341.184C674.016 341.184 673.051 341.789 672.543 343V352H670.375V339.32H672.484L672.52 340.785C673.23 339.652 674.238 339.086 675.543 339.086C675.965 339.086 676.285 339.141 676.504 339.25V341.266ZM683.535 352.234C681.816 352.234 680.418 351.672 679.34 350.547C678.262 349.414 677.723 347.902 677.723 346.012V345.613C677.723 344.355 677.961 343.234 678.438 342.25C678.922 341.258 679.594 340.484 680.453 339.93C681.32 339.367 682.258 339.086 683.266 339.086C684.914 339.086 686.195 339.629 687.109 340.715C688.023 341.801 688.48 343.355 688.48 345.379V346.281H679.891C679.922 347.531 680.285 348.543 680.98 349.316C681.684 350.082 682.574 350.465 683.652 350.465C684.418 350.465 685.066 350.309 685.598 349.996C686.129 349.684 686.594 349.27 686.992 348.754L688.316 349.785C687.254 351.418 685.66 352.234 683.535 352.234ZM683.266 340.867C682.391 340.867 681.656 341.188 681.062 341.828C680.469 342.461 680.102 343.352 679.961 344.5H686.312V344.336C686.25 343.234 685.953 342.383 685.422 341.781C684.891 341.172 684.172 340.867 683.266 340.867ZM640.727 378.465C641.5 378.465 642.176 378.23 642.754 377.762C643.332 377.293 643.652 376.707 643.715 376.004H645.766C645.727 376.73 645.477 377.422 645.016 378.078C644.555 378.734 643.938 379.258 643.164 379.648C642.398 380.039 641.586 380.234 640.727 380.234C639 380.234 637.625 379.66 636.602 378.512C635.586 377.355 635.078 375.777 635.078 373.777V373.414C635.078 372.18 635.305 371.082 635.758 370.121C636.211 369.16 636.859 368.414 637.703 367.883C638.555 367.352 639.559 367.086 640.715 367.086C642.137 367.086 643.316 367.512 644.254 368.363C645.199 369.215 645.703 370.32 645.766 371.68H643.715C643.652 370.859 643.34 370.188 642.777 369.664C642.223 369.133 641.535 368.867 640.715 368.867C639.613 368.867 638.758 369.266 638.148 370.062C637.547 370.852 637.246 371.996 637.246 373.496V373.906C637.246 375.367 637.547 376.492 638.148 377.281C638.75 378.07 639.609 378.465 640.727 378.465ZM650.371 368.855C651.332 367.676 652.582 367.086 654.121 367.086C656.801 367.086 658.152 368.598 658.176 371.621V380H656.008V371.609C656 370.695 655.789 370.02 655.375 369.582C654.969 369.145 654.332 368.926 653.465 368.926C652.762 368.926 652.145 369.113 651.613 369.488C651.082 369.863 650.668 370.355 650.371 370.965V380H648.203V362H650.371V368.855ZM669.25 380C669.125 379.75 669.023 379.305 668.945 378.664C667.938 379.711 666.734 380.234 665.336 380.234C664.086 380.234 663.059 379.883 662.254 379.18C661.457 378.469 661.059 377.57 661.059 376.484C661.059 375.164 661.559 374.141 662.559 373.414C663.566 372.68 664.98 372.312 666.801 372.312H668.91V371.316C668.91 370.559 668.684 369.957 668.23 369.512C667.777 369.059 667.109 368.832 666.227 368.832C665.453 368.832 664.805 369.027 664.281 369.418C663.758 369.809 663.496 370.281 663.496 370.836H661.316C661.316 370.203 661.539 369.594 661.984 369.008C662.438 368.414 663.047 367.945 663.812 367.602C664.586 367.258 665.434 367.086 666.355 367.086C667.816 367.086 668.961 367.453 669.789 368.188C670.617 368.914 671.047 369.918 671.078 371.199V377.035C671.078 378.199 671.227 379.125 671.523 379.812V380H669.25ZM665.652 378.348C666.332 378.348 666.977 378.172 667.586 377.82C668.195 377.469 668.637 377.012 668.91 376.449V373.848H667.211C664.555 373.848 663.227 374.625 663.227 376.18C663.227 376.859 663.453 377.391 663.906 377.773C664.359 378.156 664.941 378.348 665.652 378.348ZM680.605 369.266C680.277 369.211 679.922 369.184 679.539 369.184C678.117 369.184 677.152 369.789 676.645 371V380H674.477V367.32H676.586L676.621 368.785C677.332 367.652 678.34 367.086 679.645 367.086C680.066 367.086 680.387 367.141 680.605 367.25V369.266ZM689.969 380C689.844 379.75 689.742 379.305 689.664 378.664C688.656 379.711 687.453 380.234 686.055 380.234C684.805 380.234 683.777 379.883 682.973 379.18C682.176 378.469 681.777 377.57 681.777 376.484C681.777 375.164 682.277 374.141 683.277 373.414C684.285 372.68 685.699 372.312 687.52 372.312H689.629V371.316C689.629 370.559 689.402 369.957 688.949 369.512C688.496 369.059 687.828 368.832 686.945 368.832C686.172 368.832 685.523 369.027 685 369.418C684.477 369.809 684.215 370.281 684.215 370.836H682.035C682.035 370.203 682.258 369.594 682.703 369.008C683.156 368.414 683.766 367.945 684.531 367.602C685.305 367.258 686.152 367.086 687.074 367.086C688.535 367.086 689.68 367.453 690.508 368.188C691.336 368.914 691.766 369.918 691.797 371.199V377.035C691.797 378.199 691.945 379.125 692.242 379.812V380H689.969ZM686.371 378.348C687.051 378.348 687.695 378.172 688.305 377.82C688.914 377.469 689.355 377.012 689.629 376.449V373.848H687.93C685.273 373.848 683.945 374.625 683.945 376.18C683.945 376.859 684.172 377.391 684.625 377.773C685.078 378.156 685.66 378.348 686.371 378.348ZM700.281 378.465C701.055 378.465 701.73 378.23 702.309 377.762C702.887 377.293 703.207 376.707 703.27 376.004H705.32C705.281 376.73 705.031 377.422 704.57 378.078C704.109 378.734 703.492 379.258 702.719 379.648C701.953 380.039 701.141 380.234 700.281 380.234C698.555 380.234 697.18 379.66 696.156 378.512C695.141 377.355 694.633 375.777 694.633 373.777V373.414C694.633 372.18 694.859 371.082 695.312 370.121C695.766 369.16 696.414 368.414 697.258 367.883C698.109 367.352 699.113 367.086 700.27 367.086C701.691 367.086 702.871 367.512 703.809 368.363C704.754 369.215 705.258 370.32 705.32 371.68H703.27C703.207 370.859 702.895 370.188 702.332 369.664C701.777 369.133 701.09 368.867 700.27 368.867C699.168 368.867 698.312 369.266 697.703 370.062C697.102 370.852 696.801 371.996 696.801 373.496V373.906C696.801 375.367 697.102 376.492 697.703 377.281C698.305 378.07 699.164 378.465 700.281 378.465ZM710.699 364.25V367.32H713.066V368.996H710.699V376.859C710.699 377.367 710.805 377.75 711.016 378.008C711.227 378.258 711.586 378.383 712.094 378.383C712.344 378.383 712.688 378.336 713.125 378.242V380C712.555 380.156 712 380.234 711.461 380.234C710.492 380.234 709.762 379.941 709.27 379.355C708.777 378.77 708.531 377.938 708.531 376.859V368.996H706.223V367.32H708.531V364.25H710.699ZM720.871 380.234C719.152 380.234 717.754 379.672 716.676 378.547C715.598 377.414 715.059 375.902 715.059 374.012V373.613C715.059 372.355 715.297 371.234 715.773 370.25C716.258 369.258 716.93 368.484 717.789 367.93C718.656 367.367 719.594 367.086 720.602 367.086C722.25 367.086 723.531 367.629 724.445 368.715C725.359 369.801 725.816 371.355 725.816 373.379V374.281H717.227C717.258 375.531 717.621 376.543 718.316 377.316C719.02 378.082 719.91 378.465 720.988 378.465C721.754 378.465 722.402 378.309 722.934 377.996C723.465 377.684 723.93 377.27 724.328 376.754L725.652 377.785C724.59 379.418 722.996 380.234 720.871 380.234ZM720.602 368.867C719.727 368.867 718.992 369.188 718.398 369.828C717.805 370.461 717.438 371.352 717.297 372.5H723.648V372.336C723.586 371.234 723.289 370.383 722.758 369.781C722.227 369.172 721.508 368.867 720.602 368.867ZM734.465 369.266C734.137 369.211 733.781 369.184 733.398 369.184C731.977 369.184 731.012 369.789 730.504 371V380H728.336V367.32H730.445L730.48 368.785C731.191 367.652 732.199 367.086 733.504 367.086C733.926 367.086 734.246 367.141 734.465 367.25V369.266ZM743.852 376.637C743.852 376.051 743.629 375.598 743.184 375.277C742.746 374.949 741.977 374.668 740.875 374.434C739.781 374.199 738.91 373.918 738.262 373.59C737.621 373.262 737.145 372.871 736.832 372.418C736.527 371.965 736.375 371.426 736.375 370.801C736.375 369.762 736.812 368.883 737.688 368.164C738.57 367.445 739.695 367.086 741.062 367.086C742.5 367.086 743.664 367.457 744.555 368.199C745.453 368.941 745.902 369.891 745.902 371.047H743.723C743.723 370.453 743.469 369.941 742.961 369.512C742.461 369.082 741.828 368.867 741.062 368.867C740.273 368.867 739.656 369.039 739.211 369.383C738.766 369.727 738.543 370.176 738.543 370.73C738.543 371.254 738.75 371.648 739.164 371.914C739.578 372.18 740.324 372.434 741.402 372.676C742.488 372.918 743.367 373.207 744.039 373.543C744.711 373.879 745.207 374.285 745.527 374.762C745.855 375.23 746.02 375.805 746.02 376.484C746.02 377.617 745.566 378.527 744.66 379.215C743.754 379.895 742.578 380.234 741.133 380.234C740.117 380.234 739.219 380.055 738.438 379.695C737.656 379.336 737.043 378.836 736.598 378.195C736.16 377.547 735.941 376.848 735.941 376.098H738.109C738.148 376.824 738.438 377.402 738.977 377.832C739.523 378.254 740.242 378.465 741.133 378.465C741.953 378.465 742.609 378.301 743.102 377.973C743.602 377.637 743.852 377.191 743.852 376.637Z" fill="black"/>
<path d="M680.278 286.243C680.278 285.843 680.342 285.475 680.47 285.139C680.614 284.787 680.806 284.483 681.046 284.227C681.286 283.971 681.574 283.771 681.91 283.627C682.262 283.483 682.646 283.411 683.062 283.411C683.478 283.411 683.854 283.483 684.19 283.627C684.542 283.771 684.838 283.971 685.078 284.227C685.318 284.483 685.502 284.787 685.63 285.139C685.774 285.475 685.846 285.843 685.846 286.243C685.846 287.043 685.59 287.715 685.078 288.259C684.566 288.787 683.894 289.051 683.062 289.051C682.23 289.051 681.558 288.787 681.046 288.259C680.534 287.715 680.278 287.043 680.278 286.243Z" fill="#0072B2"/>
<path d="M696.157 282.091H691.933V279.595H696.157V275.179H698.749V279.595H702.973V282.091H698.749V286.507H696.157V282.091Z" fill="#56CCF2"/>
<rect x="452" y="142" width="130" height="398" fill="#FFFAF5"/>
<path d="M467.402 209.547H460.254L458.648 214H456.328L462.844 196.938H464.812L471.34 214H469.031L467.402 209.547ZM460.934 207.695H466.734L463.828 199.715L460.934 207.695ZM475.348 201.32L475.418 202.914C476.387 201.695 477.652 201.086 479.215 201.086C481.895 201.086 483.246 202.598 483.27 205.621V214H481.102V205.609C481.094 204.695 480.883 204.02 480.469 203.582C480.062 203.145 479.426 202.926 478.559 202.926C477.855 202.926 477.238 203.113 476.707 203.488C476.176 203.863 475.762 204.355 475.465 204.965V214H473.297V201.32H475.348ZM490.688 210.824L493.641 201.32H495.961L490.863 215.957C490.074 218.066 488.82 219.121 487.102 219.121L486.691 219.086L485.883 218.934V217.176L486.469 217.223C487.203 217.223 487.773 217.074 488.18 216.777C488.594 216.48 488.934 215.938 489.199 215.148L489.68 213.859L485.156 201.32H487.523L490.688 210.824ZM468.867 239.012L471.305 229.32H473.473L469.781 242H468.023L464.941 232.391L461.941 242H460.184L456.504 229.32H458.66L461.156 238.812L464.109 229.32H465.855L468.867 239.012ZM477.855 230.855C478.816 229.676 480.066 229.086 481.605 229.086C484.285 229.086 485.637 230.598 485.66 233.621V242H483.492V233.609C483.484 232.695 483.273 232.02 482.859 231.582C482.453 231.145 481.816 230.926 480.949 230.926C480.246 230.926 479.629 231.113 479.098 231.488C478.566 231.863 478.152 232.355 477.855 232.965V242H475.688V224H477.855V230.855ZM491.262 242H489.094V229.32H491.262V242ZM488.918 225.957C488.918 225.605 489.023 225.309 489.234 225.066C489.453 224.824 489.773 224.703 490.195 224.703C490.617 224.703 490.938 224.824 491.156 225.066C491.375 225.309 491.484 225.605 491.484 225.957C491.484 226.309 491.375 226.602 491.156 226.836C490.938 227.07 490.617 227.188 490.195 227.188C489.773 227.188 489.453 227.07 489.234 226.836C489.023 226.602 488.918 226.309 488.918 225.957ZM497.684 226.25V229.32H500.051V230.996H497.684V238.859C497.684 239.367 497.789 239.75 498 240.008C498.211 240.258 498.57 240.383 499.078 240.383C499.328 240.383 499.672 240.336 500.109 240.242V242C499.539 242.156 498.984 242.234 498.445 242.234C497.477 242.234 496.746 241.941 496.254 241.355C495.762 240.77 495.516 239.938 495.516 238.859V230.996H493.207V229.32H495.516V226.25H497.684ZM507.855 242.234C506.137 242.234 504.738 241.672 503.66 240.547C502.582 239.414 502.043 237.902 502.043 236.012V235.613C502.043 234.355 502.281 233.234 502.758 232.25C503.242 231.258 503.914 230.484 504.773 229.93C505.641 229.367 506.578 229.086 507.586 229.086C509.234 229.086 510.516 229.629 511.43 230.715C512.344 231.801 512.801 233.355 512.801 235.379V236.281H504.211C504.242 237.531 504.605 238.543 505.301 239.316C506.004 240.082 506.895 240.465 507.973 240.465C508.738 240.465 509.387 240.309 509.918 239.996C510.449 239.684 510.914 239.27 511.312 238.754L512.637 239.785C511.574 241.418 509.98 242.234 507.855 242.234ZM507.586 230.867C506.711 230.867 505.977 231.188 505.383 231.828C504.789 232.461 504.422 233.352 504.281 234.5H510.633V234.336C510.57 233.234 510.273 232.383 509.742 231.781C509.211 231.172 508.492 230.867 507.586 230.867ZM522.703 238.637C522.703 238.051 522.48 237.598 522.035 237.277C521.598 236.949 520.828 236.668 519.727 236.434C518.633 236.199 517.762 235.918 517.113 235.59C516.473 235.262 515.996 234.871 515.684 234.418C515.379 233.965 515.227 233.426 515.227 232.801C515.227 231.762 515.664 230.883 516.539 230.164C517.422 229.445 518.547 229.086 519.914 229.086C521.352 229.086 522.516 229.457 523.406 230.199C524.305 230.941 524.754 231.891 524.754 233.047H522.574C522.574 232.453 522.32 231.941 521.812 231.512C521.312 231.082 520.68 230.867 519.914 230.867C519.125 230.867 518.508 231.039 518.062 231.383C517.617 231.727 517.395 232.176 517.395 232.73C517.395 233.254 517.602 233.648 518.016 233.914C518.43 234.18 519.176 234.434 520.254 234.676C521.34 234.918 522.219 235.207 522.891 235.543C523.562 235.879 524.059 236.285 524.379 236.762C524.707 237.23 524.871 237.805 524.871 238.484C524.871 239.617 524.418 240.527 523.512 241.215C522.605 241.895 521.43 242.234 519.984 242.234C518.969 242.234 518.07 242.055 517.289 241.695C516.508 241.336 515.895 240.836 515.449 240.195C515.012 239.547 514.793 238.848 514.793 238.098H516.961C517 238.824 517.289 239.402 517.828 239.832C518.375 240.254 519.094 240.465 519.984 240.465C520.805 240.465 521.461 240.301 521.953 239.973C522.453 239.637 522.703 239.191 522.703 238.637ZM538.406 235.801C538.406 237.73 537.965 239.285 537.082 240.465C536.199 241.645 535.004 242.234 533.496 242.234C531.957 242.234 530.746 241.746 529.863 240.77V246.875H527.695V229.32H529.676L529.781 230.727C530.664 229.633 531.891 229.086 533.461 229.086C534.984 229.086 536.188 229.66 537.07 230.809C537.961 231.957 538.406 233.555 538.406 235.602V235.801ZM536.238 235.555C536.238 234.125 535.934 232.996 535.324 232.168C534.715 231.34 533.879 230.926 532.816 230.926C531.504 230.926 530.52 231.508 529.863 232.672V238.73C530.512 239.887 531.504 240.465 532.84 240.465C533.879 240.465 534.703 240.055 535.312 239.234C535.93 238.406 536.238 237.18 536.238 235.555ZM549 242C548.875 241.75 548.773 241.305 548.695 240.664C547.688 241.711 546.484 242.234 545.086 242.234C543.836 242.234 542.809 241.883 542.004 241.18C541.207 240.469 540.809 239.57 540.809 238.484C540.809 237.164 541.309 236.141 542.309 235.414C543.316 234.68 544.73 234.312 546.551 234.312H548.66V233.316C548.66 232.559 548.434 231.957 547.98 231.512C547.527 231.059 546.859 230.832 545.977 230.832C545.203 230.832 544.555 231.027 544.031 231.418C543.508 231.809 543.246 232.281 543.246 232.836H541.066C541.066 232.203 541.289 231.594 541.734 231.008C542.188 230.414 542.797 229.945 543.562 229.602C544.336 229.258 545.184 229.086 546.105 229.086C547.566 229.086 548.711 229.453 549.539 230.188C550.367 230.914 550.797 231.918 550.828 233.199V239.035C550.828 240.199 550.977 241.125 551.273 241.812V242H549ZM545.402 240.348C546.082 240.348 546.727 240.172 547.336 239.82C547.945 239.469 548.387 239.012 548.66 238.449V235.848H546.961C544.305 235.848 542.977 236.625 542.977 238.18C542.977 238.859 543.203 239.391 543.656 239.773C544.109 240.156 544.691 240.348 545.402 240.348ZM559.312 240.465C560.086 240.465 560.762 240.23 561.34 239.762C561.918 239.293 562.238 238.707 562.301 238.004H564.352C564.312 238.73 564.062 239.422 563.602 240.078C563.141 240.734 562.523 241.258 561.75 241.648C560.984 242.039 560.172 242.234 559.312 242.234C557.586 242.234 556.211 241.66 555.188 240.512C554.172 239.355 553.664 237.777 553.664 235.777V235.414C553.664 234.18 553.891 233.082 554.344 232.121C554.797 231.16 555.445 230.414 556.289 229.883C557.141 229.352 558.145 229.086 559.301 229.086C560.723 229.086 561.902 229.512 562.84 230.363C563.785 231.215 564.289 232.32 564.352 233.68H562.301C562.238 232.859 561.926 232.188 561.363 231.664C560.809 231.133 560.121 230.867 559.301 230.867C558.199 230.867 557.344 231.266 556.734 232.062C556.133 232.852 555.832 233.996 555.832 235.496V235.906C555.832 237.367 556.133 238.492 556.734 239.281C557.336 240.07 558.195 240.465 559.312 240.465ZM572.051 242.234C570.332 242.234 568.934 241.672 567.855 240.547C566.777 239.414 566.238 237.902 566.238 236.012V235.613C566.238 234.355 566.477 233.234 566.953 232.25C567.438 231.258 568.109 230.484 568.969 229.93C569.836 229.367 570.773 229.086 571.781 229.086C573.43 229.086 574.711 229.629 575.625 230.715C576.539 231.801 576.996 233.355 576.996 235.379V236.281H568.406C568.438 237.531 568.801 238.543 569.496 239.316C570.199 240.082 571.09 240.465 572.168 240.465C572.934 240.465 573.582 240.309 574.113 239.996C574.645 239.684 575.109 239.27 575.508 238.754L576.832 239.785C575.77 241.418 574.176 242.234 572.051 242.234ZM571.781 230.867C570.906 230.867 570.172 231.188 569.578 231.828C568.984 232.461 568.617 233.352 568.477 234.5H574.828V234.336C574.766 233.234 574.469 232.383 573.938 231.781C573.406 231.172 572.688 230.867 571.781 230.867ZM462.727 268.465C463.5 268.465 464.176 268.23 464.754 267.762C465.332 267.293 465.652 266.707 465.715 266.004H467.766C467.727 266.73 467.477 267.422 467.016 268.078C466.555 268.734 465.938 269.258 465.164 269.648C464.398 270.039 463.586 270.234 462.727 270.234C461 270.234 459.625 269.66 458.602 268.512C457.586 267.355 457.078 265.777 457.078 263.777V263.414C457.078 262.18 457.305 261.082 457.758 260.121C458.211 259.16 458.859 258.414 459.703 257.883C460.555 257.352 461.559 257.086 462.715 257.086C464.137 257.086 465.316 257.512 466.254 258.363C467.199 259.215 467.703 260.32 467.766 261.68H465.715C465.652 260.859 465.34 260.188 464.777 259.664C464.223 259.133 463.535 258.867 462.715 258.867C461.613 258.867 460.758 259.266 460.148 260.062C459.547 260.852 459.246 261.996 459.246 263.496V263.906C459.246 265.367 459.547 266.492 460.148 267.281C460.75 268.07 461.609 268.465 462.727 268.465ZM472.371 258.855C473.332 257.676 474.582 257.086 476.121 257.086C478.801 257.086 480.152 258.598 480.176 261.621V270H478.008V261.609C478 260.695 477.789 260.02 477.375 259.582C476.969 259.145 476.332 258.926 475.465 258.926C474.762 258.926 474.145 259.113 473.613 259.488C473.082 259.863 472.668 260.355 472.371 260.965V270H470.203V252H472.371V258.855ZM491.25 270C491.125 269.75 491.023 269.305 490.945 268.664C489.938 269.711 488.734 270.234 487.336 270.234C486.086 270.234 485.059 269.883 484.254 269.18C483.457 268.469 483.059 267.57 483.059 266.484C483.059 265.164 483.559 264.141 484.559 263.414C485.566 262.68 486.98 262.312 488.801 262.312H490.91V261.316C490.91 260.559 490.684 259.957 490.23 259.512C489.777 259.059 489.109 258.832 488.227 258.832C487.453 258.832 486.805 259.027 486.281 259.418C485.758 259.809 485.496 260.281 485.496 260.836H483.316C483.316 260.203 483.539 259.594 483.984 259.008C484.438 258.414 485.047 257.945 485.812 257.602C486.586 257.258 487.434 257.086 488.355 257.086C489.816 257.086 490.961 257.453 491.789 258.188C492.617 258.914 493.047 259.918 493.078 261.199V267.035C493.078 268.199 493.227 269.125 493.523 269.812V270H491.25ZM487.652 268.348C488.332 268.348 488.977 268.172 489.586 267.82C490.195 267.469 490.637 267.012 490.91 266.449V263.848H489.211C486.555 263.848 485.227 264.625 485.227 266.18C485.227 266.859 485.453 267.391 485.906 267.773C486.359 268.156 486.941 268.348 487.652 268.348ZM502.605 259.266C502.277 259.211 501.922 259.184 501.539 259.184C500.117 259.184 499.152 259.789 498.645 261V270H496.477V257.32H498.586L498.621 258.785C499.332 257.652 500.34 257.086 501.645 257.086C502.066 257.086 502.387 257.141 502.605 257.25V259.266ZM511.969 270C511.844 269.75 511.742 269.305 511.664 268.664C510.656 269.711 509.453 270.234 508.055 270.234C506.805 270.234 505.777 269.883 504.973 269.18C504.176 268.469 503.777 267.57 503.777 266.484C503.777 265.164 504.277 264.141 505.277 263.414C506.285 262.68 507.699 262.312 509.52 262.312H511.629V261.316C511.629 260.559 511.402 259.957 510.949 259.512C510.496 259.059 509.828 258.832 508.945 258.832C508.172 258.832 507.523 259.027 507 259.418C506.477 259.809 506.215 260.281 506.215 260.836H504.035C504.035 260.203 504.258 259.594 504.703 259.008C505.156 258.414 505.766 257.945 506.531 257.602C507.305 257.258 508.152 257.086 509.074 257.086C510.535 257.086 511.68 257.453 512.508 258.188C513.336 258.914 513.766 259.918 513.797 261.199V267.035C513.797 268.199 513.945 269.125 514.242 269.812V270H511.969ZM508.371 268.348C509.051 268.348 509.695 268.172 510.305 267.82C510.914 267.469 511.355 267.012 511.629 266.449V263.848H509.93C507.273 263.848 505.945 264.625 505.945 266.18C505.945 266.859 506.172 267.391 506.625 267.773C507.078 268.156 507.66 268.348 508.371 268.348ZM522.281 268.465C523.055 268.465 523.73 268.23 524.309 267.762C524.887 267.293 525.207 266.707 525.27 266.004H527.32C527.281 266.73 527.031 267.422 526.57 268.078C526.109 268.734 525.492 269.258 524.719 269.648C523.953 270.039 523.141 270.234 522.281 270.234C520.555 270.234 519.18 269.66 518.156 268.512C517.141 267.355 516.633 265.777 516.633 263.777V263.414C516.633 262.18 516.859 261.082 517.312 260.121C517.766 259.16 518.414 258.414 519.258 257.883C520.109 257.352 521.113 257.086 522.27 257.086C523.691 257.086 524.871 257.512 525.809 258.363C526.754 259.215 527.258 260.32 527.32 261.68H525.27C525.207 260.859 524.895 260.188 524.332 259.664C523.777 259.133 523.09 258.867 522.27 258.867C521.168 258.867 520.312 259.266 519.703 260.062C519.102 260.852 518.801 261.996 518.801 263.496V263.906C518.801 265.367 519.102 266.492 519.703 267.281C520.305 268.07 521.164 268.465 522.281 268.465ZM532.699 254.25V257.32H535.066V258.996H532.699V266.859C532.699 267.367 532.805 267.75 533.016 268.008C533.227 268.258 533.586 268.383 534.094 268.383C534.344 268.383 534.688 268.336 535.125 268.242V270C534.555 270.156 534 270.234 533.461 270.234C532.492 270.234 531.762 269.941 531.27 269.355C530.777 268.77 530.531 267.938 530.531 266.859V258.996H528.223V257.32H530.531V254.25H532.699ZM542.871 270.234C541.152 270.234 539.754 269.672 538.676 268.547C537.598 267.414 537.059 265.902 537.059 264.012V263.613C537.059 262.355 537.297 261.234 537.773 260.25C538.258 259.258 538.93 258.484 539.789 257.93C540.656 257.367 541.594 257.086 542.602 257.086C544.25 257.086 545.531 257.629 546.445 258.715C547.359 259.801 547.816 261.355 547.816 263.379V264.281H539.227C539.258 265.531 539.621 266.543 540.316 267.316C541.02 268.082 541.91 268.465 542.988 268.465C543.754 268.465 544.402 268.309 544.934 267.996C545.465 267.684 545.93 267.27 546.328 266.754L547.652 267.785C546.59 269.418 544.996 270.234 542.871 270.234ZM542.602 258.867C541.727 258.867 540.992 259.188 540.398 259.828C539.805 260.461 539.438 261.352 539.297 262.5H545.648V262.336C545.586 261.234 545.289 260.383 544.758 259.781C544.227 259.172 543.508 258.867 542.602 258.867ZM556.465 259.266C556.137 259.211 555.781 259.184 555.398 259.184C553.977 259.184 553.012 259.789 552.504 261V270H550.336V257.32H552.445L552.48 258.785C553.191 257.652 554.199 257.086 555.504 257.086C555.926 257.086 556.246 257.141 556.465 257.25V259.266Z" fill="black"/>
<path d="M502.587 159.683H505.785L514.339 182.303H511.141L502.587 159.683ZM519.347 174.087C520.092 174.555 520.838 174.928 521.583 175.205C522.346 175.482 523.16 175.621 524.027 175.621C524.911 175.621 525.544 175.526 525.925 175.335C526.306 175.144 526.497 174.876 526.497 174.529C526.497 174.13 526.176 173.81 525.535 173.567C524.911 173.307 524.079 173.03 523.039 172.735C522.467 172.579 521.904 172.397 521.349 172.189C520.812 171.964 520.326 171.704 519.893 171.409C519.46 171.097 519.104 170.742 518.827 170.343C518.567 169.944 518.437 169.485 518.437 168.965C518.437 168.376 518.576 167.83 518.853 167.327C519.13 166.824 519.52 166.4 520.023 166.053C520.543 165.706 521.167 165.438 521.895 165.247C522.64 165.039 523.472 164.935 524.391 164.935C525.535 164.935 526.575 165.126 527.511 165.507C528.464 165.871 529.279 166.27 529.955 166.703L528.239 168.991C527.65 168.644 527.043 168.358 526.419 168.133C525.795 167.89 525.145 167.769 524.469 167.769C523.654 167.769 523.074 167.856 522.727 168.029C522.398 168.202 522.233 168.454 522.233 168.783C522.233 168.974 522.32 169.147 522.493 169.303C522.666 169.459 522.9 169.598 523.195 169.719C523.49 169.84 523.836 169.962 524.235 170.083C524.651 170.187 525.084 170.3 525.535 170.421C526.176 170.594 526.783 170.794 527.355 171.019C527.927 171.227 528.43 171.478 528.863 171.773C529.296 172.068 529.643 172.423 529.903 172.839C530.163 173.255 530.293 173.74 530.293 174.295C530.293 174.884 530.154 175.43 529.877 175.933C529.6 176.436 529.192 176.878 528.655 177.259C528.135 177.623 527.476 177.918 526.679 178.143C525.899 178.351 524.989 178.455 523.949 178.455C522.788 178.455 521.652 178.264 520.543 177.883C519.434 177.502 518.463 177.034 517.631 176.479L519.347 174.087Z" fill="#0072B2"/>
<path d="M328 12H697.063V60H328V12Z" fill="#F1F4F8"/>
<path d="M454.213 48.248C452.597 46.904 451.317 45.32 450.373 43.496C449.445 41.672 448.981 39.616 448.981 37.328C448.981 35.04 449.445 32.984 450.373 31.16C451.317 29.336 452.597 27.752 454.213 26.408L455.749 27.68C454.229 29.056 453.117 30.52 452.413 32.072C451.709 33.624 451.357 35.376 451.357 37.328C451.357 39.28 451.709 41.032 452.413 42.584C453.117 44.136 454.229 45.6 455.749 46.976L454.213 48.248ZM490.473 46.976C491.993 45.6 493.105 44.136 493.809 42.584C494.513 41.032 494.865 39.28 494.865 37.328C494.865 35.376 494.513 33.624 493.809 32.072C493.105 30.52 491.993 29.056 490.473 27.68L492.009 26.408C493.625 27.752 494.897 29.336 495.825 31.16C496.769 32.984 497.241 35.04 497.241 37.328C497.241 39.616 496.769 41.672 495.825 43.496C494.897 45.32 493.625 46.904 492.009 48.248L490.473 46.976ZM540.557 48.248C538.941 46.904 537.661 45.32 536.717 43.496C535.789 41.672 535.325 39.616 535.325 37.328C535.325 35.04 535.789 32.984 536.717 31.16C537.661 29.336 538.941 27.752 540.557 26.408L542.093 27.68C540.573 29.056 539.461 30.52 538.757 32.072C538.053 33.624 537.701 35.376 537.701 37.328C537.701 39.28 538.053 41.032 538.757 42.584C539.461 44.136 540.573 45.6 542.093 46.976L540.557 48.248ZM576.817 46.976C578.337 45.6 579.449 44.136 580.153 42.584C580.857 41.032 581.209 39.28 581.209 37.328C581.209 35.376 580.857 33.624 580.153 32.072C579.449 30.52 578.337 29.056 576.817 27.68L578.353 26.408C579.969 27.752 581.241 29.336 582.169 31.16C583.113 32.984 583.585 35.04 583.585 37.328C583.585 39.616 583.113 41.672 582.169 43.496C581.241 45.32 579.969 46.904 578.353 48.248L576.817 46.976Z" fill="#D55E00"/>
<path d="M463.54 41.864C463.54 41.16 463.764 40.584 464.212 40.136C464.66 39.672 465.228 39.44 465.916 39.44C466.604 39.44 467.172 39.672 467.62 40.136C468.068 40.584 468.292 41.16 468.292 41.864C468.292 42.568 468.068 43.152 467.62 43.616C467.172 44.064 466.604 44.288 465.916 44.288C465.228 44.288 464.66 44.064 464.212 43.616C463.764 43.152 463.54 42.568 463.54 41.864ZM503.952 26.96H506.328L514.224 47.84H511.848L503.952 26.96ZM519.063 40.712C519.735 41.176 520.431 41.544 521.151 41.816C521.887 42.072 522.711 42.2 523.623 42.2C524.551 42.2 525.231 42.072 525.663 41.816C526.095 41.544 526.311 41.2 526.311 40.784C526.311 40.368 526.031 40.024 525.471 39.752C524.911 39.464 524.031 39.16 522.831 38.84C522.271 38.696 521.727 38.52 521.199 38.312C520.671 38.104 520.207 37.864 519.807 37.592C519.407 37.32 519.087 37.008 518.847 36.656C518.607 36.304 518.487 35.904 518.487 35.456C518.487 34.416 518.935 33.568 519.831 32.912C520.727 32.256 522.015 31.928 523.695 31.928C524.655 31.928 525.559 32.088 526.407 32.408C527.255 32.728 527.983 33.088 528.591 33.488L527.319 35.192C526.791 34.84 526.223 34.56 525.615 34.352C525.023 34.128 524.391 34.016 523.719 34.016C522.807 34.016 522.167 34.144 521.799 34.4C521.431 34.64 521.247 34.944 521.247 35.312C521.247 35.52 521.327 35.712 521.487 35.888C521.663 36.048 521.895 36.2 522.183 36.344C522.487 36.472 522.839 36.6 523.239 36.728C523.639 36.856 524.079 36.976 524.559 37.088C525.247 37.264 525.863 37.464 526.407 37.688C526.967 37.896 527.439 38.136 527.823 38.408C528.223 38.68 528.527 39 528.735 39.368C528.959 39.736 529.071 40.16 529.071 40.64C529.071 41.152 528.951 41.632 528.711 42.08C528.471 42.512 528.119 42.896 527.655 43.232C527.191 43.552 526.615 43.808 525.927 44C525.239 44.192 524.447 44.288 523.551 44.288C522.447 44.288 521.391 44.112 520.383 43.76C519.375 43.408 518.503 42.976 517.767 42.464L519.063 40.712ZM549.884 41.864C549.884 41.16 550.108 40.584 550.556 40.136C551.004 39.672 551.572 39.44 552.26 39.44C552.948 39.44 553.516 39.672 553.964 40.136C554.412 40.584 554.636 41.16 554.636 41.864C554.636 42.568 554.412 43.152 553.964 43.616C553.516 44.064 552.948 44.288 552.26 44.288C551.572 44.288 551.004 44.064 550.556 43.616C550.108 43.152 549.884 42.568 549.884 41.864Z" fill="#0072B2"/>
<path d="M479.251 37.088H474.979V35.072H479.251V30.536H481.363V35.072H485.635V37.088H481.363V41.624H479.251V37.088ZM565.594 37.088H561.322V35.072H565.594V30.536H567.706V35.072H571.978V37.088H567.706V41.624H565.594V37.088Z" fill="#56CCF2"/>
</svg>
