<svg width="674" height="542" viewBox="0 0 674 542" fill="none" xmlns="http://www.w3.org/2000/svg">
<rect width="337" height="271" transform="scale(2)" fill="white"/>
<rect x="178" y="128" width="90" height="56" stroke="black"/>
<path d="M191.346 145.625V149.207H194.107V151.162H191.346V160.336C191.346 160.928 191.469 161.375 191.715 161.676C191.961 161.967 192.38 162.113 192.973 162.113C193.264 162.113 193.665 162.059 194.176 161.949V164C193.51 164.182 192.863 164.273 192.234 164.273C191.104 164.273 190.252 163.932 189.678 163.248C189.104 162.564 188.816 161.594 188.816 160.336V151.162H186.123V149.207H188.816V145.625H191.346ZM199.604 150.998C200.725 149.622 202.183 148.934 203.979 148.934C207.105 148.934 208.682 150.697 208.709 154.225V164H206.18V154.211C206.171 153.145 205.924 152.356 205.441 151.846C204.967 151.335 204.225 151.08 203.213 151.08C202.393 151.08 201.673 151.299 201.053 151.736C200.433 152.174 199.95 152.748 199.604 153.459V164H197.074V143H199.604V150.998ZM219.646 151.477C219.264 151.413 218.849 151.381 218.402 151.381C216.743 151.381 215.618 152.087 215.025 153.5V164H212.496V149.207H214.957L214.998 150.916C215.827 149.594 217.003 148.934 218.525 148.934C219.018 148.934 219.391 148.997 219.646 149.125V151.477ZM227.85 164.273C225.844 164.273 224.213 163.617 222.955 162.305C221.697 160.983 221.068 159.219 221.068 157.014V156.549C221.068 155.081 221.346 153.773 221.902 152.625C222.467 151.467 223.251 150.565 224.254 149.918C225.266 149.262 226.359 148.934 227.535 148.934C229.458 148.934 230.953 149.567 232.02 150.834C233.086 152.101 233.619 153.915 233.619 156.275V157.328H223.598C223.634 158.786 224.058 159.967 224.869 160.869C225.689 161.762 226.729 162.209 227.986 162.209C228.88 162.209 229.636 162.027 230.256 161.662C230.876 161.298 231.418 160.814 231.883 160.213L233.428 161.416C232.188 163.321 230.329 164.273 227.85 164.273ZM227.535 151.012C226.514 151.012 225.658 151.385 224.965 152.133C224.272 152.871 223.844 153.91 223.68 155.25H231.09V155.059C231.017 153.773 230.671 152.78 230.051 152.078C229.431 151.367 228.592 151.012 227.535 151.012ZM242.697 164.273C240.692 164.273 239.061 163.617 237.803 162.305C236.545 160.983 235.916 159.219 235.916 157.014V156.549C235.916 155.081 236.194 153.773 236.75 152.625C237.315 151.467 238.099 150.565 239.102 149.918C240.113 149.262 241.207 148.934 242.383 148.934C244.306 148.934 245.801 149.567 246.867 150.834C247.934 152.101 248.467 153.915 248.467 156.275V157.328H238.445C238.482 158.786 238.906 159.967 239.717 160.869C240.537 161.762 241.576 162.209 242.834 162.209C243.727 162.209 244.484 162.027 245.104 161.662C245.723 161.298 246.266 160.814 246.73 160.213L248.275 161.416C247.036 163.321 245.176 164.273 242.697 164.273ZM242.383 151.012C241.362 151.012 240.505 151.385 239.812 152.133C239.12 152.871 238.691 153.91 238.527 155.25H245.938V155.059C245.865 153.773 245.518 152.78 244.898 152.078C244.279 151.367 243.44 151.012 242.383 151.012Z" fill="#2E383C"/>
<rect x="178" y="70" width="90" height="58" stroke="black"/>
<path d="M191.346 87.625V91.207H194.107V93.1621H191.346V102.336C191.346 102.928 191.469 103.375 191.715 103.676C191.961 103.967 192.38 104.113 192.973 104.113C193.264 104.113 193.665 104.059 194.176 103.949V106C193.51 106.182 192.863 106.273 192.234 106.273C191.104 106.273 190.252 105.932 189.678 105.248C189.104 104.564 188.816 103.594 188.816 102.336V93.1621H186.123V91.207H188.816V87.625H191.346ZM210.172 102.514L213.016 91.207H215.545L211.238 106H209.188L205.592 94.7891L202.092 106H200.041L195.748 91.207H198.264L201.176 102.281L204.621 91.207H206.658L210.172 102.514ZM217.459 98.4668C217.459 97.0176 217.742 95.7142 218.307 94.5566C218.881 93.3991 219.674 92.5059 220.686 91.877C221.706 91.248 222.868 90.9336 224.172 90.9336C226.186 90.9336 227.813 91.6309 229.053 93.0254C230.301 94.4199 230.926 96.2747 230.926 98.5898V98.7676C230.926 100.208 230.648 101.502 230.092 102.65C229.545 103.79 228.757 104.678 227.727 105.316C226.706 105.954 225.53 106.273 224.199 106.273C222.194 106.273 220.567 105.576 219.318 104.182C218.079 102.787 217.459 100.941 217.459 98.6445V98.4668ZM220.002 98.7676C220.002 100.408 220.38 101.725 221.137 102.719C221.902 103.712 222.923 104.209 224.199 104.209C225.484 104.209 226.505 103.708 227.262 102.705C228.018 101.693 228.396 100.281 228.396 98.4668C228.396 96.8444 228.009 95.5319 227.234 94.5293C226.469 93.5176 225.448 93.0117 224.172 93.0117C222.923 93.0117 221.916 93.5085 221.15 94.502C220.385 95.4954 220.002 96.9173 220.002 98.7676Z" fill="#2E383C"/>
<rect x="178" y="12" width="90" height="58" stroke="black"/>
<path d="M187.244 42.4668C187.244 41.0176 187.527 39.7142 188.092 38.5566C188.666 37.3991 189.459 36.5059 190.471 35.877C191.492 35.248 192.654 34.9336 193.957 34.9336C195.971 34.9336 197.598 35.6309 198.838 37.0254C200.087 38.4199 200.711 40.2747 200.711 42.5898V42.7676C200.711 44.2077 200.433 45.502 199.877 46.6504C199.33 47.7897 198.542 48.6784 197.512 49.3164C196.491 49.9544 195.315 50.2734 193.984 50.2734C191.979 50.2734 190.352 49.5762 189.104 48.1816C187.864 46.7871 187.244 44.9414 187.244 42.6445V42.4668ZM189.787 42.7676C189.787 44.4082 190.165 45.7253 190.922 46.7188C191.688 47.7122 192.708 48.209 193.984 48.209C195.27 48.209 196.29 47.7077 197.047 46.7051C197.803 45.6934 198.182 44.2806 198.182 42.4668C198.182 40.8444 197.794 39.5319 197.02 38.5293C196.254 37.5176 195.233 37.0117 193.957 37.0117C192.708 37.0117 191.701 37.5085 190.936 38.502C190.17 39.4954 189.787 40.9173 189.787 42.7676ZM206.275 35.207L206.357 37.0664C207.488 35.6445 208.964 34.9336 210.787 34.9336C213.913 34.9336 215.49 36.6973 215.518 40.2246V50H212.988V40.2109C212.979 39.1445 212.733 38.3561 212.25 37.8457C211.776 37.3353 211.033 37.0801 210.021 37.0801C209.201 37.0801 208.481 37.2988 207.861 37.7363C207.242 38.1738 206.758 38.748 206.412 39.459V50H203.883V35.207H206.275ZM225.471 50.2734C223.465 50.2734 221.834 49.6172 220.576 48.3047C219.318 46.9831 218.689 45.2194 218.689 43.0137V42.5488C218.689 41.0814 218.967 39.7734 219.523 38.625C220.089 37.4674 220.872 36.5651 221.875 35.918C222.887 35.2617 223.98 34.9336 225.156 34.9336C227.079 34.9336 228.574 35.5671 229.641 36.834C230.707 38.1009 231.24 39.9147 231.24 42.2754V43.3281H221.219C221.255 44.7865 221.679 45.9668 222.49 46.8691C223.311 47.7624 224.35 48.209 225.607 48.209C226.501 48.209 227.257 48.0267 227.877 47.6621C228.497 47.2975 229.039 46.8145 229.504 46.2129L231.049 47.416C229.809 49.321 227.95 50.2734 225.471 50.2734ZM225.156 37.0117C224.135 37.0117 223.279 37.3854 222.586 38.1328C221.893 38.8711 221.465 39.9102 221.301 41.25H228.711V41.0586C228.638 39.7734 228.292 38.7799 227.672 38.0781C227.052 37.3672 226.214 37.0117 225.156 37.0117Z" fill="#2E383C"/>
<rect x="178" y="300" width="90" height="56" stroke="black"/>
<path d="M196.527 332.076C196.527 331.393 196.268 330.864 195.748 330.49C195.238 330.107 194.34 329.779 193.055 329.506C191.779 329.232 190.762 328.904 190.006 328.521C189.258 328.139 188.702 327.683 188.338 327.154C187.982 326.626 187.805 325.997 187.805 325.268C187.805 324.055 188.315 323.03 189.336 322.191C190.366 321.353 191.678 320.934 193.273 320.934C194.951 320.934 196.309 321.367 197.348 322.232C198.396 323.098 198.92 324.206 198.92 325.555H196.377C196.377 324.862 196.081 324.265 195.488 323.764C194.905 323.262 194.167 323.012 193.273 323.012C192.353 323.012 191.633 323.212 191.113 323.613C190.594 324.014 190.334 324.538 190.334 325.186C190.334 325.796 190.576 326.257 191.059 326.566C191.542 326.876 192.412 327.173 193.67 327.455C194.937 327.738 195.962 328.075 196.746 328.467C197.53 328.859 198.109 329.333 198.482 329.889C198.865 330.436 199.057 331.105 199.057 331.898C199.057 333.22 198.528 334.282 197.471 335.084C196.413 335.877 195.042 336.273 193.355 336.273C192.171 336.273 191.122 336.064 190.211 335.645C189.299 335.225 188.584 334.642 188.064 333.895C187.554 333.138 187.299 332.322 187.299 331.447H189.828C189.874 332.295 190.211 332.969 190.84 333.471C191.478 333.963 192.316 334.209 193.355 334.209C194.312 334.209 195.078 334.018 195.652 333.635C196.236 333.243 196.527 332.723 196.527 332.076ZM205.1 336H202.57V321.207H205.1V336ZM202.365 317.283C202.365 316.873 202.488 316.527 202.734 316.244C202.99 315.962 203.363 315.82 203.855 315.82C204.348 315.82 204.721 315.962 204.977 316.244C205.232 316.527 205.359 316.873 205.359 317.283C205.359 317.693 205.232 318.035 204.977 318.309C204.721 318.582 204.348 318.719 203.855 318.719C203.363 318.719 202.99 318.582 202.734 318.309C202.488 318.035 202.365 317.693 202.365 317.283ZM214.123 326.607L217.404 321.207H220.357L215.518 328.521L220.508 336H217.582L214.164 330.463L210.746 336H207.807L212.797 328.521L207.957 321.207H210.883L214.123 326.607Z" fill="#2E383C"/>
<rect x="178" y="242" width="90" height="58" stroke="black"/>
<path d="M189.158 278V265.162H186.82V263.207H189.158V261.689C189.158 260.104 189.582 258.878 190.43 258.012C191.277 257.146 192.476 256.713 194.025 256.713C194.609 256.713 195.188 256.79 195.762 256.945L195.625 258.996C195.197 258.914 194.741 258.873 194.258 258.873C193.438 258.873 192.804 259.115 192.357 259.598C191.911 260.072 191.688 260.755 191.688 261.648V263.207H194.846V265.162H191.688V278H189.158ZM196.979 270.467C196.979 269.018 197.261 267.714 197.826 266.557C198.4 265.399 199.193 264.506 200.205 263.877C201.226 263.248 202.388 262.934 203.691 262.934C205.706 262.934 207.333 263.631 208.572 265.025C209.821 266.42 210.445 268.275 210.445 270.59V270.768C210.445 272.208 210.167 273.502 209.611 274.65C209.064 275.79 208.276 276.678 207.246 277.316C206.225 277.954 205.049 278.273 203.719 278.273C201.714 278.273 200.087 277.576 198.838 276.182C197.598 274.787 196.979 272.941 196.979 270.645V270.467ZM199.521 270.768C199.521 272.408 199.9 273.725 200.656 274.719C201.422 275.712 202.443 276.209 203.719 276.209C205.004 276.209 206.025 275.708 206.781 274.705C207.538 273.693 207.916 272.281 207.916 270.467C207.916 268.844 207.529 267.532 206.754 266.529C205.988 265.518 204.967 265.012 203.691 265.012C202.443 265.012 201.436 265.508 200.67 266.502C199.904 267.495 199.521 268.917 199.521 270.768ZM222.75 276.537C221.766 277.695 220.321 278.273 218.416 278.273C216.839 278.273 215.636 277.818 214.807 276.906C213.986 275.986 213.572 274.628 213.562 272.832V263.207H216.092V272.764C216.092 275.006 217.003 276.127 218.826 276.127C220.758 276.127 222.044 275.407 222.682 273.967V263.207H225.211V278H222.805L222.75 276.537ZM236.217 265.477C235.834 265.413 235.419 265.381 234.973 265.381C233.314 265.381 232.188 266.087 231.596 267.5V278H229.066V263.207H231.527L231.568 264.916C232.398 263.594 233.574 262.934 235.096 262.934C235.588 262.934 235.962 262.997 236.217 263.125V265.477Z" fill="#2E383C"/>
<rect x="178" y="184" width="90" height="58" stroke="black"/>
<path d="M191.346 203.625V207.207H194.107V209.162H191.346V218.336C191.346 218.928 191.469 219.375 191.715 219.676C191.961 219.967 192.38 220.113 192.973 220.113C193.264 220.113 193.665 220.059 194.176 219.949V222C193.51 222.182 192.863 222.273 192.234 222.273C191.104 222.273 190.252 221.932 189.678 221.248C189.104 220.564 188.816 219.594 188.816 218.336V209.162H186.123V207.207H188.816V203.625H191.346ZM210.172 218.514L213.016 207.207H215.545L211.238 222H209.188L205.592 210.789L202.092 222H200.041L195.748 207.207H198.264L201.176 218.281L204.621 207.207H206.658L210.172 218.514ZM217.459 214.467C217.459 213.018 217.742 211.714 218.307 210.557C218.881 209.399 219.674 208.506 220.686 207.877C221.706 207.248 222.868 206.934 224.172 206.934C226.186 206.934 227.813 207.631 229.053 209.025C230.301 210.42 230.926 212.275 230.926 214.59V214.768C230.926 216.208 230.648 217.502 230.092 218.65C229.545 219.79 228.757 220.678 227.727 221.316C226.706 221.954 225.53 222.273 224.199 222.273C222.194 222.273 220.567 221.576 219.318 220.182C218.079 218.787 217.459 216.941 217.459 214.645V214.467ZM220.002 214.768C220.002 216.408 220.38 217.725 221.137 218.719C221.902 219.712 222.923 220.209 224.199 220.209C225.484 220.209 226.505 219.708 227.262 218.705C228.018 217.693 228.396 216.281 228.396 214.467C228.396 212.844 228.009 211.532 227.234 210.529C226.469 209.518 225.448 209.012 224.172 209.012C222.923 209.012 221.916 209.508 221.15 210.502C220.385 211.495 220.002 212.917 220.002 214.768Z" fill="#2E383C"/>
<rect x="178" y="472" width="90" height="56" stroke="black"/>
<path d="M190.307 493.207L190.389 495.066C191.519 493.645 192.995 492.934 194.818 492.934C197.945 492.934 199.521 494.697 199.549 498.225V508H197.02V498.211C197.01 497.145 196.764 496.356 196.281 495.846C195.807 495.335 195.064 495.08 194.053 495.08C193.232 495.08 192.512 495.299 191.893 495.736C191.273 496.174 190.79 496.748 190.443 497.459V508H187.914V493.207H190.307ZM206.111 508H203.582V493.207H206.111V508ZM203.377 489.283C203.377 488.873 203.5 488.527 203.746 488.244C204.001 487.962 204.375 487.82 204.867 487.82C205.359 487.82 205.733 487.962 205.988 488.244C206.243 488.527 206.371 488.873 206.371 489.283C206.371 489.693 206.243 490.035 205.988 490.309C205.733 490.582 205.359 490.719 204.867 490.719C204.375 490.719 204.001 490.582 203.746 490.309C203.5 490.035 203.377 489.693 203.377 489.283ZM212.564 493.207L212.646 495.066C213.777 493.645 215.253 492.934 217.076 492.934C220.202 492.934 221.779 494.697 221.807 498.225V508H219.277V498.211C219.268 497.145 219.022 496.356 218.539 495.846C218.065 495.335 217.322 495.08 216.311 495.08C215.49 495.08 214.77 495.299 214.15 495.736C213.531 496.174 213.048 496.748 212.701 497.459V508H210.172V493.207H212.564ZM231.76 508.273C229.755 508.273 228.123 507.617 226.865 506.305C225.607 504.983 224.979 503.219 224.979 501.014V500.549C224.979 499.081 225.257 497.773 225.812 496.625C226.378 495.467 227.161 494.565 228.164 493.918C229.176 493.262 230.27 492.934 231.445 492.934C233.368 492.934 234.863 493.567 235.93 494.834C236.996 496.101 237.529 497.915 237.529 500.275V501.328H227.508C227.544 502.786 227.968 503.967 228.779 504.869C229.6 505.762 230.639 506.209 231.896 506.209C232.79 506.209 233.546 506.027 234.166 505.662C234.786 505.298 235.328 504.814 235.793 504.213L237.338 505.416C236.098 507.321 234.239 508.273 231.76 508.273ZM231.445 495.012C230.424 495.012 229.568 495.385 228.875 496.133C228.182 496.871 227.754 497.91 227.59 499.25H235V499.059C234.927 497.773 234.581 496.78 233.961 496.078C233.341 495.367 232.503 495.012 231.445 495.012Z" fill="#2E383C"/>
<rect x="178" y="414" width="90" height="58" stroke="black"/>
<path d="M196.527 446.076C196.527 445.393 196.268 444.864 195.748 444.49C195.238 444.107 194.34 443.779 193.055 443.506C191.779 443.232 190.762 442.904 190.006 442.521C189.258 442.139 188.702 441.683 188.338 441.154C187.982 440.626 187.805 439.997 187.805 439.268C187.805 438.055 188.315 437.03 189.336 436.191C190.366 435.353 191.678 434.934 193.273 434.934C194.951 434.934 196.309 435.367 197.348 436.232C198.396 437.098 198.92 438.206 198.92 439.555H196.377C196.377 438.862 196.081 438.265 195.488 437.764C194.905 437.262 194.167 437.012 193.273 437.012C192.353 437.012 191.633 437.212 191.113 437.613C190.594 438.014 190.334 438.538 190.334 439.186C190.334 439.796 190.576 440.257 191.059 440.566C191.542 440.876 192.412 441.173 193.67 441.455C194.937 441.738 195.962 442.075 196.746 442.467C197.53 442.859 198.109 443.333 198.482 443.889C198.865 444.436 199.057 445.105 199.057 445.898C199.057 447.22 198.528 448.282 197.471 449.084C196.413 449.877 195.042 450.273 193.355 450.273C192.171 450.273 191.122 450.064 190.211 449.645C189.299 449.225 188.584 448.642 188.064 447.895C187.554 447.138 187.299 446.322 187.299 445.447H189.828C189.874 446.295 190.211 446.969 190.84 447.471C191.478 447.963 192.316 448.209 193.355 448.209C194.312 448.209 195.078 448.018 195.652 447.635C196.236 447.243 196.527 446.723 196.527 446.076ZM205.1 450H202.57V435.207H205.1V450ZM202.365 431.283C202.365 430.873 202.488 430.527 202.734 430.244C202.99 429.962 203.363 429.82 203.855 429.82C204.348 429.82 204.721 429.962 204.977 430.244C205.232 430.527 205.359 430.873 205.359 431.283C205.359 431.693 205.232 432.035 204.977 432.309C204.721 432.582 204.348 432.719 203.855 432.719C203.363 432.719 202.99 432.582 202.734 432.309C202.488 432.035 202.365 431.693 202.365 431.283ZM214.123 440.607L217.404 435.207H220.357L215.518 442.521L220.508 450H217.582L214.164 444.463L210.746 450H207.807L212.797 442.521L207.957 435.207H210.883L214.123 440.607Z" fill="#2E383C"/>
<rect x="178" y="356" width="90" height="58" stroke="black"/>
<path d="M191.346 375.625V379.207H194.107V381.162H191.346V390.336C191.346 390.928 191.469 391.375 191.715 391.676C191.961 391.967 192.38 392.113 192.973 392.113C193.264 392.113 193.665 392.059 194.176 391.949V394C193.51 394.182 192.863 394.273 192.234 394.273C191.104 394.273 190.252 393.932 189.678 393.248C189.104 392.564 188.816 391.594 188.816 390.336V381.162H186.123V379.207H188.816V375.625H191.346ZM199.604 380.998C200.725 379.622 202.183 378.934 203.979 378.934C207.105 378.934 208.682 380.697 208.709 384.225V394H206.18V384.211C206.171 383.145 205.924 382.356 205.441 381.846C204.967 381.335 204.225 381.08 203.213 381.08C202.393 381.08 201.673 381.299 201.053 381.736C200.433 382.174 199.95 382.748 199.604 383.459V394H197.074V373H199.604V380.998ZM219.646 381.477C219.264 381.413 218.849 381.381 218.402 381.381C216.743 381.381 215.618 382.087 215.025 383.5V394H212.496V379.207H214.957L214.998 380.916C215.827 379.594 217.003 378.934 218.525 378.934C219.018 378.934 219.391 378.997 219.646 379.125V381.477ZM227.85 394.273C225.844 394.273 224.213 393.617 222.955 392.305C221.697 390.983 221.068 389.219 221.068 387.014V386.549C221.068 385.081 221.346 383.773 221.902 382.625C222.467 381.467 223.251 380.565 224.254 379.918C225.266 379.262 226.359 378.934 227.535 378.934C229.458 378.934 230.953 379.567 232.02 380.834C233.086 382.101 233.619 383.915 233.619 386.275V387.328H223.598C223.634 388.786 224.058 389.967 224.869 390.869C225.689 391.762 226.729 392.209 227.986 392.209C228.88 392.209 229.636 392.027 230.256 391.662C230.876 391.298 231.418 390.814 231.883 390.213L233.428 391.416C232.188 393.321 230.329 394.273 227.85 394.273ZM227.535 381.012C226.514 381.012 225.658 381.385 224.965 382.133C224.272 382.871 223.844 383.91 223.68 385.25H231.09V385.059C231.017 383.773 230.671 382.78 230.051 382.078C229.431 381.367 228.592 381.012 227.535 381.012ZM242.697 394.273C240.692 394.273 239.061 393.617 237.803 392.305C236.545 390.983 235.916 389.219 235.916 387.014V386.549C235.916 385.081 236.194 383.773 236.75 382.625C237.315 381.467 238.099 380.565 239.102 379.918C240.113 379.262 241.207 378.934 242.383 378.934C244.306 378.934 245.801 379.567 246.867 380.834C247.934 382.101 248.467 383.915 248.467 386.275V387.328H238.445C238.482 388.786 238.906 389.967 239.717 390.869C240.537 391.762 241.576 392.209 242.834 392.209C243.727 392.209 244.484 392.027 245.104 391.662C245.723 391.298 246.266 390.814 246.73 390.213L248.275 391.416C247.036 393.321 245.176 394.273 242.697 394.273ZM242.383 381.012C241.362 381.012 240.505 381.385 239.812 382.133C239.12 382.871 238.691 383.91 238.527 385.25H245.938V385.059C245.865 383.773 245.518 382.78 244.898 382.078C244.279 381.367 243.44 381.012 242.383 381.012Z" fill="#2E383C"/>
<path d="M163.084 157.369C162.929 159.511 162.136 161.197 160.705 162.428C159.283 163.658 157.406 164.273 155.072 164.273C152.52 164.273 150.51 163.417 149.043 161.703C147.585 159.98 146.855 157.62 146.855 154.621V153.404C146.855 151.49 147.193 149.804 147.867 148.346C148.542 146.887 149.503 145.771 150.752 144.996C152.01 144.212 153.468 143.82 155.127 143.82C157.424 143.82 159.274 144.436 160.678 145.666C162.081 146.896 162.893 148.624 163.111 150.848H159.01C158.91 149.562 158.549 148.633 157.93 148.059C157.319 147.475 156.385 147.184 155.127 147.184C153.76 147.184 152.734 147.676 152.051 148.66C151.376 149.635 151.03 151.153 151.012 153.213V154.717C151.012 156.868 151.335 158.44 151.982 159.434C152.639 160.427 153.669 160.924 155.072 160.924C156.339 160.924 157.283 160.637 157.902 160.062C158.531 159.479 158.891 158.581 158.982 157.369H163.084Z" fill="#0072B2"/>
<path d="M147.895 106V86.0938H154.867C157.283 86.0938 159.115 86.5586 160.363 87.4883C161.612 88.4089 162.236 89.7624 162.236 91.5488C162.236 92.5241 161.986 93.3854 161.484 94.1328C160.983 94.8711 160.286 95.4134 159.393 95.7598C160.413 96.015 161.215 96.5299 161.799 97.3047C162.391 98.0794 162.688 99.0273 162.688 100.148C162.688 102.062 162.077 103.512 160.855 104.496C159.634 105.48 157.893 105.982 155.633 106H147.895ZM151.996 97.332V102.705H155.51C156.476 102.705 157.228 102.477 157.766 102.021C158.312 101.557 158.586 100.919 158.586 100.107C158.586 98.2845 157.643 97.3594 155.756 97.332H151.996ZM151.996 94.4336H155.031C157.1 94.3971 158.135 93.5723 158.135 91.959C158.135 91.0566 157.87 90.4095 157.342 90.0176C156.822 89.6165 155.997 89.416 154.867 89.416H151.996V94.4336Z" fill="#0C570A"/>
<path d="M129.889 41.7695C129.889 44.5221 129.319 46.6276 128.18 48.0859C127.04 49.5443 125.372 50.2734 123.176 50.2734C121.007 50.2734 119.348 49.5579 118.199 48.127C117.051 46.696 116.463 44.6452 116.436 41.9746V38.3105C116.436 35.5306 117.01 33.4206 118.158 31.9805C119.316 30.5404 120.979 29.8203 123.148 29.8203C125.318 29.8203 126.977 30.5358 128.125 31.9668C129.273 33.3887 129.861 35.4349 129.889 38.1055V41.7695ZM125.938 37.75C125.938 36.1003 125.71 34.9017 125.254 34.1543C124.807 33.3978 124.105 33.0195 123.148 33.0195C122.219 33.0195 121.531 33.3796 121.084 34.0996C120.646 34.8105 120.414 35.9271 120.387 37.4492V42.2891C120.387 43.9115 120.605 45.1191 121.043 45.9121C121.49 46.696 122.201 47.0879 123.176 47.0879C124.142 47.0879 124.839 46.7096 125.268 45.9531C125.696 45.1966 125.919 44.0391 125.938 42.4805V37.75Z" fill="#2E383C"/>
<path d="M158.176 45.8984H150.984L149.617 50H145.256L152.666 30.0938H156.467L163.918 50H159.557L158.176 45.8984ZM152.092 42.5762H157.068L154.566 35.125L152.092 42.5762Z" fill="#B82629"/>
<path d="M163.084 329.369C162.929 331.511 162.136 333.197 160.705 334.428C159.283 335.658 157.406 336.273 155.072 336.273C152.52 336.273 150.51 335.417 149.043 333.703C147.585 331.98 146.855 329.62 146.855 326.621V325.404C146.855 323.49 147.193 321.804 147.867 320.346C148.542 318.887 149.503 317.771 150.752 316.996C152.01 316.212 153.468 315.82 155.127 315.82C157.424 315.82 159.274 316.436 160.678 317.666C162.081 318.896 162.893 320.624 163.111 322.848H159.01C158.91 321.562 158.549 320.633 157.93 320.059C157.319 319.475 156.385 319.184 155.127 319.184C153.76 319.184 152.734 319.676 152.051 320.66C151.376 321.635 151.03 323.153 151.012 325.213V326.717C151.012 328.868 151.335 330.44 151.982 331.434C152.639 332.427 153.669 332.924 155.072 332.924C156.339 332.924 157.283 332.637 157.902 332.062C158.531 331.479 158.891 330.581 158.982 329.369H163.084Z" fill="#0072B2"/>
<path d="M147.895 278V258.094H154.867C157.283 258.094 159.115 258.559 160.363 259.488C161.612 260.409 162.236 261.762 162.236 263.549C162.236 264.524 161.986 265.385 161.484 266.133C160.983 266.871 160.286 267.413 159.393 267.76C160.413 268.015 161.215 268.53 161.799 269.305C162.391 270.079 162.688 271.027 162.688 272.148C162.688 274.062 162.077 275.512 160.855 276.496C159.634 277.48 157.893 277.982 155.633 278H147.895ZM151.996 269.332V274.705H155.51C156.476 274.705 157.228 274.477 157.766 274.021C158.312 273.557 158.586 272.919 158.586 272.107C158.586 270.285 157.643 269.359 155.756 269.332H151.996ZM151.996 266.434H155.031C157.1 266.397 158.135 265.572 158.135 263.959C158.135 263.057 157.87 262.41 157.342 262.018C156.822 261.617 155.997 261.416 154.867 261.416H151.996V266.434Z" fill="#0C570A"/>
<path d="M126.088 222H122.137V206.77L117.42 208.232V205.02L125.664 202.066H126.088V222Z" fill="#2E383C"/>
<path d="M158.176 217.898H150.984L149.617 222H145.256L152.666 202.094H156.467L163.918 222H159.557L158.176 217.898ZM152.092 214.576H157.068L154.566 207.125L152.092 214.576Z" fill="#B82629"/>
<path d="M163.084 501.369C162.929 503.511 162.136 505.197 160.705 506.428C159.283 507.658 157.406 508.273 155.072 508.273C152.52 508.273 150.51 507.417 149.043 505.703C147.585 503.98 146.855 501.62 146.855 498.621V497.404C146.855 495.49 147.193 493.804 147.867 492.346C148.542 490.887 149.503 489.771 150.752 488.996C152.01 488.212 153.468 487.82 155.127 487.82C157.424 487.82 159.274 488.436 160.678 489.666C162.081 490.896 162.893 492.624 163.111 494.848H159.01C158.91 493.562 158.549 492.633 157.93 492.059C157.319 491.475 156.385 491.184 155.127 491.184C153.76 491.184 152.734 491.676 152.051 492.66C151.376 493.635 151.03 495.153 151.012 497.213V498.717C151.012 500.868 151.335 502.44 151.982 503.434C152.639 504.427 153.669 504.924 155.072 504.924C156.339 504.924 157.283 504.637 157.902 504.062C158.531 503.479 158.891 502.581 158.982 501.369H163.084Z" fill="#0072B2"/>
<path d="M147.895 450V430.094H154.867C157.283 430.094 159.115 430.559 160.363 431.488C161.612 432.409 162.236 433.762 162.236 435.549C162.236 436.524 161.986 437.385 161.484 438.133C160.983 438.871 160.286 439.413 159.393 439.76C160.413 440.015 161.215 440.53 161.799 441.305C162.391 442.079 162.688 443.027 162.688 444.148C162.688 446.062 162.077 447.512 160.855 448.496C159.634 449.48 157.893 449.982 155.633 450H147.895ZM151.996 441.332V446.705H155.51C156.476 446.705 157.228 446.477 157.766 446.021C158.312 445.557 158.586 444.919 158.586 444.107C158.586 442.285 157.643 441.359 155.756 441.332H151.996ZM151.996 438.434H155.031C157.1 438.397 158.135 437.572 158.135 435.959C158.135 435.057 157.87 434.41 157.342 434.018C156.822 433.617 155.997 433.416 154.867 433.416H151.996V438.434Z" fill="#0C570A"/>
<path d="M130.135 394H116.49V391.293L122.93 384.43C123.814 383.464 124.465 382.62 124.885 381.9C125.313 381.18 125.527 380.497 125.527 379.85C125.527 378.965 125.304 378.273 124.857 377.771C124.411 377.261 123.773 377.006 122.943 377.006C122.05 377.006 121.344 377.316 120.824 377.936C120.314 378.546 120.059 379.353 120.059 380.355H116.094C116.094 379.143 116.381 378.036 116.955 377.033C117.538 376.031 118.359 375.247 119.416 374.682C120.473 374.107 121.672 373.82 123.012 373.82C125.062 373.82 126.653 374.312 127.783 375.297C128.923 376.281 129.492 377.671 129.492 379.467C129.492 380.451 129.237 381.454 128.727 382.475C128.216 383.495 127.341 384.685 126.102 386.043L121.576 390.814H130.135V394Z" fill="#2E383C"/>
<path d="M158.176 389.898H150.984L149.617 394H145.256L152.666 374.094H156.467L163.918 394H159.557L158.176 389.898ZM152.092 386.576H157.068L154.566 379.125L152.092 386.576Z" fill="#B82629"/>
<path d="M429.24 74.2539H423.047L419.971 92H417.414L420.49 74.2539H414.297L414.68 72.0938H429.623L429.24 74.2539ZM433.396 79.0117C434.691 77.599 436.181 76.9108 437.867 76.9473C439.253 76.9655 440.278 77.444 440.943 78.3828C441.618 79.3125 441.868 80.6204 441.695 82.3066L440.082 92H437.607L439.234 82.2656C439.289 81.819 439.294 81.4043 439.248 81.0215C439.093 79.7454 438.341 79.0938 436.992 79.0664C435.479 79.0299 434.176 79.8229 433.082 81.4453L431.25 92H428.775L432.426 71H434.9L433.396 79.0117ZM450.268 92.2734C448.426 92.237 446.986 91.5579 445.947 90.2363C444.908 88.9147 444.471 87.224 444.635 85.1641L444.703 84.5762C444.858 83.1087 445.291 81.7689 446.002 80.5566C446.722 79.3444 447.597 78.4329 448.627 77.8223C449.657 77.2025 450.769 76.9062 451.963 76.9336C453.485 76.9701 454.679 77.4759 455.545 78.4512C456.411 79.4264 456.885 80.748 456.967 82.416C456.994 83.0085 456.976 83.6009 456.912 84.1934L456.762 85.3281H447.096C446.932 86.668 447.15 87.8073 447.752 88.7461C448.363 89.6849 449.27 90.1725 450.473 90.209C451.931 90.2454 453.28 89.5892 454.52 88.2402L455.941 89.4434C455.322 90.3366 454.52 91.0384 453.535 91.5488C452.56 92.0501 451.471 92.2917 450.268 92.2734ZM451.84 78.998C450.819 78.9707 449.926 79.3171 449.16 80.0371C448.404 80.7572 447.802 81.8281 447.355 83.25L454.547 83.2637L454.602 83.0449C454.747 81.8965 454.561 80.944 454.041 80.1875C453.531 79.4219 452.797 79.0254 451.84 78.998ZM470.625 88.541L475.957 77.207H478.568L471.117 92H469.23L466.332 77.207H468.766L470.625 88.541ZM487.373 92C487.309 91.7357 487.277 91.4759 487.277 91.2207L487.318 90.4414C485.96 91.6992 484.52 92.3099 482.998 92.2734C481.695 92.2552 480.633 91.8451 479.812 91.043C479.001 90.2318 478.632 89.2201 478.705 88.0078C478.796 86.4401 479.48 85.2188 480.756 84.3438C482.041 83.4596 483.727 83.0176 485.814 83.0176L488.398 83.0312L488.562 81.8555C488.654 80.9714 488.48 80.2741 488.043 79.7637C487.615 79.2441 486.967 78.9753 486.102 78.957C485.254 78.9388 484.502 79.1484 483.846 79.5859C483.199 80.0143 482.802 80.584 482.656 81.2949L480.168 81.3086C480.25 80.4427 480.587 79.6771 481.18 79.0117C481.772 78.3372 482.533 77.8177 483.463 77.4531C484.393 77.0794 485.354 76.9017 486.348 76.9199C487.888 76.9564 489.087 77.4258 489.943 78.3281C490.8 79.2214 491.16 80.4108 491.023 81.8965L489.82 89.2246L489.752 90.2773C489.734 90.7786 489.788 91.2754 489.916 91.7676L489.889 92H487.373ZM483.49 90.0859C484.283 90.1042 485.031 89.9173 485.732 89.5254C486.443 89.1243 487.054 88.5729 487.564 87.8711L488.098 84.8223L486.225 84.8086C484.666 84.8086 483.472 85.0547 482.643 85.5469C481.813 86.0391 481.344 86.7363 481.234 87.6387C481.152 88.3314 481.312 88.9102 481.713 89.375C482.123 89.8307 482.715 90.0677 483.49 90.0859ZM495.932 92H493.471L497.107 71H499.582L495.932 92ZM509.371 90.5371C508.214 91.7311 506.742 92.3099 504.955 92.2734C503.542 92.237 502.494 91.7311 501.811 90.7559C501.136 89.7806 500.885 88.4499 501.059 86.7637L502.645 77.207H505.119L503.52 86.8047C503.474 87.2057 503.465 87.5977 503.492 87.9805C503.538 88.6367 503.734 89.1517 504.08 89.5254C504.426 89.8991 504.91 90.0996 505.529 90.127C507.298 90.1816 508.665 89.4661 509.631 87.9805L511.49 77.207H513.965L511.395 92H509.057L509.371 90.5371ZM521.498 92.2734C519.657 92.237 518.217 91.5579 517.178 90.2363C516.139 88.9147 515.701 87.224 515.865 85.1641L515.934 84.5762C516.089 83.1087 516.521 81.7689 517.232 80.5566C517.952 79.3444 518.827 78.4329 519.857 77.8223C520.887 77.2025 521.999 76.9062 523.193 76.9336C524.715 76.9701 525.91 77.4759 526.775 78.4512C527.641 79.4264 528.115 80.748 528.197 82.416C528.225 83.0085 528.206 83.6009 528.143 84.1934L527.992 85.3281H518.326C518.162 86.668 518.381 87.8073 518.982 88.7461C519.593 89.6849 520.5 90.1725 521.703 90.209C523.161 90.2454 524.51 89.5892 525.75 88.2402L527.172 89.4434C526.552 90.3366 525.75 91.0384 524.766 91.5488C523.79 92.0501 522.701 92.2917 521.498 92.2734ZM523.07 78.998C522.049 78.9707 521.156 79.3171 520.391 80.0371C519.634 80.7572 519.033 81.8281 518.586 83.25L525.777 83.2637L525.832 83.0449C525.978 81.8965 525.791 80.944 525.271 80.1875C524.761 79.4219 524.027 79.0254 523.07 78.998ZM538.779 87.9941C538.916 86.9733 538.355 86.2533 537.098 85.834L534.527 85.082C532.358 84.3346 531.31 83.0951 531.383 81.3633C531.447 80.0599 532.039 78.9935 533.16 78.1641C534.29 77.3255 535.617 76.9154 537.139 76.9336C538.633 76.9518 539.846 77.3893 540.775 78.2461C541.714 79.0938 542.165 80.2012 542.129 81.5684L539.668 81.5547C539.686 80.8164 539.454 80.2148 538.971 79.75C538.488 79.2852 537.845 79.0436 537.043 79.0254C536.186 79.0072 535.448 79.2168 534.828 79.6543C534.254 80.0645 533.921 80.6022 533.83 81.2676C533.712 82.1243 534.236 82.7487 535.402 83.1406L536.646 83.4824C538.342 83.9199 539.545 84.4896 540.256 85.1914C540.967 85.8932 541.295 86.7637 541.24 87.8027C541.186 88.7233 540.885 89.5254 540.338 90.209C539.791 90.8926 539.062 91.4167 538.15 91.7812C537.239 92.1367 536.268 92.3008 535.238 92.2734C533.671 92.2552 532.376 91.7995 531.355 90.9062C530.335 90.0039 529.842 88.8464 529.879 87.4336L532.354 87.4473C532.354 88.2767 532.618 88.9421 533.146 89.4434C533.675 89.9447 534.4 90.1953 535.32 90.1953C536.223 90.2135 537.002 90.0267 537.658 89.6348C538.314 89.2337 538.688 88.6868 538.779 87.9941ZM551.822 92L554.064 79.1621H551.781L552.123 77.207H554.393L554.639 75.457C554.876 73.9714 555.45 72.8092 556.361 71.9707C557.318 71.0957 558.54 70.6673 560.025 70.6855C560.49 70.6855 561.078 70.763 561.789 70.918L561.488 72.9824C561.051 72.8913 560.609 72.8366 560.162 72.8184C559.305 72.8184 558.608 73.0872 558.07 73.625C557.542 74.1536 557.214 74.86 557.086 75.7441L556.867 77.207H559.93L559.588 79.1621H556.525L554.297 92H551.822ZM569.391 79.4629L568.229 79.3398C566.643 79.3398 565.394 80.0553 564.482 81.4863L562.664 92H560.189L562.76 77.207L565.152 77.1934L564.783 78.916C565.831 77.5397 567.066 76.8698 568.488 76.9062C568.789 76.9062 569.181 76.9746 569.664 77.1113L569.391 79.4629ZM577.457 76.9336C578.697 76.9518 579.758 77.2891 580.643 77.9453C581.527 78.6016 582.178 79.5085 582.598 80.666C583.026 81.8145 583.172 83.0723 583.035 84.4395L583.008 84.7402C582.835 86.1803 582.406 87.4837 581.723 88.6504C581.039 89.8079 580.155 90.7103 579.07 91.3574C577.986 92.0046 576.796 92.3099 575.502 92.2734C574.271 92.2552 573.21 91.918 572.316 91.2617C571.432 90.6055 570.785 89.7122 570.375 88.582C569.965 87.4518 569.819 86.2077 569.938 84.8496C570.074 83.3184 570.489 81.9421 571.182 80.7207C571.874 79.4993 572.763 78.556 573.848 77.8906C574.941 77.2161 576.145 76.8971 577.457 76.9336ZM572.426 84.8633C572.362 85.4375 572.362 86.0345 572.426 86.6543C572.517 87.7298 572.836 88.5866 573.383 89.2246C573.939 89.8626 574.677 90.1953 575.598 90.2227C576.418 90.25 577.174 90.0495 577.867 89.6211C578.56 89.1836 579.143 88.5273 579.617 87.6523C580.091 86.7773 580.396 85.8066 580.533 84.7402C580.606 83.9017 580.62 83.1953 580.574 82.6211C580.465 81.5182 580.132 80.6478 579.576 80.0098C579.02 79.3717 578.282 79.0345 577.361 78.998C576.085 78.9707 575.001 79.472 574.107 80.502C573.214 81.5319 572.663 82.8809 572.453 84.5488L572.426 84.8633ZM589.762 77.1934L589.447 78.8477C590.687 77.5352 592.186 76.8971 593.945 76.9336C594.884 76.9518 595.677 77.166 596.324 77.5762C596.98 77.9863 597.432 78.5651 597.678 79.3125C599.063 77.6901 600.699 76.8971 602.586 76.9336C604.062 76.9701 605.152 77.4668 605.854 78.4238C606.555 79.3809 606.815 80.666 606.633 82.2793L605.006 92H602.545L604.158 82.252C604.213 81.778 604.213 81.3451 604.158 80.9531C603.985 79.7135 603.174 79.0801 601.725 79.0527C600.822 79.0345 600.002 79.3171 599.264 79.9004C598.535 80.4746 598.065 81.2311 597.855 82.1699L596.174 92H593.686L595.326 82.2656C595.445 81.2539 595.29 80.4746 594.861 79.9277C594.442 79.3809 593.786 79.0983 592.893 79.0801C591.352 79.0436 590.126 79.7454 589.215 81.1855L587.342 92H584.867L587.438 77.207L589.762 77.1934ZM421.625 115.463L420.463 115.34C418.877 115.34 417.628 116.055 416.717 117.486L414.898 128H412.424L414.994 113.207L417.387 113.193L417.018 114.916C418.066 113.54 419.301 112.87 420.723 112.906C421.023 112.906 421.415 112.975 421.898 113.111L421.625 115.463ZM429.691 112.934C430.931 112.952 431.993 113.289 432.877 113.945C433.761 114.602 434.413 115.508 434.832 116.666C435.26 117.814 435.406 119.072 435.27 120.439L435.242 120.74C435.069 122.18 434.641 123.484 433.957 124.65C433.273 125.808 432.389 126.71 431.305 127.357C430.22 128.005 429.031 128.31 427.736 128.273C426.506 128.255 425.444 127.918 424.551 127.262C423.667 126.605 423.02 125.712 422.609 124.582C422.199 123.452 422.053 122.208 422.172 120.85C422.309 119.318 422.723 117.942 423.416 116.721C424.109 115.499 424.997 114.556 426.082 113.891C427.176 113.216 428.379 112.897 429.691 112.934ZM424.66 120.863C424.596 121.438 424.596 122.035 424.66 122.654C424.751 123.73 425.07 124.587 425.617 125.225C426.173 125.863 426.911 126.195 427.832 126.223C428.652 126.25 429.409 126.049 430.102 125.621C430.794 125.184 431.378 124.527 431.852 123.652C432.326 122.777 432.631 121.807 432.768 120.74C432.84 119.902 432.854 119.195 432.809 118.621C432.699 117.518 432.367 116.648 431.811 116.01C431.255 115.372 430.516 115.035 429.596 114.998C428.32 114.971 427.235 115.472 426.342 116.502C425.449 117.532 424.897 118.881 424.688 120.549L424.66 120.863ZM450.391 124.5L455.107 113.207H457.664L450.924 128H448.914L447.383 116.816L442.051 128H440.041L438.441 113.207H440.807L441.709 124.227L446.959 113.207H448.955L450.391 124.5Z" fill="black"/>
<path d="M472.517 128.336C470.501 128.336 468.905 127.533 467.729 125.928C466.572 124.323 465.993 122.017 465.993 119.012C465.993 116.007 466.572 113.729 467.729 112.18C468.905 110.612 470.501 109.828 472.517 109.828C474.533 109.828 476.12 110.612 477.277 112.18C478.453 113.729 479.041 116.007 479.041 119.012C479.041 122.017 478.453 124.323 477.277 125.928C476.12 127.533 474.533 128.336 472.517 128.336ZM472.517 112.012C471.939 112.012 471.407 112.143 470.921 112.404C470.436 112.665 470.016 113.076 469.661 113.636C469.307 114.196 469.027 114.924 468.821 115.82C468.635 116.697 468.541 117.761 468.541 119.012C468.541 120.263 468.635 121.336 468.821 122.232C469.027 123.128 469.307 123.865 469.661 124.444C470.016 125.023 470.436 125.452 470.921 125.732C471.407 125.993 471.939 126.124 472.517 126.124C473.096 126.124 473.628 125.993 474.113 125.732C474.599 125.452 475.019 125.023 475.373 124.444C475.728 123.865 475.999 123.128 476.185 122.232C476.391 121.336 476.493 120.263 476.493 119.012C476.493 117.761 476.391 116.697 476.185 115.82C475.999 114.924 475.728 114.196 475.373 113.636C475.019 113.076 474.599 112.665 474.113 112.404C473.628 112.143 473.096 112.012 472.517 112.012ZM472.517 120.804C472.013 120.804 471.575 120.636 471.201 120.3C470.847 119.945 470.669 119.469 470.669 118.872C470.669 118.275 470.847 117.808 471.201 117.472C471.575 117.117 472.013 116.94 472.517 116.94C473.021 116.94 473.451 117.117 473.805 117.472C474.179 117.808 474.365 118.275 474.365 118.872C474.365 119.469 474.179 119.945 473.805 120.3C473.451 120.636 473.021 120.804 472.517 120.804Z" fill="#333333"/>
<line x1="282" y1="30" x2="282" y2="172" stroke="#D55E00" stroke-width="2"/>
<line x1="282" y1="98.1235" x2="394" y2="98.1235" stroke="#D55E00" stroke-width="2"/>
<path d="M431.24 244.254H425.047L421.971 262H419.414L422.49 244.254H416.297L416.68 242.094H431.623L431.24 244.254ZM435.396 249.012C436.691 247.599 438.181 246.911 439.867 246.947C441.253 246.965 442.278 247.444 442.943 248.383C443.618 249.312 443.868 250.62 443.695 252.307L442.082 262H439.607L441.234 252.266C441.289 251.819 441.294 251.404 441.248 251.021C441.093 249.745 440.341 249.094 438.992 249.066C437.479 249.03 436.176 249.823 435.082 251.445L433.25 262H430.775L434.426 241H436.9L435.396 249.012ZM452.268 262.273C450.426 262.237 448.986 261.558 447.947 260.236C446.908 258.915 446.471 257.224 446.635 255.164L446.703 254.576C446.858 253.109 447.291 251.769 448.002 250.557C448.722 249.344 449.597 248.433 450.627 247.822C451.657 247.202 452.769 246.906 453.963 246.934C455.485 246.97 456.679 247.476 457.545 248.451C458.411 249.426 458.885 250.748 458.967 252.416C458.994 253.008 458.976 253.601 458.912 254.193L458.762 255.328H449.096C448.932 256.668 449.15 257.807 449.752 258.746C450.363 259.685 451.27 260.173 452.473 260.209C453.931 260.245 455.28 259.589 456.52 258.24L457.941 259.443C457.322 260.337 456.52 261.038 455.535 261.549C454.56 262.05 453.471 262.292 452.268 262.273ZM453.84 248.998C452.819 248.971 451.926 249.317 451.16 250.037C450.404 250.757 449.802 251.828 449.355 253.25L456.547 253.264L456.602 253.045C456.747 251.896 456.561 250.944 456.041 250.188C455.531 249.422 454.797 249.025 453.84 248.998ZM472.625 258.541L477.957 247.207H480.568L473.117 262H471.23L468.332 247.207H470.766L472.625 258.541ZM489.373 262C489.309 261.736 489.277 261.476 489.277 261.221L489.318 260.441C487.96 261.699 486.52 262.31 484.998 262.273C483.695 262.255 482.633 261.845 481.812 261.043C481.001 260.232 480.632 259.22 480.705 258.008C480.796 256.44 481.48 255.219 482.756 254.344C484.041 253.46 485.727 253.018 487.814 253.018L490.398 253.031L490.562 251.855C490.654 250.971 490.48 250.274 490.043 249.764C489.615 249.244 488.967 248.975 488.102 248.957C487.254 248.939 486.502 249.148 485.846 249.586C485.199 250.014 484.802 250.584 484.656 251.295L482.168 251.309C482.25 250.443 482.587 249.677 483.18 249.012C483.772 248.337 484.533 247.818 485.463 247.453C486.393 247.079 487.354 246.902 488.348 246.92C489.888 246.956 491.087 247.426 491.943 248.328C492.8 249.221 493.16 250.411 493.023 251.896L491.82 259.225L491.752 260.277C491.734 260.779 491.788 261.275 491.916 261.768L491.889 262H489.373ZM485.49 260.086C486.283 260.104 487.031 259.917 487.732 259.525C488.443 259.124 489.054 258.573 489.564 257.871L490.098 254.822L488.225 254.809C486.666 254.809 485.472 255.055 484.643 255.547C483.813 256.039 483.344 256.736 483.234 257.639C483.152 258.331 483.312 258.91 483.713 259.375C484.123 259.831 484.715 260.068 485.49 260.086ZM497.932 262H495.471L499.107 241H501.582L497.932 262ZM511.371 260.537C510.214 261.731 508.742 262.31 506.955 262.273C505.542 262.237 504.494 261.731 503.811 260.756C503.136 259.781 502.885 258.45 503.059 256.764L504.645 247.207H507.119L505.52 256.805C505.474 257.206 505.465 257.598 505.492 257.98C505.538 258.637 505.734 259.152 506.08 259.525C506.426 259.899 506.91 260.1 507.529 260.127C509.298 260.182 510.665 259.466 511.631 257.98L513.49 247.207H515.965L513.395 262H511.057L511.371 260.537ZM523.498 262.273C521.657 262.237 520.217 261.558 519.178 260.236C518.139 258.915 517.701 257.224 517.865 255.164L517.934 254.576C518.089 253.109 518.521 251.769 519.232 250.557C519.952 249.344 520.827 248.433 521.857 247.822C522.887 247.202 523.999 246.906 525.193 246.934C526.715 246.97 527.91 247.476 528.775 248.451C529.641 249.426 530.115 250.748 530.197 252.416C530.225 253.008 530.206 253.601 530.143 254.193L529.992 255.328H520.326C520.162 256.668 520.381 257.807 520.982 258.746C521.593 259.685 522.5 260.173 523.703 260.209C525.161 260.245 526.51 259.589 527.75 258.24L529.172 259.443C528.552 260.337 527.75 261.038 526.766 261.549C525.79 262.05 524.701 262.292 523.498 262.273ZM525.07 248.998C524.049 248.971 523.156 249.317 522.391 250.037C521.634 250.757 521.033 251.828 520.586 253.25L527.777 253.264L527.832 253.045C527.978 251.896 527.791 250.944 527.271 250.188C526.761 249.422 526.027 249.025 525.07 248.998ZM540.779 257.994C540.916 256.973 540.355 256.253 539.098 255.834L536.527 255.082C534.358 254.335 533.31 253.095 533.383 251.363C533.447 250.06 534.039 248.993 535.16 248.164C536.29 247.326 537.617 246.915 539.139 246.934C540.633 246.952 541.846 247.389 542.775 248.246C543.714 249.094 544.165 250.201 544.129 251.568L541.668 251.555C541.686 250.816 541.454 250.215 540.971 249.75C540.488 249.285 539.845 249.044 539.043 249.025C538.186 249.007 537.448 249.217 536.828 249.654C536.254 250.064 535.921 250.602 535.83 251.268C535.712 252.124 536.236 252.749 537.402 253.141L538.646 253.482C540.342 253.92 541.545 254.49 542.256 255.191C542.967 255.893 543.295 256.764 543.24 257.803C543.186 258.723 542.885 259.525 542.338 260.209C541.791 260.893 541.062 261.417 540.15 261.781C539.239 262.137 538.268 262.301 537.238 262.273C535.671 262.255 534.376 261.799 533.355 260.906C532.335 260.004 531.842 258.846 531.879 257.434L534.354 257.447C534.354 258.277 534.618 258.942 535.146 259.443C535.675 259.945 536.4 260.195 537.32 260.195C538.223 260.214 539.002 260.027 539.658 259.635C540.314 259.234 540.688 258.687 540.779 257.994ZM553.822 262L556.064 249.162H553.781L554.123 247.207H556.393L556.639 245.457C556.876 243.971 557.45 242.809 558.361 241.971C559.318 241.096 560.54 240.667 562.025 240.686C562.49 240.686 563.078 240.763 563.789 240.918L563.488 242.982C563.051 242.891 562.609 242.837 562.162 242.818C561.305 242.818 560.608 243.087 560.07 243.625C559.542 244.154 559.214 244.86 559.086 245.744L558.867 247.207H561.93L561.588 249.162H558.525L556.297 262H553.822ZM571.391 249.463L570.229 249.34C568.643 249.34 567.394 250.055 566.482 251.486L564.664 262H562.189L564.76 247.207L567.152 247.193L566.783 248.916C567.831 247.54 569.066 246.87 570.488 246.906C570.789 246.906 571.181 246.975 571.664 247.111L571.391 249.463ZM579.457 246.934C580.697 246.952 581.758 247.289 582.643 247.945C583.527 248.602 584.178 249.508 584.598 250.666C585.026 251.814 585.172 253.072 585.035 254.439L585.008 254.74C584.835 256.18 584.406 257.484 583.723 258.65C583.039 259.808 582.155 260.71 581.07 261.357C579.986 262.005 578.796 262.31 577.502 262.273C576.271 262.255 575.21 261.918 574.316 261.262C573.432 260.605 572.785 259.712 572.375 258.582C571.965 257.452 571.819 256.208 571.938 254.85C572.074 253.318 572.489 251.942 573.182 250.721C573.874 249.499 574.763 248.556 575.848 247.891C576.941 247.216 578.145 246.897 579.457 246.934ZM574.426 254.863C574.362 255.438 574.362 256.035 574.426 256.654C574.517 257.73 574.836 258.587 575.383 259.225C575.939 259.863 576.677 260.195 577.598 260.223C578.418 260.25 579.174 260.049 579.867 259.621C580.56 259.184 581.143 258.527 581.617 257.652C582.091 256.777 582.396 255.807 582.533 254.74C582.606 253.902 582.62 253.195 582.574 252.621C582.465 251.518 582.132 250.648 581.576 250.01C581.02 249.372 580.282 249.035 579.361 248.998C578.085 248.971 577.001 249.472 576.107 250.502C575.214 251.532 574.663 252.881 574.453 254.549L574.426 254.863ZM591.762 247.193L591.447 248.848C592.687 247.535 594.186 246.897 595.945 246.934C596.884 246.952 597.677 247.166 598.324 247.576C598.98 247.986 599.432 248.565 599.678 249.312C601.063 247.69 602.699 246.897 604.586 246.934C606.062 246.97 607.152 247.467 607.854 248.424C608.555 249.381 608.815 250.666 608.633 252.279L607.006 262H604.545L606.158 252.252C606.213 251.778 606.213 251.345 606.158 250.953C605.985 249.714 605.174 249.08 603.725 249.053C602.822 249.035 602.002 249.317 601.264 249.9C600.535 250.475 600.065 251.231 599.855 252.17L598.174 262H595.686L597.326 252.266C597.445 251.254 597.29 250.475 596.861 249.928C596.442 249.381 595.786 249.098 594.893 249.08C593.352 249.044 592.126 249.745 591.215 251.186L589.342 262H586.867L589.438 247.207L591.762 247.193ZM423.625 285.463L422.463 285.34C420.877 285.34 419.628 286.055 418.717 287.486L416.898 298H414.424L416.994 283.207L419.387 283.193L419.018 284.916C420.066 283.54 421.301 282.87 422.723 282.906C423.023 282.906 423.415 282.975 423.898 283.111L423.625 285.463ZM431.691 282.934C432.931 282.952 433.993 283.289 434.877 283.945C435.761 284.602 436.413 285.508 436.832 286.666C437.26 287.814 437.406 289.072 437.27 290.439L437.242 290.74C437.069 292.18 436.641 293.484 435.957 294.65C435.273 295.808 434.389 296.71 433.305 297.357C432.22 298.005 431.031 298.31 429.736 298.273C428.506 298.255 427.444 297.918 426.551 297.262C425.667 296.605 425.02 295.712 424.609 294.582C424.199 293.452 424.053 292.208 424.172 290.85C424.309 289.318 424.723 287.942 425.416 286.721C426.109 285.499 426.997 284.556 428.082 283.891C429.176 283.216 430.379 282.897 431.691 282.934ZM426.66 290.863C426.596 291.438 426.596 292.035 426.66 292.654C426.751 293.73 427.07 294.587 427.617 295.225C428.173 295.863 428.911 296.195 429.832 296.223C430.652 296.25 431.409 296.049 432.102 295.621C432.794 295.184 433.378 294.527 433.852 293.652C434.326 292.777 434.631 291.807 434.768 290.74C434.84 289.902 434.854 289.195 434.809 288.621C434.699 287.518 434.367 286.648 433.811 286.01C433.255 285.372 432.516 285.035 431.596 284.998C430.32 284.971 429.235 285.472 428.342 286.502C427.449 287.532 426.897 288.881 426.688 290.549L426.66 290.863ZM452.391 294.5L457.107 283.207H459.664L452.924 298H450.914L449.383 286.816L444.051 298H442.041L440.441 283.207H442.807L443.709 294.227L448.959 283.207H450.955L452.391 294.5Z" fill="black"/>
<path d="M480.957 295.732V298H468.749V295.732H473.705V283.3H469.925V281.564C470.896 281.415 471.736 281.228 472.445 281.004C473.155 280.761 473.808 280.481 474.405 280.164H476.477V295.732H480.957Z" fill="#333333"/>
<line x1="284" y1="200" x2="284" y2="342" stroke="#D55E00" stroke-width="2"/>
<line x1="284" y1="268.123" x2="396" y2="268.123" stroke="#D55E00" stroke-width="2"/>
<path d="M431.24 422.254H425.047L421.971 440H419.414L422.49 422.254H416.297L416.68 420.094H431.623L431.24 422.254ZM435.396 427.012C436.691 425.599 438.181 424.911 439.867 424.947C441.253 424.965 442.278 425.444 442.943 426.383C443.618 427.312 443.868 428.62 443.695 430.307L442.082 440H439.607L441.234 430.266C441.289 429.819 441.294 429.404 441.248 429.021C441.093 427.745 440.341 427.094 438.992 427.066C437.479 427.03 436.176 427.823 435.082 429.445L433.25 440H430.775L434.426 419H436.9L435.396 427.012ZM452.268 440.273C450.426 440.237 448.986 439.558 447.947 438.236C446.908 436.915 446.471 435.224 446.635 433.164L446.703 432.576C446.858 431.109 447.291 429.769 448.002 428.557C448.722 427.344 449.597 426.433 450.627 425.822C451.657 425.202 452.769 424.906 453.963 424.934C455.485 424.97 456.679 425.476 457.545 426.451C458.411 427.426 458.885 428.748 458.967 430.416C458.994 431.008 458.976 431.601 458.912 432.193L458.762 433.328H449.096C448.932 434.668 449.15 435.807 449.752 436.746C450.363 437.685 451.27 438.173 452.473 438.209C453.931 438.245 455.28 437.589 456.52 436.24L457.941 437.443C457.322 438.337 456.52 439.038 455.535 439.549C454.56 440.05 453.471 440.292 452.268 440.273ZM453.84 426.998C452.819 426.971 451.926 427.317 451.16 428.037C450.404 428.757 449.802 429.828 449.355 431.25L456.547 431.264L456.602 431.045C456.747 429.896 456.561 428.944 456.041 428.188C455.531 427.422 454.797 427.025 453.84 426.998ZM472.625 436.541L477.957 425.207H480.568L473.117 440H471.23L468.332 425.207H470.766L472.625 436.541ZM489.373 440C489.309 439.736 489.277 439.476 489.277 439.221L489.318 438.441C487.96 439.699 486.52 440.31 484.998 440.273C483.695 440.255 482.633 439.845 481.812 439.043C481.001 438.232 480.632 437.22 480.705 436.008C480.796 434.44 481.48 433.219 482.756 432.344C484.041 431.46 485.727 431.018 487.814 431.018L490.398 431.031L490.562 429.855C490.654 428.971 490.48 428.274 490.043 427.764C489.615 427.244 488.967 426.975 488.102 426.957C487.254 426.939 486.502 427.148 485.846 427.586C485.199 428.014 484.802 428.584 484.656 429.295L482.168 429.309C482.25 428.443 482.587 427.677 483.18 427.012C483.772 426.337 484.533 425.818 485.463 425.453C486.393 425.079 487.354 424.902 488.348 424.92C489.888 424.956 491.087 425.426 491.943 426.328C492.8 427.221 493.16 428.411 493.023 429.896L491.82 437.225L491.752 438.277C491.734 438.779 491.788 439.275 491.916 439.768L491.889 440H489.373ZM485.49 438.086C486.283 438.104 487.031 437.917 487.732 437.525C488.443 437.124 489.054 436.573 489.564 435.871L490.098 432.822L488.225 432.809C486.666 432.809 485.472 433.055 484.643 433.547C483.813 434.039 483.344 434.736 483.234 435.639C483.152 436.331 483.312 436.91 483.713 437.375C484.123 437.831 484.715 438.068 485.49 438.086ZM497.932 440H495.471L499.107 419H501.582L497.932 440ZM511.371 438.537C510.214 439.731 508.742 440.31 506.955 440.273C505.542 440.237 504.494 439.731 503.811 438.756C503.136 437.781 502.885 436.45 503.059 434.764L504.645 425.207H507.119L505.52 434.805C505.474 435.206 505.465 435.598 505.492 435.98C505.538 436.637 505.734 437.152 506.08 437.525C506.426 437.899 506.91 438.1 507.529 438.127C509.298 438.182 510.665 437.466 511.631 435.98L513.49 425.207H515.965L513.395 440H511.057L511.371 438.537ZM523.498 440.273C521.657 440.237 520.217 439.558 519.178 438.236C518.139 436.915 517.701 435.224 517.865 433.164L517.934 432.576C518.089 431.109 518.521 429.769 519.232 428.557C519.952 427.344 520.827 426.433 521.857 425.822C522.887 425.202 523.999 424.906 525.193 424.934C526.715 424.97 527.91 425.476 528.775 426.451C529.641 427.426 530.115 428.748 530.197 430.416C530.225 431.008 530.206 431.601 530.143 432.193L529.992 433.328H520.326C520.162 434.668 520.381 435.807 520.982 436.746C521.593 437.685 522.5 438.173 523.703 438.209C525.161 438.245 526.51 437.589 527.75 436.24L529.172 437.443C528.552 438.337 527.75 439.038 526.766 439.549C525.79 440.05 524.701 440.292 523.498 440.273ZM525.07 426.998C524.049 426.971 523.156 427.317 522.391 428.037C521.634 428.757 521.033 429.828 520.586 431.25L527.777 431.264L527.832 431.045C527.978 429.896 527.791 428.944 527.271 428.188C526.761 427.422 526.027 427.025 525.07 426.998ZM540.779 435.994C540.916 434.973 540.355 434.253 539.098 433.834L536.527 433.082C534.358 432.335 533.31 431.095 533.383 429.363C533.447 428.06 534.039 426.993 535.16 426.164C536.29 425.326 537.617 424.915 539.139 424.934C540.633 424.952 541.846 425.389 542.775 426.246C543.714 427.094 544.165 428.201 544.129 429.568L541.668 429.555C541.686 428.816 541.454 428.215 540.971 427.75C540.488 427.285 539.845 427.044 539.043 427.025C538.186 427.007 537.448 427.217 536.828 427.654C536.254 428.064 535.921 428.602 535.83 429.268C535.712 430.124 536.236 430.749 537.402 431.141L538.646 431.482C540.342 431.92 541.545 432.49 542.256 433.191C542.967 433.893 543.295 434.764 543.24 435.803C543.186 436.723 542.885 437.525 542.338 438.209C541.791 438.893 541.062 439.417 540.15 439.781C539.239 440.137 538.268 440.301 537.238 440.273C535.671 440.255 534.376 439.799 533.355 438.906C532.335 438.004 531.842 436.846 531.879 435.434L534.354 435.447C534.354 436.277 534.618 436.942 535.146 437.443C535.675 437.945 536.4 438.195 537.32 438.195C538.223 438.214 539.002 438.027 539.658 437.635C540.314 437.234 540.688 436.687 540.779 435.994ZM553.822 440L556.064 427.162H553.781L554.123 425.207H556.393L556.639 423.457C556.876 421.971 557.45 420.809 558.361 419.971C559.318 419.096 560.54 418.667 562.025 418.686C562.49 418.686 563.078 418.763 563.789 418.918L563.488 420.982C563.051 420.891 562.609 420.837 562.162 420.818C561.305 420.818 560.608 421.087 560.07 421.625C559.542 422.154 559.214 422.86 559.086 423.744L558.867 425.207H561.93L561.588 427.162H558.525L556.297 440H553.822ZM571.391 427.463L570.229 427.34C568.643 427.34 567.394 428.055 566.482 429.486L564.664 440H562.189L564.76 425.207L567.152 425.193L566.783 426.916C567.831 425.54 569.066 424.87 570.488 424.906C570.789 424.906 571.181 424.975 571.664 425.111L571.391 427.463ZM579.457 424.934C580.697 424.952 581.758 425.289 582.643 425.945C583.527 426.602 584.178 427.508 584.598 428.666C585.026 429.814 585.172 431.072 585.035 432.439L585.008 432.74C584.835 434.18 584.406 435.484 583.723 436.65C583.039 437.808 582.155 438.71 581.07 439.357C579.986 440.005 578.796 440.31 577.502 440.273C576.271 440.255 575.21 439.918 574.316 439.262C573.432 438.605 572.785 437.712 572.375 436.582C571.965 435.452 571.819 434.208 571.938 432.85C572.074 431.318 572.489 429.942 573.182 428.721C573.874 427.499 574.763 426.556 575.848 425.891C576.941 425.216 578.145 424.897 579.457 424.934ZM574.426 432.863C574.362 433.438 574.362 434.035 574.426 434.654C574.517 435.73 574.836 436.587 575.383 437.225C575.939 437.863 576.677 438.195 577.598 438.223C578.418 438.25 579.174 438.049 579.867 437.621C580.56 437.184 581.143 436.527 581.617 435.652C582.091 434.777 582.396 433.807 582.533 432.74C582.606 431.902 582.62 431.195 582.574 430.621C582.465 429.518 582.132 428.648 581.576 428.01C581.02 427.372 580.282 427.035 579.361 426.998C578.085 426.971 577.001 427.472 576.107 428.502C575.214 429.532 574.663 430.881 574.453 432.549L574.426 432.863ZM591.762 425.193L591.447 426.848C592.687 425.535 594.186 424.897 595.945 424.934C596.884 424.952 597.677 425.166 598.324 425.576C598.98 425.986 599.432 426.565 599.678 427.312C601.063 425.69 602.699 424.897 604.586 424.934C606.062 424.97 607.152 425.467 607.854 426.424C608.555 427.381 608.815 428.666 608.633 430.279L607.006 440H604.545L606.158 430.252C606.213 429.778 606.213 429.345 606.158 428.953C605.985 427.714 605.174 427.08 603.725 427.053C602.822 427.035 602.002 427.317 601.264 427.9C600.535 428.475 600.065 429.231 599.855 430.17L598.174 440H595.686L597.326 430.266C597.445 429.254 597.29 428.475 596.861 427.928C596.442 427.381 595.786 427.098 594.893 427.08C593.352 427.044 592.126 427.745 591.215 429.186L589.342 440H586.867L589.438 425.207L591.762 425.193ZM423.625 463.463L422.463 463.34C420.877 463.34 419.628 464.055 418.717 465.486L416.898 476H414.424L416.994 461.207L419.387 461.193L419.018 462.916C420.066 461.54 421.301 460.87 422.723 460.906C423.023 460.906 423.415 460.975 423.898 461.111L423.625 463.463ZM431.691 460.934C432.931 460.952 433.993 461.289 434.877 461.945C435.761 462.602 436.413 463.508 436.832 464.666C437.26 465.814 437.406 467.072 437.27 468.439L437.242 468.74C437.069 470.18 436.641 471.484 435.957 472.65C435.273 473.808 434.389 474.71 433.305 475.357C432.22 476.005 431.031 476.31 429.736 476.273C428.506 476.255 427.444 475.918 426.551 475.262C425.667 474.605 425.02 473.712 424.609 472.582C424.199 471.452 424.053 470.208 424.172 468.85C424.309 467.318 424.723 465.942 425.416 464.721C426.109 463.499 426.997 462.556 428.082 461.891C429.176 461.216 430.379 460.897 431.691 460.934ZM426.66 468.863C426.596 469.438 426.596 470.035 426.66 470.654C426.751 471.73 427.07 472.587 427.617 473.225C428.173 473.863 428.911 474.195 429.832 474.223C430.652 474.25 431.409 474.049 432.102 473.621C432.794 473.184 433.378 472.527 433.852 471.652C434.326 470.777 434.631 469.807 434.768 468.74C434.84 467.902 434.854 467.195 434.809 466.621C434.699 465.518 434.367 464.648 433.811 464.01C433.255 463.372 432.516 463.035 431.596 462.998C430.32 462.971 429.235 463.472 428.342 464.502C427.449 465.532 426.897 466.881 426.688 468.549L426.66 468.863ZM452.391 472.5L457.107 461.207H459.664L452.924 476H450.914L449.383 464.816L444.051 476H442.041L440.441 461.207H442.807L443.709 472.227L448.959 461.207H450.955L452.391 472.5Z" fill="black"/>
<path d="M468.049 474.376C469.505 473.107 470.803 471.959 471.941 470.932C473.08 469.887 474.032 468.925 474.797 468.048C475.581 467.152 476.179 466.321 476.589 465.556C477 464.791 477.205 464.044 477.205 463.316C477.205 462.327 476.907 461.533 476.309 460.936C475.712 460.339 474.797 460.04 473.565 460.04C472.763 460.04 472.016 460.245 471.325 460.656C470.635 461.067 470.019 461.552 469.477 462.112L467.909 460.572C468.749 459.713 469.636 459.041 470.569 458.556C471.521 458.071 472.641 457.828 473.929 457.828C474.825 457.828 475.637 457.959 476.365 458.22C477.112 458.463 477.737 458.817 478.241 459.284C478.764 459.751 479.165 460.32 479.445 460.992C479.725 461.645 479.865 462.373 479.865 463.176C479.865 463.997 479.669 464.828 479.277 465.668C478.885 466.489 478.344 467.339 477.653 468.216C476.963 469.075 476.141 469.971 475.189 470.904C474.237 471.837 473.201 472.808 472.081 473.816C472.623 473.779 473.173 473.741 473.733 473.704C474.312 473.667 474.853 473.648 475.357 473.648H480.817V476H468.049V474.376Z" fill="#333333"/>
<line x1="284" y1="378" x2="284" y2="520" stroke="#D55E00" stroke-width="2"/>
<line x1="284" y1="446.123" x2="396" y2="446.123" stroke="#D55E00" stroke-width="2"/>
</svg>
