<svg width="674" height="236" viewBox="0 0 674 236" fill="none" xmlns="http://www.w3.org/2000/svg">
<rect width="337" height="118" transform="scale(2)" fill="white"/>
<rect x="202" y="162" width="90" height="56" stroke="black"/>
<path d="M215.346 179.625V183.207H218.107V185.162H215.346V194.336C215.346 194.928 215.469 195.375 215.715 195.676C215.961 195.967 216.38 196.113 216.973 196.113C217.264 196.113 217.665 196.059 218.176 195.949V198C217.51 198.182 216.863 198.273 216.234 198.273C215.104 198.273 214.252 197.932 213.678 197.248C213.104 196.564 212.816 195.594 212.816 194.336V185.162H210.123V183.207H212.816V179.625H215.346ZM223.604 184.998C224.725 183.622 226.183 182.934 227.979 182.934C231.105 182.934 232.682 184.697 232.709 188.225V198H230.18V188.211C230.171 187.145 229.924 186.356 229.441 185.846C228.967 185.335 228.225 185.08 227.213 185.08C226.393 185.08 225.673 185.299 225.053 185.736C224.433 186.174 223.95 186.748 223.604 187.459V198H221.074V177H223.604V184.998ZM243.646 185.477C243.264 185.413 242.849 185.381 242.402 185.381C240.743 185.381 239.618 186.087 239.025 187.5V198H236.496V183.207H238.957L238.998 184.916C239.827 183.594 241.003 182.934 242.525 182.934C243.018 182.934 243.391 182.997 243.646 183.125V185.477ZM251.85 198.273C249.844 198.273 248.213 197.617 246.955 196.305C245.697 194.983 245.068 193.219 245.068 191.014V190.549C245.068 189.081 245.346 187.773 245.902 186.625C246.467 185.467 247.251 184.565 248.254 183.918C249.266 183.262 250.359 182.934 251.535 182.934C253.458 182.934 254.953 183.567 256.02 184.834C257.086 186.101 257.619 187.915 257.619 190.275V191.328H247.598C247.634 192.786 248.058 193.967 248.869 194.869C249.689 195.762 250.729 196.209 251.986 196.209C252.88 196.209 253.636 196.027 254.256 195.662C254.876 195.298 255.418 194.814 255.883 194.213L257.428 195.416C256.188 197.321 254.329 198.273 251.85 198.273ZM251.535 185.012C250.514 185.012 249.658 185.385 248.965 186.133C248.272 186.871 247.844 187.91 247.68 189.25H255.09V189.059C255.017 187.773 254.671 186.78 254.051 186.078C253.431 185.367 252.592 185.012 251.535 185.012ZM266.697 198.273C264.692 198.273 263.061 197.617 261.803 196.305C260.545 194.983 259.916 193.219 259.916 191.014V190.549C259.916 189.081 260.194 187.773 260.75 186.625C261.315 185.467 262.099 184.565 263.102 183.918C264.113 183.262 265.207 182.934 266.383 182.934C268.306 182.934 269.801 183.567 270.867 184.834C271.934 186.101 272.467 187.915 272.467 190.275V191.328H262.445C262.482 192.786 262.906 193.967 263.717 194.869C264.537 195.762 265.576 196.209 266.834 196.209C267.727 196.209 268.484 196.027 269.104 195.662C269.723 195.298 270.266 194.814 270.73 194.213L272.275 195.416C271.036 197.321 269.176 198.273 266.697 198.273ZM266.383 185.012C265.362 185.012 264.505 185.385 263.812 186.133C263.12 186.871 262.691 187.91 262.527 189.25H269.938V189.059C269.865 187.773 269.518 186.78 268.898 186.078C268.279 185.367 267.44 185.012 266.383 185.012Z" fill="#2E383C"/>
<rect x="202" y="104" width="90" height="58" stroke="black"/>
<path d="M215.346 121.625V125.207H218.107V127.162H215.346V136.336C215.346 136.928 215.469 137.375 215.715 137.676C215.961 137.967 216.38 138.113 216.973 138.113C217.264 138.113 217.665 138.059 218.176 137.949V140C217.51 140.182 216.863 140.273 216.234 140.273C215.104 140.273 214.252 139.932 213.678 139.248C213.104 138.564 212.816 137.594 212.816 136.336V127.162H210.123V125.207H212.816V121.625H215.346ZM234.172 136.514L237.016 125.207H239.545L235.238 140H233.188L229.592 128.789L226.092 140H224.041L219.748 125.207H222.264L225.176 136.281L228.621 125.207H230.658L234.172 136.514ZM241.459 132.467C241.459 131.018 241.742 129.714 242.307 128.557C242.881 127.399 243.674 126.506 244.686 125.877C245.706 125.248 246.868 124.934 248.172 124.934C250.186 124.934 251.813 125.631 253.053 127.025C254.301 128.42 254.926 130.275 254.926 132.59V132.768C254.926 134.208 254.648 135.502 254.092 136.65C253.545 137.79 252.757 138.678 251.727 139.316C250.706 139.954 249.53 140.273 248.199 140.273C246.194 140.273 244.567 139.576 243.318 138.182C242.079 136.787 241.459 134.941 241.459 132.645V132.467ZM244.002 132.768C244.002 134.408 244.38 135.725 245.137 136.719C245.902 137.712 246.923 138.209 248.199 138.209C249.484 138.209 250.505 137.708 251.262 136.705C252.018 135.693 252.396 134.281 252.396 132.467C252.396 130.844 252.009 129.532 251.234 128.529C250.469 127.518 249.448 127.012 248.172 127.012C246.923 127.012 245.916 127.508 245.15 128.502C244.385 129.495 244.002 130.917 244.002 132.768Z" fill="#2E383C"/>
<rect x="202" y="46" width="90" height="58" stroke="black"/>
<path d="M211.244 76.4668C211.244 75.0176 211.527 73.7142 212.092 72.5566C212.666 71.3991 213.459 70.5059 214.471 69.877C215.492 69.248 216.654 68.9336 217.957 68.9336C219.971 68.9336 221.598 69.6309 222.838 71.0254C224.087 72.4199 224.711 74.2747 224.711 76.5898V76.7676C224.711 78.2077 224.433 79.502 223.877 80.6504C223.33 81.7897 222.542 82.6784 221.512 83.3164C220.491 83.9544 219.315 84.2734 217.984 84.2734C215.979 84.2734 214.352 83.5762 213.104 82.1816C211.864 80.7871 211.244 78.9414 211.244 76.6445V76.4668ZM213.787 76.7676C213.787 78.4082 214.165 79.7253 214.922 80.7188C215.688 81.7122 216.708 82.209 217.984 82.209C219.27 82.209 220.29 81.7077 221.047 80.7051C221.803 79.6934 222.182 78.2806 222.182 76.4668C222.182 74.8444 221.794 73.5319 221.02 72.5293C220.254 71.5176 219.233 71.0117 217.957 71.0117C216.708 71.0117 215.701 71.5085 214.936 72.502C214.17 73.4954 213.787 74.9173 213.787 76.7676ZM230.275 69.207L230.357 71.0664C231.488 69.6445 232.964 68.9336 234.787 68.9336C237.913 68.9336 239.49 70.6973 239.518 74.2246V84H236.988V74.2109C236.979 73.1445 236.733 72.3561 236.25 71.8457C235.776 71.3353 235.033 71.0801 234.021 71.0801C233.201 71.0801 232.481 71.2988 231.861 71.7363C231.242 72.1738 230.758 72.748 230.412 73.459V84H227.883V69.207H230.275ZM249.471 84.2734C247.465 84.2734 245.834 83.6172 244.576 82.3047C243.318 80.9831 242.689 79.2194 242.689 77.0137V76.5488C242.689 75.0814 242.967 73.7734 243.523 72.625C244.089 71.4674 244.872 70.5651 245.875 69.918C246.887 69.2617 247.98 68.9336 249.156 68.9336C251.079 68.9336 252.574 69.5671 253.641 70.834C254.707 72.1009 255.24 73.9147 255.24 76.2754V77.3281H245.219C245.255 78.7865 245.679 79.9668 246.49 80.8691C247.311 81.7624 248.35 82.209 249.607 82.209C250.501 82.209 251.257 82.0267 251.877 81.6621C252.497 81.2975 253.039 80.8145 253.504 80.2129L255.049 81.416C253.809 83.321 251.95 84.2734 249.471 84.2734ZM249.156 71.0117C248.135 71.0117 247.279 71.3854 246.586 72.1328C245.893 72.8711 245.465 73.9102 245.301 75.25H252.711V75.0586C252.638 73.7734 252.292 72.7799 251.672 72.0781C251.052 71.3672 250.214 71.0117 249.156 71.0117Z" fill="#2E383C"/>
<path d="M186.92 198H173.275V195.293L179.715 188.43C180.599 187.464 181.251 186.62 181.67 185.9C182.098 185.18 182.312 184.497 182.312 183.85C182.312 182.965 182.089 182.273 181.643 181.771C181.196 181.261 180.558 181.006 179.729 181.006C178.835 181.006 178.129 181.316 177.609 181.936C177.099 182.546 176.844 183.353 176.844 184.355H172.879C172.879 183.143 173.166 182.036 173.74 181.033C174.324 180.031 175.144 179.247 176.201 178.682C177.258 178.107 178.457 177.82 179.797 177.82C181.848 177.82 183.438 178.312 184.568 179.297C185.708 180.281 186.277 181.671 186.277 183.467C186.277 184.451 186.022 185.454 185.512 186.475C185.001 187.495 184.126 188.685 182.887 190.043L178.361 194.814H186.92V198Z" fill="#2E383C"/>
<path d="M182.873 140H178.922V124.77L174.205 126.232V123.02L182.449 120.066H182.873V140Z" fill="#2E383C"/>
<path d="M186.674 75.7695C186.674 78.5221 186.104 80.6276 184.965 82.0859C183.826 83.5443 182.158 84.2734 179.961 84.2734C177.792 84.2734 176.133 83.5579 174.984 82.127C173.836 80.696 173.248 78.6452 173.221 75.9746V72.3105C173.221 69.5306 173.795 67.4206 174.943 65.9805C176.101 64.5404 177.764 63.8203 179.934 63.8203C182.103 63.8203 183.762 64.5358 184.91 65.9668C186.059 67.3887 186.646 69.4349 186.674 72.1055V75.7695ZM182.723 71.75C182.723 70.1003 182.495 68.9017 182.039 68.1543C181.592 67.3978 180.891 67.0195 179.934 67.0195C179.004 67.0195 178.316 67.3796 177.869 68.0996C177.432 68.8105 177.199 69.9271 177.172 71.4492V76.2891C177.172 77.9115 177.391 79.1191 177.828 79.9121C178.275 80.696 178.986 81.0879 179.961 81.0879C180.927 81.0879 181.624 80.7096 182.053 79.9531C182.481 79.1966 182.704 78.0391 182.723 76.4805V71.75Z" fill="#2E383C"/>
<path d="M250.596 29.8984H243.404L242.037 34H237.676L245.086 14.0938H248.887L256.338 34H251.977L250.596 29.8984ZM244.512 26.5762H249.488L246.986 19.125L244.512 26.5762Z" fill="#B82629"/>
<path d="M328.836 34V14.0938H335.809C338.224 14.0938 340.056 14.5586 341.305 15.4883C342.553 16.4089 343.178 17.7624 343.178 19.5488C343.178 20.5241 342.927 21.3854 342.426 22.1328C341.924 22.8711 341.227 23.4134 340.334 23.7598C341.355 24.015 342.157 24.5299 342.74 25.3047C343.333 26.0794 343.629 27.0273 343.629 28.1484C343.629 30.0625 343.018 31.5117 341.797 32.4961C340.576 33.4805 338.835 33.9818 336.574 34H328.836ZM332.938 25.332V30.7051H336.451C337.417 30.7051 338.169 30.4772 338.707 30.0215C339.254 29.5566 339.527 28.9186 339.527 28.1074C339.527 26.2845 338.584 25.3594 336.697 25.332H332.938ZM332.938 22.4336H335.973C338.042 22.3971 339.076 21.5723 339.076 19.959C339.076 19.0566 338.812 18.4095 338.283 18.0176C337.764 17.6165 336.939 17.416 335.809 17.416H332.938V22.4336Z" fill="#0C570A"/>
<path d="M432.244 27.3691C432.089 29.5111 431.296 31.1973 429.865 32.4277C428.443 33.6582 426.566 34.2734 424.232 34.2734C421.68 34.2734 419.671 33.4167 418.203 31.7031C416.745 29.9805 416.016 27.6198 416.016 24.6211V23.4043C416.016 21.4902 416.353 19.804 417.027 18.3457C417.702 16.8874 418.663 15.7708 419.912 14.9961C421.17 14.2122 422.628 13.8203 424.287 13.8203C426.584 13.8203 428.434 14.4355 429.838 15.666C431.242 16.8965 432.053 18.6237 432.271 20.8477H428.17C428.07 19.5625 427.71 18.6328 427.09 18.0586C426.479 17.4753 425.545 17.1836 424.287 17.1836C422.92 17.1836 421.895 17.6758 421.211 18.6602C420.536 19.6354 420.19 21.153 420.172 23.2129V24.7168C420.172 26.8678 420.495 28.4401 421.143 29.4336C421.799 30.4271 422.829 30.9238 424.232 30.9238C425.499 30.9238 426.443 30.6367 427.062 30.0625C427.691 29.4792 428.051 28.5814 428.143 27.3691H432.244Z" fill="#0072B2"/>
<rect x="292" y="162" width="88" height="56" stroke="black"/>
<path d="M308.527 194.076C308.527 193.393 308.268 192.864 307.748 192.49C307.238 192.107 306.34 191.779 305.055 191.506C303.779 191.232 302.762 190.904 302.006 190.521C301.258 190.139 300.702 189.683 300.338 189.154C299.982 188.626 299.805 187.997 299.805 187.268C299.805 186.055 300.315 185.03 301.336 184.191C302.366 183.353 303.678 182.934 305.273 182.934C306.951 182.934 308.309 183.367 309.348 184.232C310.396 185.098 310.92 186.206 310.92 187.555H308.377C308.377 186.862 308.081 186.265 307.488 185.764C306.905 185.262 306.167 185.012 305.273 185.012C304.353 185.012 303.633 185.212 303.113 185.613C302.594 186.014 302.334 186.538 302.334 187.186C302.334 187.796 302.576 188.257 303.059 188.566C303.542 188.876 304.412 189.173 305.67 189.455C306.937 189.738 307.962 190.075 308.746 190.467C309.53 190.859 310.109 191.333 310.482 191.889C310.865 192.436 311.057 193.105 311.057 193.898C311.057 195.22 310.528 196.282 309.471 197.084C308.413 197.877 307.042 198.273 305.355 198.273C304.171 198.273 303.122 198.064 302.211 197.645C301.299 197.225 300.584 196.642 300.064 195.895C299.554 195.138 299.299 194.322 299.299 193.447H301.828C301.874 194.295 302.211 194.969 302.84 195.471C303.478 195.963 304.316 196.209 305.355 196.209C306.312 196.209 307.078 196.018 307.652 195.635C308.236 195.243 308.527 194.723 308.527 194.076ZM317.1 198H314.57V183.207H317.1V198ZM314.365 179.283C314.365 178.873 314.488 178.527 314.734 178.244C314.99 177.962 315.363 177.82 315.855 177.82C316.348 177.82 316.721 177.962 316.977 178.244C317.232 178.527 317.359 178.873 317.359 179.283C317.359 179.693 317.232 180.035 316.977 180.309C316.721 180.582 316.348 180.719 315.855 180.719C315.363 180.719 314.99 180.582 314.734 180.309C314.488 180.035 314.365 179.693 314.365 179.283ZM326.123 188.607L329.404 183.207H332.357L327.518 190.521L332.508 198H329.582L326.164 192.463L322.746 198H319.807L324.797 190.521L319.957 183.207H322.883L326.123 188.607Z" fill="#2E383C"/>
<rect x="292" y="104" width="88" height="58" stroke="black"/>
<path d="M301.158 140V127.162H298.82V125.207H301.158V123.689C301.158 122.104 301.582 120.878 302.43 120.012C303.277 119.146 304.476 118.713 306.025 118.713C306.609 118.713 307.188 118.79 307.762 118.945L307.625 120.996C307.197 120.914 306.741 120.873 306.258 120.873C305.438 120.873 304.804 121.115 304.357 121.598C303.911 122.072 303.688 122.755 303.688 123.648V125.207H306.846V127.162H303.688V140H301.158ZM308.979 132.467C308.979 131.018 309.261 129.714 309.826 128.557C310.4 127.399 311.193 126.506 312.205 125.877C313.226 125.248 314.388 124.934 315.691 124.934C317.706 124.934 319.333 125.631 320.572 127.025C321.821 128.42 322.445 130.275 322.445 132.59V132.768C322.445 134.208 322.167 135.502 321.611 136.65C321.064 137.79 320.276 138.678 319.246 139.316C318.225 139.954 317.049 140.273 315.719 140.273C313.714 140.273 312.087 139.576 310.838 138.182C309.598 136.787 308.979 134.941 308.979 132.645V132.467ZM311.521 132.768C311.521 134.408 311.9 135.725 312.656 136.719C313.422 137.712 314.443 138.209 315.719 138.209C317.004 138.209 318.025 137.708 318.781 136.705C319.538 135.693 319.916 134.281 319.916 132.467C319.916 130.844 319.529 129.532 318.754 128.529C317.988 127.518 316.967 127.012 315.691 127.012C314.443 127.012 313.436 127.508 312.67 128.502C311.904 129.495 311.521 130.917 311.521 132.768ZM334.75 138.537C333.766 139.695 332.321 140.273 330.416 140.273C328.839 140.273 327.636 139.818 326.807 138.906C325.986 137.986 325.572 136.628 325.562 134.832V125.207H328.092V134.764C328.092 137.006 329.003 138.127 330.826 138.127C332.758 138.127 334.044 137.407 334.682 135.967V125.207H337.211V140H334.805L334.75 138.537ZM348.217 127.477C347.834 127.413 347.419 127.381 346.973 127.381C345.314 127.381 344.188 128.087 343.596 129.5V140H341.066V125.207H343.527L343.568 126.916C344.398 125.594 345.574 124.934 347.096 124.934C347.588 124.934 347.962 124.997 348.217 125.125V127.477Z" fill="#2E383C"/>
<rect x="292" y="46" width="88" height="58" stroke="black"/>
<path d="M303.346 65.625V69.207H306.107V71.1621H303.346V80.3359C303.346 80.9284 303.469 81.375 303.715 81.6758C303.961 81.9674 304.38 82.1133 304.973 82.1133C305.264 82.1133 305.665 82.0586 306.176 81.9492V84C305.51 84.1823 304.863 84.2734 304.234 84.2734C303.104 84.2734 302.252 83.9316 301.678 83.248C301.104 82.5645 300.816 81.5938 300.816 80.3359V71.1621H298.123V69.207H300.816V65.625H303.346ZM322.172 80.5137L325.016 69.207H327.545L323.238 84H321.188L317.592 72.7891L314.092 84H312.041L307.748 69.207H310.264L313.176 80.2812L316.621 69.207H318.658L322.172 80.5137ZM329.459 76.4668C329.459 75.0176 329.742 73.7142 330.307 72.5566C330.881 71.3991 331.674 70.5059 332.686 69.877C333.706 69.248 334.868 68.9336 336.172 68.9336C338.186 68.9336 339.813 69.6309 341.053 71.0254C342.301 72.4199 342.926 74.2747 342.926 76.5898V76.7676C342.926 78.2077 342.648 79.502 342.092 80.6504C341.545 81.7897 340.757 82.6784 339.727 83.3164C338.706 83.9544 337.53 84.2734 336.199 84.2734C334.194 84.2734 332.567 83.5762 331.318 82.1816C330.079 80.7871 329.459 78.9414 329.459 76.6445V76.4668ZM332.002 76.7676C332.002 78.4082 332.38 79.7253 333.137 80.7188C333.902 81.7122 334.923 82.209 336.199 82.209C337.484 82.209 338.505 81.7077 339.262 80.7051C340.018 79.6934 340.396 78.2806 340.396 76.4668C340.396 74.8444 340.009 73.5319 339.234 72.5293C338.469 71.5176 337.448 71.0117 336.172 71.0117C334.923 71.0117 333.916 71.5085 333.15 72.502C332.385 73.4954 332.002 74.9173 332.002 76.7676Z" fill="#2E383C"/>
<rect x="380" y="162" width="88" height="56" stroke="black"/>
<path d="M392.307 183.207L392.389 185.066C393.519 183.645 394.995 182.934 396.818 182.934C399.945 182.934 401.521 184.697 401.549 188.225V198H399.02V188.211C399.01 187.145 398.764 186.356 398.281 185.846C397.807 185.335 397.064 185.08 396.053 185.08C395.232 185.08 394.512 185.299 393.893 185.736C393.273 186.174 392.79 186.748 392.443 187.459V198H389.914V183.207H392.307ZM408.111 198H405.582V183.207H408.111V198ZM405.377 179.283C405.377 178.873 405.5 178.527 405.746 178.244C406.001 177.962 406.375 177.82 406.867 177.82C407.359 177.82 407.733 177.962 407.988 178.244C408.243 178.527 408.371 178.873 408.371 179.283C408.371 179.693 408.243 180.035 407.988 180.309C407.733 180.582 407.359 180.719 406.867 180.719C406.375 180.719 406.001 180.582 405.746 180.309C405.5 180.035 405.377 179.693 405.377 179.283ZM414.564 183.207L414.646 185.066C415.777 183.645 417.253 182.934 419.076 182.934C422.202 182.934 423.779 184.697 423.807 188.225V198H421.277V188.211C421.268 187.145 421.022 186.356 420.539 185.846C420.065 185.335 419.322 185.08 418.311 185.08C417.49 185.08 416.77 185.299 416.15 185.736C415.531 186.174 415.048 186.748 414.701 187.459V198H412.172V183.207H414.564ZM433.76 198.273C431.755 198.273 430.123 197.617 428.865 196.305C427.607 194.983 426.979 193.219 426.979 191.014V190.549C426.979 189.081 427.257 187.773 427.812 186.625C428.378 185.467 429.161 184.565 430.164 183.918C431.176 183.262 432.27 182.934 433.445 182.934C435.368 182.934 436.863 183.567 437.93 184.834C438.996 186.101 439.529 187.915 439.529 190.275V191.328H429.508C429.544 192.786 429.968 193.967 430.779 194.869C431.6 195.762 432.639 196.209 433.896 196.209C434.79 196.209 435.546 196.027 436.166 195.662C436.786 195.298 437.328 194.814 437.793 194.213L439.338 195.416C438.098 197.321 436.239 198.273 433.76 198.273ZM433.445 185.012C432.424 185.012 431.568 185.385 430.875 186.133C430.182 186.871 429.754 187.91 429.59 189.25H437V189.059C436.927 187.773 436.581 186.78 435.961 186.078C435.341 185.367 434.503 185.012 433.445 185.012Z" fill="#2E383C"/>
<rect x="380" y="104" width="88" height="58" stroke="black"/>
<path d="M398.527 136.076C398.527 135.393 398.268 134.864 397.748 134.49C397.238 134.107 396.34 133.779 395.055 133.506C393.779 133.232 392.762 132.904 392.006 132.521C391.258 132.139 390.702 131.683 390.338 131.154C389.982 130.626 389.805 129.997 389.805 129.268C389.805 128.055 390.315 127.03 391.336 126.191C392.366 125.353 393.678 124.934 395.273 124.934C396.951 124.934 398.309 125.367 399.348 126.232C400.396 127.098 400.92 128.206 400.92 129.555H398.377C398.377 128.862 398.081 128.265 397.488 127.764C396.905 127.262 396.167 127.012 395.273 127.012C394.353 127.012 393.633 127.212 393.113 127.613C392.594 128.014 392.334 128.538 392.334 129.186C392.334 129.796 392.576 130.257 393.059 130.566C393.542 130.876 394.412 131.173 395.67 131.455C396.937 131.738 397.962 132.075 398.746 132.467C399.53 132.859 400.109 133.333 400.482 133.889C400.865 134.436 401.057 135.105 401.057 135.898C401.057 137.22 400.528 138.282 399.471 139.084C398.413 139.877 397.042 140.273 395.355 140.273C394.171 140.273 393.122 140.064 392.211 139.645C391.299 139.225 390.584 138.642 390.064 137.895C389.554 137.138 389.299 136.322 389.299 135.447H391.828C391.874 136.295 392.211 136.969 392.84 137.471C393.478 137.963 394.316 138.209 395.355 138.209C396.312 138.209 397.078 138.018 397.652 137.635C398.236 137.243 398.527 136.723 398.527 136.076ZM407.1 140H404.57V125.207H407.1V140ZM404.365 121.283C404.365 120.873 404.488 120.527 404.734 120.244C404.99 119.962 405.363 119.82 405.855 119.82C406.348 119.82 406.721 119.962 406.977 120.244C407.232 120.527 407.359 120.873 407.359 121.283C407.359 121.693 407.232 122.035 406.977 122.309C406.721 122.582 406.348 122.719 405.855 122.719C405.363 122.719 404.99 122.582 404.734 122.309C404.488 122.035 404.365 121.693 404.365 121.283ZM416.123 130.607L419.404 125.207H422.357L417.518 132.521L422.508 140H419.582L416.164 134.463L412.746 140H409.807L414.797 132.521L409.957 125.207H412.883L416.123 130.607Z" fill="#2E383C"/>
<rect x="380" y="46" width="88" height="58" stroke="black"/>
<path d="M393.346 65.625V69.207H396.107V71.1621H393.346V80.3359C393.346 80.9284 393.469 81.375 393.715 81.6758C393.961 81.9674 394.38 82.1133 394.973 82.1133C395.264 82.1133 395.665 82.0586 396.176 81.9492V84C395.51 84.1823 394.863 84.2734 394.234 84.2734C393.104 84.2734 392.252 83.9316 391.678 83.248C391.104 82.5645 390.816 81.5938 390.816 80.3359V71.1621H388.123V69.207H390.816V65.625H393.346ZM401.604 70.998C402.725 69.6217 404.183 68.9336 405.979 68.9336C409.105 68.9336 410.682 70.6973 410.709 74.2246V84H408.18V74.2109C408.171 73.1445 407.924 72.3561 407.441 71.8457C406.967 71.3353 406.225 71.0801 405.213 71.0801C404.393 71.0801 403.673 71.2988 403.053 71.7363C402.433 72.1738 401.95 72.748 401.604 73.459V84H399.074V63H401.604V70.998ZM421.646 71.4766C421.264 71.4128 420.849 71.3809 420.402 71.3809C418.743 71.3809 417.618 72.0872 417.025 73.5V84H414.496V69.207H416.957L416.998 70.916C417.827 69.5944 419.003 68.9336 420.525 68.9336C421.018 68.9336 421.391 68.9974 421.646 69.125V71.4766ZM429.85 84.2734C427.844 84.2734 426.213 83.6172 424.955 82.3047C423.697 80.9831 423.068 79.2194 423.068 77.0137V76.5488C423.068 75.0814 423.346 73.7734 423.902 72.625C424.467 71.4674 425.251 70.5651 426.254 69.918C427.266 69.2617 428.359 68.9336 429.535 68.9336C431.458 68.9336 432.953 69.5671 434.02 70.834C435.086 72.1009 435.619 73.9147 435.619 76.2754V77.3281H425.598C425.634 78.7865 426.058 79.9668 426.869 80.8691C427.689 81.7624 428.729 82.209 429.986 82.209C430.88 82.209 431.636 82.0267 432.256 81.6621C432.876 81.2975 433.418 80.8145 433.883 80.2129L435.428 81.416C434.188 83.321 432.329 84.2734 429.85 84.2734ZM429.535 71.0117C428.514 71.0117 427.658 71.3854 426.965 72.1328C426.272 72.8711 425.844 73.9102 425.68 75.25H433.09V75.0586C433.017 73.7734 432.671 72.7799 432.051 72.0781C431.431 71.3672 430.592 71.0117 429.535 71.0117ZM444.697 84.2734C442.692 84.2734 441.061 83.6172 439.803 82.3047C438.545 80.9831 437.916 79.2194 437.916 77.0137V76.5488C437.916 75.0814 438.194 73.7734 438.75 72.625C439.315 71.4674 440.099 70.5651 441.102 69.918C442.113 69.2617 443.207 68.9336 444.383 68.9336C446.306 68.9336 447.801 69.5671 448.867 70.834C449.934 72.1009 450.467 73.9147 450.467 76.2754V77.3281H440.445C440.482 78.7865 440.906 79.9668 441.717 80.8691C442.537 81.7624 443.576 82.209 444.834 82.209C445.727 82.209 446.484 82.0267 447.104 81.6621C447.723 81.2975 448.266 80.8145 448.73 80.2129L450.275 81.416C449.036 83.321 447.176 84.2734 444.697 84.2734ZM444.383 71.0117C443.362 71.0117 442.505 71.3854 441.812 72.1328C441.12 72.8711 440.691 73.9102 440.527 75.25H447.938V75.0586C447.865 73.7734 447.518 72.7799 446.898 72.0781C446.279 71.3672 445.44 71.0117 444.383 71.0117Z" fill="#2E383C"/>
</svg>
