<svg width="674" height="374" viewBox="0 0 674 374" fill="none" xmlns="http://www.w3.org/2000/svg">
<rect width="337" height="187" transform="scale(2)" fill="white"/>
<rect x="178" y="134" width="90" height="56" stroke="black"/>
<path d="M200.697 170H187.654V168.182L194.545 160.525C195.566 159.368 196.268 158.429 196.65 157.709C197.042 156.98 197.238 156.228 197.238 155.453C197.238 154.414 196.924 153.562 196.295 152.896C195.666 152.231 194.827 151.898 193.779 151.898C192.521 151.898 191.542 152.258 190.84 152.979C190.147 153.689 189.801 154.683 189.801 155.959H187.271C187.271 154.127 187.859 152.646 189.035 151.516C190.22 150.385 191.801 149.82 193.779 149.82C195.63 149.82 197.092 150.308 198.168 151.283C199.243 152.249 199.781 153.539 199.781 155.152C199.781 157.112 198.533 159.445 196.035 162.152L190.703 167.936H200.697V170Z" fill="#2E383C"/>
<rect x="178" y="76" width="90" height="58" stroke="black"/>
<path d="M200.697 112H187.654V110.182L194.545 102.525C195.566 101.368 196.268 100.429 196.65 99.709C197.042 98.9798 197.238 98.2279 197.238 97.4531C197.238 96.4141 196.924 95.5618 196.295 94.8965C195.666 94.2311 194.827 93.8984 193.779 93.8984C192.521 93.8984 191.542 94.2585 190.84 94.9785C190.147 95.6895 189.801 96.6829 189.801 97.959H187.271C187.271 96.127 187.859 94.6458 189.035 93.5156C190.22 92.3854 191.801 91.8203 193.779 91.8203C195.63 91.8203 197.092 92.3079 198.168 93.2832C199.243 94.2493 199.781 95.5391 199.781 97.1523C199.781 99.112 198.533 101.445 196.035 104.152L190.703 109.936H200.697V112Z" fill="#2E383C"/>
<rect x="178" y="18" width="90" height="58" stroke="black"/>
<path d="M200.697 56H187.654V54.1816L194.545 46.5254C195.566 45.3678 196.268 44.429 196.65 43.709C197.042 42.9798 197.238 42.2279 197.238 41.4531C197.238 40.4141 196.924 39.5618 196.295 38.8965C195.666 38.2311 194.827 37.8984 193.779 37.8984C192.521 37.8984 191.542 38.2585 190.84 38.9785C190.147 39.6895 189.801 40.6829 189.801 41.959H187.271C187.271 40.127 187.859 38.6458 189.035 37.5156C190.22 36.3854 191.801 35.8203 193.779 35.8203C195.63 35.8203 197.092 36.3079 198.168 37.2832C199.243 38.2493 199.781 39.5391 199.781 41.1523C199.781 43.112 198.533 45.4453 196.035 48.1523L190.703 53.9355H200.697V56Z" fill="#2E383C"/>
<rect x="178" y="306" width="90" height="56" stroke="black"/>
<path d="M195.967 342H193.424V325.143L188.324 327.016V324.719L195.57 321.998H195.967V342Z" fill="#2E383C"/>
<rect x="178" y="248" width="90" height="58" stroke="black"/>
<path d="M195.967 284H193.424V267.143L188.324 269.016V266.719L195.57 263.998H195.967V284Z" fill="#2E383C"/>
<rect x="178" y="190" width="90" height="58" stroke="black"/>
<path d="M195.967 228H193.424V211.143L188.324 213.016V210.719L195.57 207.998H195.967V228Z" fill="#2E383C"/>
<path d="M137.436 51.9121C137.436 51.429 137.194 51.0508 136.711 50.7773C136.237 50.4948 135.471 50.2441 134.414 50.0254C130.896 49.2871 129.137 47.7923 129.137 45.541C129.137 44.2285 129.679 43.1348 130.764 42.2598C131.857 41.3757 133.284 40.9336 135.043 40.9336C136.921 40.9336 138.42 41.3757 139.541 42.2598C140.671 43.1439 141.236 44.2923 141.236 45.7051H137.285C137.285 45.14 137.103 44.6751 136.738 44.3105C136.374 43.9368 135.804 43.75 135.029 43.75C134.364 43.75 133.849 43.9004 133.484 44.2012C133.12 44.502 132.938 44.8848 132.938 45.3496C132.938 45.7871 133.143 46.1426 133.553 46.416C133.972 46.6803 134.674 46.9128 135.658 47.1133C136.643 47.3047 137.472 47.5234 138.146 47.7695C140.234 48.5352 141.277 49.8613 141.277 51.748C141.277 53.097 140.699 54.1908 139.541 55.0293C138.383 55.8587 136.889 56.2734 135.057 56.2734C133.817 56.2734 132.714 56.0547 131.748 55.6172C130.791 55.1706 130.039 54.5645 129.492 53.7988C128.945 53.0241 128.672 52.1901 128.672 51.2969H132.418C132.454 51.9987 132.714 52.5365 133.197 52.9102C133.68 53.2839 134.327 53.4707 135.139 53.4707C135.895 53.4707 136.465 53.3294 136.848 53.0469C137.24 52.7552 137.436 52.377 137.436 51.9121ZM148.004 56H144.039V41.207H148.004V56ZM143.807 37.3789C143.807 36.7865 144.003 36.2988 144.395 35.916C144.796 35.5332 145.338 35.3418 146.021 35.3418C146.696 35.3418 147.234 35.5332 147.635 35.916C148.036 36.2988 148.236 36.7865 148.236 37.3789C148.236 37.9805 148.031 38.4727 147.621 38.8555C147.22 39.2383 146.687 39.4297 146.021 39.4297C145.356 39.4297 144.818 39.2383 144.408 38.8555C144.007 38.4727 143.807 37.9805 143.807 37.3789ZM156.904 45.623L159.393 41.207H163.617L159.406 48.4531L163.795 56H159.557L156.918 51.3516L154.293 56H150.041L154.43 48.4531L150.232 41.207H154.471L156.904 45.623Z" fill="#2E383C"/>
<path d="M124.365 93.5703V97.207H126.895V100.105H124.365V107.488C124.365 108.035 124.47 108.427 124.68 108.664C124.889 108.901 125.29 109.02 125.883 109.02C126.32 109.02 126.708 108.988 127.045 108.924V111.918C126.27 112.155 125.473 112.273 124.652 112.273C121.882 112.273 120.469 110.874 120.414 108.076V100.105H118.254V97.207H120.414V93.5703H124.365ZM141.961 106.627L143.902 97.207H147.717L143.943 112H140.635L137.832 102.689L135.029 112H131.734L127.961 97.207H131.775L133.703 106.613L136.41 97.207H139.268L141.961 106.627ZM149.07 104.467C149.07 102.999 149.353 101.691 149.918 100.543C150.483 99.3945 151.294 98.5059 152.352 97.877C153.418 97.248 154.653 96.9336 156.057 96.9336C158.053 96.9336 159.68 97.5443 160.938 98.7656C162.204 99.987 162.911 101.646 163.057 103.742L163.084 104.754C163.084 107.023 162.451 108.846 161.184 110.223C159.917 111.59 158.217 112.273 156.084 112.273C153.951 112.273 152.247 111.59 150.971 110.223C149.704 108.855 149.07 106.996 149.07 104.645V104.467ZM153.021 104.754C153.021 106.158 153.286 107.233 153.814 107.98C154.343 108.719 155.1 109.088 156.084 109.088C157.041 109.088 157.788 108.723 158.326 107.994C158.864 107.256 159.133 106.08 159.133 104.467C159.133 103.09 158.864 102.024 158.326 101.268C157.788 100.511 157.032 100.133 156.057 100.133C155.09 100.133 154.343 100.511 153.814 101.268C153.286 102.015 153.021 103.177 153.021 104.754Z" fill="#2E383C"/>
<path d="M104.869 149.57V153.207H107.398V156.105H104.869V163.488C104.869 164.035 104.974 164.427 105.184 164.664C105.393 164.901 105.794 165.02 106.387 165.02C106.824 165.02 107.212 164.988 107.549 164.924V167.918C106.774 168.155 105.977 168.273 105.156 168.273C102.385 168.273 100.973 166.874 100.918 164.076V156.105H98.7578V153.207H100.918V149.57H104.869ZM113.455 154.82C114.503 153.562 115.82 152.934 117.406 152.934C120.615 152.934 122.242 154.798 122.287 158.525V168H118.336V158.635C118.336 157.787 118.154 157.163 117.789 156.762C117.424 156.352 116.818 156.146 115.971 156.146C114.813 156.146 113.975 156.593 113.455 157.486V168H109.504V147H113.455V154.82ZM133.58 156.912C133.042 156.839 132.568 156.803 132.158 156.803C130.663 156.803 129.684 157.309 129.219 158.32V168H125.268V153.207H129L129.109 154.971C129.902 153.613 131.001 152.934 132.404 152.934C132.842 152.934 133.252 152.993 133.635 153.111L133.58 156.912ZM142.029 168.273C139.86 168.273 138.092 167.608 136.725 166.277C135.367 164.947 134.688 163.174 134.688 160.959V160.576C134.688 159.09 134.975 157.764 135.549 156.598C136.123 155.422 136.934 154.52 137.982 153.891C139.04 153.253 140.243 152.934 141.592 152.934C143.615 152.934 145.206 153.572 146.363 154.848C147.53 156.124 148.113 157.933 148.113 160.275V161.889H138.693C138.821 162.855 139.204 163.63 139.842 164.213C140.489 164.796 141.305 165.088 142.289 165.088C143.811 165.088 145.001 164.536 145.857 163.434L147.799 165.607C147.206 166.446 146.404 167.102 145.393 167.576C144.381 168.041 143.26 168.273 142.029 168.273ZM141.578 156.133C140.794 156.133 140.156 156.397 139.664 156.926C139.181 157.454 138.871 158.211 138.734 159.195H144.23V158.881C144.212 158.006 143.975 157.331 143.52 156.857C143.064 156.374 142.417 156.133 141.578 156.133ZM157.178 168.273C155.008 168.273 153.24 167.608 151.873 166.277C150.515 164.947 149.836 163.174 149.836 160.959V160.576C149.836 159.09 150.123 157.764 150.697 156.598C151.271 155.422 152.083 154.52 153.131 153.891C154.188 153.253 155.391 152.934 156.74 152.934C158.764 152.934 160.354 153.572 161.512 154.848C162.678 156.124 163.262 157.933 163.262 160.275V161.889H153.842C153.969 162.855 154.352 163.63 154.99 164.213C155.637 164.796 156.453 165.088 157.438 165.088C158.96 165.088 160.149 164.536 161.006 163.434L162.947 165.607C162.355 166.446 161.553 167.102 160.541 167.576C159.529 168.041 158.408 168.273 157.178 168.273ZM156.727 156.133C155.943 156.133 155.305 156.397 154.812 156.926C154.329 157.454 154.02 158.211 153.883 159.195H159.379V158.881C159.361 158.006 159.124 157.331 158.668 156.857C158.212 156.374 157.565 156.133 156.727 156.133Z" fill="#2E383C"/>
<path d="M118.227 216.467C118.227 214.999 118.509 213.691 119.074 212.543C119.639 211.395 120.451 210.506 121.508 209.877C122.574 209.248 123.809 208.934 125.213 208.934C127.209 208.934 128.836 209.544 130.094 210.766C131.361 211.987 132.067 213.646 132.213 215.742L132.24 216.754C132.24 219.023 131.607 220.846 130.34 222.223C129.073 223.59 127.373 224.273 125.24 224.273C123.107 224.273 121.403 223.59 120.127 222.223C118.86 220.855 118.227 218.996 118.227 216.645V216.467ZM122.178 216.754C122.178 218.158 122.442 219.233 122.971 219.98C123.499 220.719 124.256 221.088 125.24 221.088C126.197 221.088 126.945 220.723 127.482 219.994C128.02 219.256 128.289 218.08 128.289 216.467C128.289 215.09 128.02 214.024 127.482 213.268C126.945 212.511 126.188 212.133 125.213 212.133C124.247 212.133 123.499 212.511 122.971 213.268C122.442 214.015 122.178 215.177 122.178 216.754ZM138.311 209.207L138.434 210.916C139.491 209.594 140.908 208.934 142.686 208.934C144.253 208.934 145.42 209.394 146.186 210.314C146.951 211.235 147.343 212.611 147.361 214.443V224H143.41V214.539C143.41 213.701 143.228 213.094 142.863 212.721C142.499 212.338 141.893 212.146 141.045 212.146C139.933 212.146 139.099 212.62 138.543 213.568V224H134.592V209.207H138.311ZM157.178 224.273C155.008 224.273 153.24 223.608 151.873 222.277C150.515 220.947 149.836 219.174 149.836 216.959V216.576C149.836 215.09 150.123 213.764 150.697 212.598C151.271 211.422 152.083 210.52 153.131 209.891C154.188 209.253 155.391 208.934 156.74 208.934C158.764 208.934 160.354 209.572 161.512 210.848C162.678 212.124 163.262 213.933 163.262 216.275V217.889H153.842C153.969 218.855 154.352 219.63 154.99 220.213C155.637 220.796 156.453 221.088 157.438 221.088C158.96 221.088 160.149 220.536 161.006 219.434L162.947 221.607C162.355 222.446 161.553 223.102 160.541 223.576C159.529 224.041 158.408 224.273 157.178 224.273ZM156.727 212.133C155.943 212.133 155.305 212.397 154.812 212.926C154.329 213.454 154.02 214.211 153.883 215.195H159.379V214.881C159.361 214.006 159.124 213.331 158.668 212.857C158.212 212.374 157.565 212.133 156.727 212.133Z" fill="#2E383C"/>
<path d="M115.178 269.207L115.301 270.916C116.358 269.594 117.775 268.934 119.553 268.934C121.12 268.934 122.287 269.394 123.053 270.314C123.818 271.235 124.21 272.611 124.229 274.443V284H120.277V274.539C120.277 273.701 120.095 273.094 119.73 272.721C119.366 272.338 118.76 272.146 117.912 272.146C116.8 272.146 115.966 272.62 115.41 273.568V284H111.459V269.207H115.178ZM131.406 284H127.441V269.207H131.406V284ZM127.209 265.379C127.209 264.786 127.405 264.299 127.797 263.916C128.198 263.533 128.74 263.342 129.424 263.342C130.098 263.342 130.636 263.533 131.037 263.916C131.438 264.299 131.639 264.786 131.639 265.379C131.639 265.98 131.434 266.473 131.023 266.855C130.622 267.238 130.089 267.43 129.424 267.43C128.758 267.43 128.221 267.238 127.811 266.855C127.41 266.473 127.209 265.98 127.209 265.379ZM138.311 269.207L138.434 270.916C139.491 269.594 140.908 268.934 142.686 268.934C144.253 268.934 145.42 269.394 146.186 270.314C146.951 271.235 147.343 272.611 147.361 274.443V284H143.41V274.539C143.41 273.701 143.228 273.094 142.863 272.721C142.499 272.338 141.893 272.146 141.045 272.146C139.933 272.146 139.099 272.62 138.543 273.568V284H134.592V269.207H138.311ZM157.178 284.273C155.008 284.273 153.24 283.608 151.873 282.277C150.515 280.947 149.836 279.174 149.836 276.959V276.576C149.836 275.09 150.123 273.764 150.697 272.598C151.271 271.422 152.083 270.52 153.131 269.891C154.188 269.253 155.391 268.934 156.74 268.934C158.764 268.934 160.354 269.572 161.512 270.848C162.678 272.124 163.262 273.933 163.262 276.275V277.889H153.842C153.969 278.855 154.352 279.63 154.99 280.213C155.637 280.796 156.453 281.088 157.438 281.088C158.96 281.088 160.149 280.536 161.006 279.434L162.947 281.607C162.355 282.446 161.553 283.102 160.541 283.576C159.529 284.041 158.408 284.273 157.178 284.273ZM156.727 272.133C155.943 272.133 155.305 272.397 154.812 272.926C154.329 273.454 154.02 274.211 153.883 275.195H159.379V274.881C159.361 274.006 159.124 273.331 158.668 272.857C158.212 272.374 157.565 272.133 156.727 272.133Z" fill="#2E383C"/>
<path d="M114.836 340V328.105H112.635V325.207H114.836V323.949C114.836 322.29 115.31 321.005 116.258 320.094C117.215 319.173 118.55 318.713 120.264 318.713C120.811 318.713 121.48 318.804 122.273 318.986L122.232 322.049C121.904 321.967 121.503 321.926 121.029 321.926C119.544 321.926 118.801 322.623 118.801 324.018V325.207H121.74V328.105H118.801V340H114.836ZM123.176 332.467C123.176 330.999 123.458 329.691 124.023 328.543C124.589 327.395 125.4 326.506 126.457 325.877C127.523 325.248 128.758 324.934 130.162 324.934C132.158 324.934 133.785 325.544 135.043 326.766C136.31 327.987 137.016 329.646 137.162 331.742L137.189 332.754C137.189 335.023 136.556 336.846 135.289 338.223C134.022 339.59 132.322 340.273 130.189 340.273C128.057 340.273 126.352 339.59 125.076 338.223C123.809 336.855 123.176 334.996 123.176 332.645V332.467ZM127.127 332.754C127.127 334.158 127.391 335.233 127.92 335.98C128.449 336.719 129.205 337.088 130.189 337.088C131.146 337.088 131.894 336.723 132.432 335.994C132.969 335.256 133.238 334.08 133.238 332.467C133.238 331.09 132.969 330.024 132.432 329.268C131.894 328.511 131.137 328.133 130.162 328.133C129.196 328.133 128.449 328.511 127.92 329.268C127.391 330.015 127.127 331.177 127.127 332.754ZM148.482 338.496C147.507 339.681 146.158 340.273 144.436 340.273C142.85 340.273 141.637 339.818 140.799 338.906C139.969 337.995 139.546 336.66 139.527 334.9V325.207H143.479V334.764C143.479 336.304 144.18 337.074 145.584 337.074C146.924 337.074 147.844 336.609 148.346 335.68V325.207H152.311V340H148.592L148.482 338.496ZM163.604 328.912C163.066 328.839 162.592 328.803 162.182 328.803C160.687 328.803 159.707 329.309 159.242 330.32V340H155.291V325.207H159.023L159.133 326.971C159.926 325.613 161.024 324.934 162.428 324.934C162.865 324.934 163.275 324.993 163.658 325.111L163.604 328.912Z" fill="#2E383C"/>
</svg>
